STARTFONT 2.1
COMMENT /*
COMMENT  * Spleen 32x64 1.6.0
COMMENT  * Copyright (c) 2018-2019, Frederic Cambus
COMMENT  * https://www.cambus.net/
COMMENT  *
COMMENT  * Created:      2018-09-11
COMMENT  * Last Updated: 2019-10-01
COMMENT  *
COMMENT  * Spleen is released under the BSD 2-Clause license.
COMMENT  * See LICENSE file for details.
COMMENT  */
FONT -misc-spleen-medium-r-normal--64-640-72-72-C-320-iso10646-1
SIZE 64 72 72
FONTBOUNDINGBOX 32 64 0 -12
STARTPROPERTIES 18
FAMILY_NAME "Spleen"
FOUNDRY "misc"
SLANT "R"
SETWIDTH_NAME "Normal"
PIXEL_SIZE 64
POINT_SIZE 640
RESOLUTION_X 72
RESOLUTION_Y 72
SPACING "C"
AVERAGE_WIDTH 320
CHARSET_REGISTRY "ISO10646"
CHARSET_ENCODING "1"
MIN_SPACE 32
FONT_ASCENT 52
FONT_DESCENT 12
COPYRIGHT "Copyright (c) 2018-2019, Frederic Cambus"
DEFAULT_CHAR 32
_GBDFED_INFO "Edited with gbdfed 1.6."
ENDPROPERTIES
CHARS 758
STARTCHAR SPACE
ENCODING 32
SWIDTH 500 0
DWIDTH 32 0
BBX 32 64 0 -12
BITMAP
00000000
00000000
00000000
00000000
00000000
00000000
00000000
00000000
00000000
00000000
00000000
00000000
00000000
00000000
00000000
00000000
00000000
00000000
00000000
00000000
00000000
00000000
00000000
00000000
00000000
00000000
00000000
00000000
00000000
00000000
00000000
00000000
00000000
00000000
00000000
00000000
00000000
00000000
00000000
00000000
00000000
00000000
00000000
00000000
00000000
00000000
00000000
00000000
00000000
00000000
00000000
00000000
00000000
00000000
00000000
00000000
00000000
00000000
00000000
00000000
00000000
00000000
00000000
00000000
ENDCHAR
STARTCHAR EXCLAMATION MARK
ENCODING 33
SWIDTH 500 0
DWIDTH 32 0
BBX 32 64 0 -12
BITMAP
00000000
00000000
00000000
00000000
00000000
00000000
00000000
00000000
00000000
00000000
00000000
00000000
0003C000
0003C000
0003C000
0003C000
0003C000
0003C000
0003C000
0003C000
0003C000
0003C000
0003C000
0003C000
0003C000
0003C000
0003C000
0003C000
0003C000
0003C000
0003C000
0003C000
0003C000
0003C000
0003C000
0003C000
0003C000
0003C000
0003C000
0003C000
00000000
00000000
00000000
00000000
00000000
00000000
0003C000
0003C000
0003C000
0003C000
0003C000
0003C000
00000000
00000000
00000000
00000000
00000000
00000000
00000000
00000000
00000000
00000000
00000000
00000000
ENDCHAR
STARTCHAR QUOTATION MARK
ENCODING 34
SWIDTH 500 0
DWIDTH 32 0
BBX 32 64 0 -12
BITMAP
00000000
00000000
00000000
00000000
00000000
00000000
00000000
00000000
03C003C0
03C003C0
03C003C0
03C003C0
03C003C0
03C003C0
03C003C0
03C003C0
03C003C0
03C003C0
03C003C0
03C003C0
03C003C0
03C003C0
03C003C0
03C003C0
00000000
00000000
00000000
00000000
00000000
00000000
00000000
00000000
00000000
00000000
00000000
00000000
00000000
00000000
00000000
00000000
00000000
00000000
00000000
00000000
00000000
00000000
00000000
00000000
00000000
00000000
00000000
00000000
00000000
00000000
00000000
00000000
00000000
00000000
00000000
00000000
00000000
00000000
00000000
00000000
ENDCHAR
STARTCHAR NUMBER SIGN
ENCODING 35
SWIDTH 500 0
DWIDTH 32 0
BBX 32 64 0 -12
BITMAP
00000000
00000000
00000000
00000000
00000000
00000000
00000000
00000000
00000000
00000000
00000000
00000000
03C003C0
03C003C0
03C003C0
03C003C0
03C003C0
03C003C0
03C003C0
03C003C0
3FFFFFFC
3FFFFFFC
3FFFFFFC
3FFFFFFC
03C003C0
03C003C0
03C003C0
03C003C0
03C003C0
03C003C0
03C003C0
03C003C0
03C003C0
03C003C0
03C003C0
03C003C0
03C003C0
03C003C0
03C003C0
03C003C0
3FFFFFFC
3FFFFFFC
3FFFFFFC
3FFFFFFC
03C003C0
03C003C0
03C003C0
03C003C0
03C003C0
03C003C0
03C003C0
03C003C0
00000000
00000000
00000000
00000000
00000000
00000000
00000000
00000000
00000000
00000000
00000000
00000000
ENDCHAR
STARTCHAR DOLLAR SIGN
ENCODING 36
SWIDTH 500 0
DWIDTH 32 0
BBX 32 64 0 -12
BITMAP
00000000
00000000
00000000
00000000
00000000
00000000
00000000
00000000
0003C000
0003C000
0003C000
0003C000
007FFFF0
01FFFFF0
03FFFFF0
07FFFFF0
07C3C000
0F83C000
0F03C000
0F03C000
0F03C000
0F03C000
0F03C000
0F03C000
0F03C000
0F03C000
0F83C000
07C3C000
07FFFE00
03FFFF80
01FFFFC0
007FFFE0
0003C3E0
0003C1F0
0003C0F0
0003C0F0
0003C0F0
0003C0F0
0003C0F0
0003C0F0
0003C0F0
0003C0F0
0003C0F0
0003C0F0
0003C0F0
0003C0F0
0003C1F0
0003C3E0
0FFFFFE0
0FFFFFC0
0FFFFF80
0FFFFE00
0003C000
0003C000
0003C000
0003C000
00000000
00000000
00000000
00000000
00000000
00000000
00000000
00000000
ENDCHAR
STARTCHAR PERCENT SIGN
ENCODING 37
SWIDTH 500 0
DWIDTH 32 0
BBX 32 64 0 -12
BITMAP
00000000
00000000
00000000
00000000
00000000
00000000
00000000
00000000
00000000
00000000
00000000
00000000
000001E0
000001E0
01F803E0
03FC03E0
079E07C0
079E07C0
079E0F80
079E0F80
079E1F00
079E1F00
03FC3E00
01F83E00
00007C00
00007C00
0000F800
0000F800
0001F000
0001F000
0003E000
0003E000
0007C000
0007C000
000F8000
000F8000
001F0000
001F0000
003E0000
003E0000
007C1F80
007C3FC0
00F879E0
00F879E0
01F079E0
01F079E0
03E079E0
03E079E0
07C03FC0
07C01F80
07800000
07800000
00000000
00000000
00000000
00000000
00000000
00000000
00000000
00000000
00000000
00000000
00000000
00000000
ENDCHAR
STARTCHAR AMPERSAND
ENCODING 38
SWIDTH 500 0
DWIDTH 32 0
BBX 32 64 0 -12
BITMAP
00000000
00000000
00000000
00000000
00000000
00000000
00000000
00000000
00000000
00000000
00000000
00000000
001FF800
007FFE00
00FFFF00
01FFFF80
01F00F80
03E007C0
03C003C0
03C003C0
03C003C0
03C003C0
03C003C0
03C003C0
03C003C0
03C003C0
03E007C0
01F00F80
01FFFF80
00FFFF00
007FFE00
003FF800
01FFC000
07FFC000
0FFFE000
1FFFF000
1F00F870
3E007CF0
3C003FF0
3C001FE0
3C000FC0
3C000F80
3C000F00
3C000F00
3C000F80
3C000FC0
3E001FE0
1F003FF0
1FFFFCF8
0FFFFC7C
07FFF83C
01FFE01C
00000000
00000000
00000000
00000000
00000000
00000000
00000000
00000000
00000000
00000000
00000000
00000000
ENDCHAR
STARTCHAR APOSTROPHE
ENCODING 39
SWIDTH 500 0
DWIDTH 32 0
BBX 32 64 0 -12
BITMAP
00000000
00000000
00000000
00000000
00000000
00000000
00000000
00000000
0003C000
0003C000
0003C000
0003C000
0003C000
0003C000
0003C000
0003C000
0003C000
0003C000
0003C000
0003C000
0003C000
0003C000
0003C000
0003C000
00000000
00000000
00000000
00000000
00000000
00000000
00000000
00000000
00000000
00000000
00000000
00000000
00000000
00000000
00000000
00000000
00000000
00000000
00000000
00000000
00000000
00000000
00000000
00000000
00000000
00000000
00000000
00000000
00000000
00000000
00000000
00000000
00000000
00000000
00000000
00000000
00000000
00000000
00000000
00000000
ENDCHAR
STARTCHAR LEFT PARENTHESIS
ENCODING 40
SWIDTH 500 0
DWIDTH 32 0
BBX 32 64 0 -12
BITMAP
00000000
00000000
00000000
00000000
00000FF0
00003FF0
0000FFF0
0001FFF0
0003FC00
0007F000
000FC000
001F8000
003F0000
003E0000
007C0000
007C0000
00F80000
00F80000
01F00000
01F00000
03E00000
03E00000
03C00000
03C00000
07C00000
07C00000
07800000
07800000
07800000
07800000
07800000
07800000
07800000
07800000
07800000
07800000
07800000
07800000
07C00000
07C00000
03C00000
03C00000
03E00000
03E00000
01F00000
01F00000
00F80000
00F80000
007C0000
007C0000
003E0000
003F0000
001F8000
000FC000
0007F000
0003FC00
0001FFF0
0000FFF0
00003FF0
00000FF0
00000000
00000000
00000000
00000000
ENDCHAR
STARTCHAR RIGHT PARENTHESIS
ENCODING 41
SWIDTH 500 0
DWIDTH 32 0
BBX 32 64 0 -12
BITMAP
00000000
00000000
00000000
00000000
07F80000
07FE0000
07FF8000
07FFC000
001FE000
0007F000
0001F800
0000FC00
00007E00
00003E00
00001F00
00001F00
00000F80
00000F80
000007C0
000007C0
000003E0
000003E0
000001E0
000001E0
000001F0
000001F0
000000F0
000000F0
000000F0
000000F0
000000F0
000000F0
000000F0
000000F0
000000F0
000000F0
000000F0
000000F0
000001F0
000001F0
000001E0
000001E0
000003E0
000003E0
000007C0
000007C0
00000F80
00000F80
00001F00
00001F00
00003E00
00007E00
0000FC00
0001F800
0007F000
001FE000
07FFC000
07FF8000
07FE0000
07F80000
00000000
00000000
00000000
00000000
ENDCHAR
STARTCHAR ASTERISK
ENCODING 42
SWIDTH 500 0
DWIDTH 32 0
BBX 32 64 0 -12
BITMAP
00000000
00000000
00000000
00000000
00000000
00000000
00000000
00000000
00000000
00000000
00000000
00000000
00000000
00000000
00000000
00000000
00000000
00000000
00000000
00000000
03C003C0
03C003C0
03E007C0
03F00FC0
01F81F80
00FC3F00
007E7E00
003FFC00
001FF800
000FF000
000FF000
000FF000
3FFFFFFC
3FFFFFFC
3FFFFFFC
3FFFFFFC
000FF000
000FF000
000FF000
001FF800
003FFC00
007E7E00
00FC3F00
01F81F80
03F00FC0
03E007C0
03C003C0
03C003C0
00000000
00000000
00000000
00000000
00000000
00000000
00000000
00000000
00000000
00000000
00000000
00000000
00000000
00000000
00000000
00000000
ENDCHAR
STARTCHAR PLUS SIGN
ENCODING 43
SWIDTH 500 0
DWIDTH 32 0
BBX 32 64 0 -12
BITMAP
00000000
00000000
00000000
00000000
00000000
00000000
00000000
00000000
00000000
00000000
00000000
00000000
00000000
00000000
00000000
00000000
00000000
00000000
00000000
00000000
00000000
00000000
00000000
00000000
0003C000
0003C000
0003C000
0003C000
0003C000
0003C000
0003C000
0003C000
03FFFFC0
03FFFFC0
03FFFFC0
03FFFFC0
0003C000
0003C000
0003C000
0003C000
0003C000
0003C000
0003C000
0003C000
00000000
00000000
00000000
00000000
00000000
00000000
00000000
00000000
00000000
00000000
00000000
00000000
00000000
00000000
00000000
00000000
00000000
00000000
00000000
00000000
ENDCHAR
STARTCHAR COMMA
ENCODING 44
SWIDTH 500 0
DWIDTH 32 0
BBX 32 64 0 -12
BITMAP
00000000
00000000
00000000
00000000
00000000
00000000
00000000
00000000
00000000
00000000
00000000
00000000
00000000
00000000
00000000
00000000
00000000
00000000
00000000
00000000
00000000
00000000
00000000
00000000
00000000
00000000
00000000
00000000
00000000
00000000
00000000
00000000
00000000
00000000
00000000
00000000
00000000
00000000
00000000
00000000
00000000
00000000
00000000
00000000
0003C000
0003C000
0003C000
0003C000
0003C000
0003C000
0007C000
000F8000
003F8000
003F0000
003E0000
00380000
00000000
00000000
00000000
00000000
00000000
00000000
00000000
00000000
ENDCHAR
STARTCHAR HYPHEN-MINUS
ENCODING 45
SWIDTH 500 0
DWIDTH 32 0
BBX 32 64 0 -12
BITMAP
00000000
00000000
00000000
00000000
00000000
00000000
00000000
00000000
00000000
00000000
00000000
00000000
00000000
00000000
00000000
00000000
00000000
00000000
00000000
00000000
00000000
00000000
00000000
00000000
00000000
00000000
00000000
00000000
00000000
00000000
00000000
00000000
0FFFFFF0
0FFFFFF0
0FFFFFF0
0FFFFFF0
00000000
00000000
00000000
00000000
00000000
00000000
00000000
00000000
00000000
00000000
00000000
00000000
00000000
00000000
00000000
00000000
00000000
00000000
00000000
00000000
00000000
00000000
00000000
00000000
00000000
00000000
00000000
00000000
ENDCHAR
STARTCHAR FULL STOP
ENCODING 46
SWIDTH 500 0
DWIDTH 32 0
BBX 32 64 0 -12
BITMAP
00000000
00000000
00000000
00000000
00000000
00000000
00000000
00000000
00000000
00000000
00000000
00000000
00000000
00000000
00000000
00000000
00000000
00000000
00000000
00000000
00000000
00000000
00000000
00000000
00000000
00000000
00000000
00000000
00000000
00000000
00000000
00000000
00000000
00000000
00000000
00000000
00000000
00000000
00000000
00000000
00000000
00000000
00000000
00000000
00000000
00000000
0003C000
0003C000
0003C000
0003C000
0003C000
0003C000
00000000
00000000
00000000
00000000
00000000
00000000
00000000
00000000
00000000
00000000
00000000
00000000
ENDCHAR
STARTCHAR SOLIDUS
ENCODING 47
SWIDTH 500 0
DWIDTH 32 0
BBX 32 64 0 -12
BITMAP
00000000
00000000
00000000
00000000
00000000
00000000
0000003C
0000003C
0000007C
0000007C
000000F8
000000F8
000001F0
000001F0
000003E0
000003E0
000007C0
000007C0
00000F80
00000F80
00001F00
00001F00
00003E00
00003E00
00007C00
00007C00
0000F800
0000F800
0001F000
0001F000
0003E000
0003E000
0007C000
0007C000
000F8000
000F8000
001F0000
001F0000
003E0000
003E0000
007C0000
007C0000
00F80000
00F80000
01F00000
01F00000
03E00000
03E00000
07C00000
07C00000
0F800000
0F800000
1F000000
1F000000
3E000000
3E000000
3C000000
3C000000
00000000
00000000
00000000
00000000
00000000
00000000
ENDCHAR
STARTCHAR DIGIT ZERO
ENCODING 48
SWIDTH 500 0
DWIDTH 32 0
BBX 32 64 0 -12
BITMAP
00000000
00000000
00000000
00000000
00000000
00000000
00000000
00000000
00000000
00000000
00000000
00000000
007FFE00
01FFFF80
03FFFFC0
07FFFFE0
07C003E0
0F8001F0
0F0000F0
0F0000F0
0F0000F0
0F0001F0
0F0003F0
0F0007F0
0F000FF0
0F001FF0
0F003FF0
0F007EF0
0F00FCF0
0F01F8F0
0F03F0F0
0F07E0F0
0F0FC0F0
0F1F80F0
0F3F00F0
0F7E00F0
0FFC00F0
0FF800F0
0FF000F0
0FE000F0
0FC000F0
0F8000F0
0F0000F0
0F0000F0
0F0000F0
0F0000F0
0F8001F0
07C003E0
07FFFFE0
03FFFFC0
01FFFF80
007FFE00
00000000
00000000
00000000
00000000
00000000
00000000
00000000
00000000
00000000
00000000
00000000
00000000
ENDCHAR
STARTCHAR DIGIT ONE
ENCODING 49
SWIDTH 500 0
DWIDTH 32 0
BBX 32 64 0 -12
BITMAP
00000000
00000000
00000000
00000000
00000000
00000000
00000000
00000000
00000000
00000000
00000000
00000000
000FC000
001FC000
003FC000
007FC000
00FBC000
01F3C000
03E3C000
03C3C000
0383C000
0303C000
0003C000
0003C000
0003C000
0003C000
0003C000
0003C000
0003C000
0003C000
0003C000
0003C000
0003C000
0003C000
0003C000
0003C000
0003C000
0003C000
0003C000
0003C000
0003C000
0003C000
0003C000
0003C000
0003C000
0003C000
0003C000
0003C000
03FFFFC0
03FFFFC0
03FFFFC0
03FFFFC0
00000000
00000000
00000000
00000000
00000000
00000000
00000000
00000000
00000000
00000000
00000000
00000000
ENDCHAR
STARTCHAR DIGIT TWO
ENCODING 50
SWIDTH 500 0
DWIDTH 32 0
BBX 32 64 0 -12
BITMAP
00000000
00000000
00000000
00000000
00000000
00000000
00000000
00000000
00000000
00000000
00000000
00000000
007FFE00
01FFFF80
03FFFFC0
07FFFFE0
07C003E0
0F8001F0
0F0000F0
0F0000F0
000000F0
000000F0
000000F0
000000F0
000000F0
000001E0
000003E0
000007C0
00000F80
00001F00
00003E00
00007C00
0000F800
0001F000
0003E000
0007C000
000F8000
001F0000
003E0000
007C0000
00F80000
01F00000
03E00000
07C00000
0F8000F0
0F0000F0
0F0000F0
0F0000F0
0FFFFFF0
0FFFFFF0
0FFFFFF0
0FFFFFF0
00000000
00000000
00000000
00000000
00000000
00000000
00000000
00000000
00000000
00000000
00000000
00000000
ENDCHAR
STARTCHAR DIGIT THREE
ENCODING 51
SWIDTH 500 0
DWIDTH 32 0
BBX 32 64 0 -12
BITMAP
00000000
00000000
00000000
00000000
00000000
00000000
00000000
00000000
00000000
00000000
00000000
00000000
007FFE00
01FFFF80
03FFFFC0
07FFFFE0
07C003E0
0F8001F0
0F0000F0
0F0000F0
000000F0
000000F0
000000F0
000000F0
000000F0
000000F0
000001E0
000003C0
003FFF80
003FFF00
003FFF00
003FFF80
000003C0
000001E0
000000F0
000000F0
000000F0
000000F0
000000F0
000000F0
000000F0
000000F0
000000F0
000000F0
0F0000F0
0F0000F0
0F8001F0
07C003E0
07FFFFE0
03FFFFC0
01FFFF80
007FFE00
00000000
00000000
00000000
00000000
00000000
00000000
00000000
00000000
00000000
00000000
00000000
00000000
ENDCHAR
STARTCHAR DIGIT FOUR
ENCODING 52
SWIDTH 500 0
DWIDTH 32 0
BBX 32 64 0 -12
BITMAP
00000000
00000000
00000000
00000000
00000000
00000000
00000000
00000000
00000000
00000000
00000000
00000000
0F000000
0F000000
0F000000
0F000000
0F000000
0F000000
0F000000
0F000000
0F000F00
0F000F00
0F000F00
0F000F00
0F000F00
0F000F00
0F000F00
0F000F00
0F000F00
0F000F00
0F000F00
0F000F00
0F000F00
0F000F00
0F000F00
0F000F00
0FFFFFF0
0FFFFFF0
0FFFFFF0
0FFFFFF0
00000F00
00000F00
00000F00
00000F00
00000F00
00000F00
00000F00
00000F00
00000F00
00000F00
00000F00
00000F00
00000000
00000000
00000000
00000000
00000000
00000000
00000000
00000000
00000000
00000000
00000000
00000000
ENDCHAR
STARTCHAR DIGIT FIVE
ENCODING 53
SWIDTH 500 0
DWIDTH 32 0
BBX 32 64 0 -12
BITMAP
00000000
00000000
00000000
00000000
00000000
00000000
00000000
00000000
00000000
00000000
00000000
00000000
0FFFFFF0
0FFFFFF0
0FFFFFF0
0FFFFFF0
0F0000F0
0F0000F0
0F0000F0
0F0000F0
0F000000
0F000000
0F000000
0F000000
0F000000
0F000000
0F000000
0F000000
0FFFFE00
0FFFFF80
0FFFFFC0
0FFFFFE0
000003E0
000001F0
000000F0
000000F0
000000F0
000000F0
000000F0
000000F0
000000F0
000000F0
000000F0
000000F0
0F0000F0
0F0000F0
0F8001F0
07C003E0
07FFFFE0
03FFFFC0
01FFFF80
007FFE00
00000000
00000000
00000000
00000000
00000000
00000000
00000000
00000000
00000000
00000000
00000000
00000000
ENDCHAR
STARTCHAR DIGIT SIX
ENCODING 54
SWIDTH 500 0
DWIDTH 32 0
BBX 32 64 0 -12
BITMAP
00000000
00000000
00000000
00000000
00000000
00000000
00000000
00000000
00000000
00000000
00000000
00000000
007FFE00
01FFFF80
03FFFFC0
07FFFFE0
07C003E0
0F8001F0
0F0000F0
0F0000F0
0F000000
0F000000
0F000000
0F000000
0F000000
0F000000
0F000000
0F000000
0FFFFE00
0FFFFF80
0FFFFFC0
0FFFFFE0
0F0003E0
0F0001F0
0F0000F0
0F0000F0
0F0000F0
0F0000F0
0F0000F0
0F0000F0
0F0000F0
0F0000F0
0F0000F0
0F0000F0
0F0000F0
0F0000F0
0F8001F0
07C003E0
07FFFFE0
03FFFFC0
01FFFF80
007FFE00
00000000
00000000
00000000
00000000
00000000
00000000
00000000
00000000
00000000
00000000
00000000
00000000
ENDCHAR
STARTCHAR DIGIT SEVEN
ENCODING 55
SWIDTH 500 0
DWIDTH 32 0
BBX 32 64 0 -12
BITMAP
00000000
00000000
00000000
00000000
00000000
00000000
00000000
00000000
00000000
00000000
00000000
00000000
0FFFFFF0
0FFFFFF0
0FFFFFF0
0FFFFFF0
0F0000F0
0F0000F0
0F0000F0
0F0000F0
000000F0
000000F0
000000F0
000000F0
000000F0
000001F0
000003E0
000007C0
00000F80
00001F00
00003E00
00007C00
0000F800
0001F000
0003E000
0007C000
000F8000
000F0000
000F0000
000F0000
000F0000
000F0000
000F0000
000F0000
000F0000
000F0000
000F0000
000F0000
000F0000
000F0000
000F0000
000F0000
00000000
00000000
00000000
00000000
00000000
00000000
00000000
00000000
00000000
00000000
00000000
00000000
ENDCHAR
STARTCHAR DIGIT EIGHT
ENCODING 56
SWIDTH 500 0
DWIDTH 32 0
BBX 32 64 0 -12
BITMAP
00000000
00000000
00000000
00000000
00000000
00000000
00000000
00000000
00000000
00000000
00000000
00000000
007FFE00
01FFFF80
03FFFFC0
07FFFFE0
07C003E0
0F8001F0
0F0000F0
0F0000F0
0F0000F0
0F0000F0
0F0000F0
0F0000F0
0F0000F0
0F0000F0
078001E0
03C003C0
01FFFF80
00FFFF00
00FFFF00
01FFFF80
03C003C0
078001E0
0F0000F0
0F0000F0
0F0000F0
0F0000F0
0F0000F0
0F0000F0
0F0000F0
0F0000F0
0F0000F0
0F0000F0
0F0000F0
0F0000F0
0F8001F0
07C003E0
07FFFFE0
03FFFFC0
01FFFF80
007FFE00
00000000
00000000
00000000
00000000
00000000
00000000
00000000
00000000
00000000
00000000
00000000
00000000
ENDCHAR
STARTCHAR DIGIT NINE
ENCODING 57
SWIDTH 500 0
DWIDTH 32 0
BBX 32 64 0 -12
BITMAP
00000000
00000000
00000000
00000000
00000000
00000000
00000000
00000000
00000000
00000000
00000000
00000000
007FFE00
01FFFF80
03FFFFC0
07FFFFE0
07C003E0
0F8001F0
0F0000F0
0F0000F0
0F0000F0
0F0000F0
0F0000F0
0F0000F0
0F0000F0
0F0000F0
0F0000F0
0F0000F0
0F0000F0
0F0000F0
0F8000F0
07C000F0
07FFFFF0
03FFFFF0
01FFFFF0
007FFFF0
000000F0
000000F0
000000F0
000000F0
000000F0
000000F0
000000F0
000000F0
0F0000F0
0F0000F0
0F8001F0
07C003E0
07FFFFE0
03FFFFC0
01FFFF80
007FFE00
00000000
00000000
00000000
00000000
00000000
00000000
00000000
00000000
00000000
00000000
00000000
00000000
ENDCHAR
STARTCHAR COLON
ENCODING 58
SWIDTH 500 0
DWIDTH 32 0
BBX 32 64 0 -12
BITMAP
00000000
00000000
00000000
00000000
00000000
00000000
00000000
00000000
00000000
00000000
00000000
00000000
00000000
00000000
00000000
00000000
00000000
00000000
00000000
00000000
00000000
00000000
00000000
00000000
00000000
00000000
0003C000
0003C000
0003C000
0003C000
0003C000
0003C000
00000000
00000000
00000000
00000000
00000000
00000000
00000000
00000000
00000000
00000000
00000000
00000000
00000000
00000000
0003C000
0003C000
0003C000
0003C000
0003C000
0003C000
00000000
00000000
00000000
00000000
00000000
00000000
00000000
00000000
00000000
00000000
00000000
00000000
ENDCHAR
STARTCHAR SEMICOLON
ENCODING 59
SWIDTH 500 0
DWIDTH 32 0
BBX 32 64 0 -12
BITMAP
00000000
00000000
00000000
00000000
00000000
00000000
00000000
00000000
00000000
00000000
00000000
00000000
00000000
00000000
00000000
00000000
00000000
00000000
00000000
00000000
00000000
00000000
00000000
00000000
00000000
00000000
0003C000
0003C000
0003C000
0003C000
0003C000
0003C000
00000000
00000000
00000000
00000000
00000000
00000000
00000000
00000000
00000000
00000000
00000000
00000000
0003C000
0003C000
0003C000
0003C000
0003C000
0003C000
0007C000
000F8000
003F8000
003F0000
003E0000
00380000
00000000
00000000
00000000
00000000
00000000
00000000
00000000
00000000
ENDCHAR
STARTCHAR LESS-THAN SIGN
ENCODING 60
SWIDTH 500 0
DWIDTH 32 0
BBX 32 64 0 -12
BITMAP
00000000
00000000
00000000
00000000
00000000
00000000
00000000
00000000
00000000
00000000
00000000
00000000
000003F0
000007E0
00000FC0
00001F80
00003F00
00007E00
0000FC00
0001F800
0003F000
0007E000
000FC000
001F8000
003F0000
007E0000
00FC0000
01F80000
03F00000
07E00000
0FC00000
0FC00000
0FC00000
0FC00000
07E00000
03F00000
01F80000
00FC0000
007E0000
003F0000
001F8000
000FC000
0007E000
0003F000
0001F800
0000FC00
00007E00
00003F00
00001F80
00000FC0
000007E0
000003F0
00000000
00000000
00000000
00000000
00000000
00000000
00000000
00000000
00000000
00000000
00000000
00000000
ENDCHAR
STARTCHAR EQUALS SIGN
ENCODING 61
SWIDTH 500 0
DWIDTH 32 0
BBX 32 64 0 -12
BITMAP
00000000
00000000
00000000
00000000
00000000
00000000
00000000
00000000
00000000
00000000
00000000
00000000
00000000
00000000
00000000
00000000
00000000
00000000
00000000
00000000
00000000
00000000
00000000
00000000
0FFFFFF0
0FFFFFF0
0FFFFFF0
0FFFFFF0
00000000
00000000
00000000
00000000
00000000
00000000
00000000
00000000
0FFFFFF0
0FFFFFF0
0FFFFFF0
0FFFFFF0
00000000
00000000
00000000
00000000
00000000
00000000
00000000
00000000
00000000
00000000
00000000
00000000
00000000
00000000
00000000
00000000
00000000
00000000
00000000
00000000
00000000
00000000
00000000
00000000
ENDCHAR
STARTCHAR GREATER-THAN SIGN
ENCODING 62
SWIDTH 500 0
DWIDTH 32 0
BBX 32 64 0 -12
BITMAP
00000000
00000000
00000000
00000000
00000000
00000000
00000000
00000000
00000000
00000000
00000000
00000000
0FC00000
07E00000
03F00000
01F80000
00FC0000
007E0000
003F0000
001F8000
000FC000
0007E000
0003F000
0001F800
0000FC00
00007E00
00003F00
00001F80
00000FC0
000007E0
000003F0
000003F0
000003F0
000003F0
000007E0
00000FC0
00001F80
00003F00
00007E00
0000FC00
0001F800
0003F000
0007E000
000FC000
001F8000
003F0000
007E0000
00FC0000
01F80000
03F00000
07E00000
0FC00000
00000000
00000000
00000000
00000000
00000000
00000000
00000000
00000000
00000000
00000000
00000000
00000000
ENDCHAR
STARTCHAR QUESTION MARK
ENCODING 63
SWIDTH 500 0
DWIDTH 32 0
BBX 32 64 0 -12
BITMAP
00000000
00000000
00000000
00000000
00000000
00000000
00000000
00000000
00000000
00000000
00000000
00000000
007FFE00
01FFFF80
03FFFFC0
07FFFFE0
07C003E0
0F8001F0
0F0000F0
0F0000F0
000000F0
000000F0
000000F0
000000F0
000001E0
000003C0
00000780
00000F00
00001E00
00003C00
00007800
00007800
0000F000
0000F000
0001E000
0001E000
0003C000
0003C000
0003C000
0003C000
00000000
00000000
00000000
00000000
00000000
00000000
0003C000
0003C000
0003C000
0003C000
0003C000
0003C000
00000000
00000000
00000000
00000000
00000000
00000000
00000000
00000000
00000000
00000000
00000000
00000000
ENDCHAR
STARTCHAR COMMERCIAL AT
ENCODING 64
SWIDTH 500 0
DWIDTH 32 0
BBX 32 64 0 -12
BITMAP
00000000
00000000
00000000
00000000
00000000
00000000
00000000
00000000
00000000
00000000
00000000
00000000
00000000
00000000
00000000
00000000
007FFE00
01FFFF80
03FFFFC0
07FFFFE0
07C003E0
0F8001F0
0F0000F0
0F0000F0
0F0000F0
0F0000F0
0F03F0F0
0F03F0F0
0F03F0F0
0F03F0F0
0F03F0F0
0F03F0F0
0F03F0F0
0F03F0F0
0F03F0F0
0F03F0F0
0F03F0F0
0F03F0F0
0F03FFF0
0F03FFF0
0F03FFF0
0F03FFF0
0F000000
0F000000
0F000000
0F000000
0F800000
07C00000
07FFFFC0
03FFFFC0
01FFFFC0
007FFFC0
00000000
00000000
00000000
00000000
00000000
00000000
00000000
00000000
00000000
00000000
00000000
00000000
ENDCHAR
STARTCHAR LATIN CAPITAL LETTER A
ENCODING 65
SWIDTH 500 0
DWIDTH 32 0
BBX 32 64 0 -12
BITMAP
00000000
00000000
00000000
00000000
00000000
00000000
00000000
00000000
00000000
00000000
00000000
00000000
007FFE00
01FFFF80
03FFFFC0
07FFFFE0
07C003E0
0F8001F0
0F0000F0
0F0000F0
0F0000F0
0F0000F0
0F0000F0
0F0000F0
0F0000F0
0F0000F0
0F0000F0
0F0000F0
0F0000F0
0F0000F0
0FFFFFF0
0FFFFFF0
0FFFFFF0
0FFFFFF0
0F0000F0
0F0000F0
0F0000F0
0F0000F0
0F0000F0
0F0000F0
0F0000F0
0F0000F0
0F0000F0
0F0000F0
0F0000F0
0F0000F0
0F0000F0
0F0000F0
0F0000F0
0F0000F0
0F0000F0
0F0000F0
00000000
00000000
00000000
00000000
00000000
00000000
00000000
00000000
00000000
00000000
00000000
00000000
ENDCHAR
STARTCHAR LATIN CAPITAL LETTER B
ENCODING 66
SWIDTH 500 0
DWIDTH 32 0
BBX 32 64 0 -12
BITMAP
00000000
00000000
00000000
00000000
00000000
00000000
00000000
00000000
00000000
00000000
00000000
00000000
0FFFFE00
0FFFFF80
0FFFFFC0
0FFFFFE0
0F0003E0
0F0001F0
0F0000F0
0F0000F0
0F0000F0
0F0000F0
0F0000F0
0F0000F0
0F0000F0
0F0000F0
0F0001E0
0F0003C0
0FFFFF80
0FFFFF00
0FFFFF00
0FFFFF80
0F0003C0
0F0001E0
0F0000F0
0F0000F0
0F0000F0
0F0000F0
0F0000F0
0F0000F0
0F0000F0
0F0000F0
0F0000F0
0F0000F0
0F0000F0
0F0000F0
0F0001F0
0F0003E0
0FFFFFE0
0FFFFFC0
0FFFFF80
0FFFFE00
00000000
00000000
00000000
00000000
00000000
00000000
00000000
00000000
00000000
00000000
00000000
00000000
ENDCHAR
STARTCHAR LATIN CAPITAL LETTER C
ENCODING 67
SWIDTH 500 0
DWIDTH 32 0
BBX 32 64 0 -12
BITMAP
00000000
00000000
00000000
00000000
00000000
00000000
00000000
00000000
00000000
00000000
00000000
00000000
007FFFF0
01FFFFF0
03FFFFF0
07FFFFF0
07C00000
0F800000
0F000000
0F000000
0F000000
0F000000
0F000000
0F000000
0F000000
0F000000
0F000000
0F000000
0F000000
0F000000
0F000000
0F000000
0F000000
0F000000
0F000000
0F000000
0F000000
0F000000
0F000000
0F000000
0F000000
0F000000
0F000000
0F000000
0F000000
0F000000
0F800000
07C00000
07FFFFF0
03FFFFF0
01FFFFF0
007FFFF0
00000000
00000000
00000000
00000000
00000000
00000000
00000000
00000000
00000000
00000000
00000000
00000000
ENDCHAR
STARTCHAR LATIN CAPITAL LETTER D
ENCODING 68
SWIDTH 500 0
DWIDTH 32 0
BBX 32 64 0 -12
BITMAP
00000000
00000000
00000000
00000000
00000000
00000000
00000000
00000000
00000000
00000000
00000000
00000000
0FFFFE00
0FFFFF80
0FFFFFC0
0FFFFFE0
0F0003E0
0F0001F0
0F0000F0
0F0000F0
0F0000F0
0F0000F0
0F0000F0
0F0000F0
0F0000F0
0F0000F0
0F0000F0
0F0000F0
0F0000F0
0F0000F0
0F0000F0
0F0000F0
0F0000F0
0F0000F0
0F0000F0
0F0000F0
0F0000F0
0F0000F0
0F0000F0
0F0000F0
0F0000F0
0F0000F0
0F0000F0
0F0000F0
0F0000F0
0F0000F0
0F0001F0
0F0003E0
0FFFFFE0
0FFFFFC0
0FFFFF80
0FFFFE00
00000000
00000000
00000000
00000000
00000000
00000000
00000000
00000000
00000000
00000000
00000000
00000000
ENDCHAR
STARTCHAR LATIN CAPITAL LETTER E
ENCODING 69
SWIDTH 500 0
DWIDTH 32 0
BBX 32 64 0 -12
BITMAP
00000000
00000000
00000000
00000000
00000000
00000000
00000000
00000000
00000000
00000000
00000000
00000000
007FFFF0
01FFFFF0
03FFFFF0
07FFFFF0
07C00000
0F800000
0F000000
0F000000
0F000000
0F000000
0F000000
0F000000
0F000000
0F000000
0F000000
0F000000
0F000000
0F000000
0FFFFC00
0FFFFC00
0FFFFC00
0FFFFC00
0F000000
0F000000
0F000000
0F000000
0F000000
0F000000
0F000000
0F000000
0F000000
0F000000
0F000000
0F000000
0F800000
07C00000
07FFFFF0
03FFFFF0
01FFFFF0
007FFFF0
00000000
00000000
00000000
00000000
00000000
00000000
00000000
00000000
00000000
00000000
00000000
00000000
ENDCHAR
STARTCHAR LATIN CAPITAL LETTER F
ENCODING 70
SWIDTH 500 0
DWIDTH 32 0
BBX 32 64 0 -12
BITMAP
00000000
00000000
00000000
00000000
00000000
00000000
00000000
00000000
00000000
00000000
00000000
00000000
007FFFF0
01FFFFF0
03FFFFF0
07FFFFF0
07C00000
0F800000
0F000000
0F000000
0F000000
0F000000
0F000000
0F000000
0F000000
0F000000
0F000000
0F000000
0F000000
0F000000
0FFFFC00
0FFFFC00
0FFFFC00
0FFFFC00
0F000000
0F000000
0F000000
0F000000
0F000000
0F000000
0F000000
0F000000
0F000000
0F000000
0F000000
0F000000
0F000000
0F000000
0F000000
0F000000
0F000000
0F000000
00000000
00000000
00000000
00000000
00000000
00000000
00000000
00000000
00000000
00000000
00000000
00000000
ENDCHAR
STARTCHAR LATIN CAPITAL LETTER G
ENCODING 71
SWIDTH 500 0
DWIDTH 32 0
BBX 32 64 0 -12
BITMAP
00000000
00000000
00000000
00000000
00000000
00000000
00000000
00000000
00000000
00000000
00000000
00000000
007FFFF0
01FFFFF0
03FFFFF0
07FFFFF0
07C00000
0F800000
0F000000
0F000000
0F000000
0F000000
0F000000
0F000000
0F000000
0F000000
0F000000
0F000000
0F000000
0F000000
0F00FFF0
0F00FFF0
0F00FFF0
0F00FFF0
0F0000F0
0F0000F0
0F0000F0
0F0000F0
0F0000F0
0F0000F0
0F0000F0
0F0000F0
0F0000F0
0F0000F0
0F0000F0
0F0000F0
0F8000F0
07C000F0
07FFFFF0
03FFFFF0
01FFFFF0
007FFFF0
00000000
00000000
00000000
00000000
00000000
00000000
00000000
00000000
00000000
00000000
00000000
00000000
ENDCHAR
STARTCHAR LATIN CAPITAL LETTER H
ENCODING 72
SWIDTH 500 0
DWIDTH 32 0
BBX 32 64 0 -12
BITMAP
00000000
00000000
00000000
00000000
00000000
00000000
00000000
00000000
00000000
00000000
00000000
00000000
0F0000F0
0F0000F0
0F0000F0
0F0000F0
0F0000F0
0F0000F0
0F0000F0
0F0000F0
0F0000F0
0F0000F0
0F0000F0
0F0000F0
0F0000F0
0F0000F0
0F0000F0
0F0000F0
0F0000F0
0F0000F0
0FFFFFF0
0FFFFFF0
0FFFFFF0
0FFFFFF0
0F0000F0
0F0000F0
0F0000F0
0F0000F0
0F0000F0
0F0000F0
0F0000F0
0F0000F0
0F0000F0
0F0000F0
0F0000F0
0F0000F0
0F0000F0
0F0000F0
0F0000F0
0F0000F0
0F0000F0
0F0000F0
00000000
00000000
00000000
00000000
00000000
00000000
00000000
00000000
00000000
00000000
00000000
00000000
ENDCHAR
STARTCHAR LATIN CAPITAL LETTER I
ENCODING 73
SWIDTH 500 0
DWIDTH 32 0
BBX 32 64 0 -12
BITMAP
00000000
00000000
00000000
00000000
00000000
00000000
00000000
00000000
00000000
00000000
00000000
00000000
03FFFFC0
03FFFFC0
03FFFFC0
03FFFFC0
0003C000
0003C000
0003C000
0003C000
0003C000
0003C000
0003C000
0003C000
0003C000
0003C000
0003C000
0003C000
0003C000
0003C000
0003C000
0003C000
0003C000
0003C000
0003C000
0003C000
0003C000
0003C000
0003C000
0003C000
0003C000
0003C000
0003C000
0003C000
0003C000
0003C000
0003C000
0003C000
03FFFFC0
03FFFFC0
03FFFFC0
03FFFFC0
00000000
00000000
00000000
00000000
00000000
00000000
00000000
00000000
00000000
00000000
00000000
00000000
ENDCHAR
STARTCHAR LATIN CAPITAL LETTER J
ENCODING 74
SWIDTH 500 0
DWIDTH 32 0
BBX 32 64 0 -12
BITMAP
00000000
00000000
00000000
00000000
00000000
00000000
00000000
00000000
00000000
00000000
00000000
00000000
03FFFFC0
03FFFFC0
03FFFFC0
03FFFFC0
0003C000
0003C000
0003C000
0003C000
0003C000
0003C000
0003C000
0003C000
0003C000
0003C000
0003C000
0003C000
0003C000
0003C000
0003C000
0003C000
0003C000
0003C000
0003C000
0003C000
0003C000
0003C000
0003C000
0003C000
0003C000
0003C000
0003C000
0003C000
0003C000
0003C000
0007C000
000F8000
3FFF8000
3FFF0000
3FFE0000
3FF80000
00000000
00000000
00000000
00000000
00000000
00000000
00000000
00000000
00000000
00000000
00000000
00000000
ENDCHAR
STARTCHAR LATIN CAPITAL LETTER K
ENCODING 75
SWIDTH 500 0
DWIDTH 32 0
BBX 32 64 0 -12
BITMAP
00000000
00000000
00000000
00000000
00000000
00000000
00000000
00000000
00000000
00000000
00000000
00000000
0F0000F0
0F0000F0
0F0000F0
0F0000F0
0F0000F0
0F0000F0
0F0000F0
0F0000F0
0F0000F0
0F0000F0
0F0000F0
0F0000F0
0F0000F0
0F0001F0
0F0003E0
0F0007C0
0F000F80
0F001F00
0FFFFE00
0FFFFC00
0FFFFC00
0FFFFE00
0F001F00
0F000F80
0F0007C0
0F0003E0
0F0001F0
0F0000F0
0F0000F0
0F0000F0
0F0000F0
0F0000F0
0F0000F0
0F0000F0
0F0000F0
0F0000F0
0F0000F0
0F0000F0
0F0000F0
0F0000F0
00000000
00000000
00000000
00000000
00000000
00000000
00000000
00000000
00000000
00000000
00000000
00000000
ENDCHAR
STARTCHAR LATIN CAPITAL LETTER L
ENCODING 76
SWIDTH 500 0
DWIDTH 32 0
BBX 32 64 0 -12
BITMAP
00000000
00000000
00000000
00000000
00000000
00000000
00000000
00000000
00000000
00000000
00000000
00000000
0F000000
0F000000
0F000000
0F000000
0F000000
0F000000
0F000000
0F000000
0F000000
0F000000
0F000000
0F000000
0F000000
0F000000
0F000000
0F000000
0F000000
0F000000
0F000000
0F000000
0F000000
0F000000
0F000000
0F000000
0F000000
0F000000
0F000000
0F000000
0F000000
0F000000
0F000000
0F000000
0F000000
0F000000
0F800000
07C00000
07FFFFF0
03FFFFF0
01FFFFF0
007FFFF0
00000000
00000000
00000000
00000000
00000000
00000000
00000000
00000000
00000000
00000000
00000000
00000000
ENDCHAR
STARTCHAR LATIN CAPITAL LETTER M
ENCODING 77
SWIDTH 500 0
DWIDTH 32 0
BBX 32 64 0 -12
BITMAP
00000000
00000000
00000000
00000000
00000000
00000000
00000000
00000000
00000000
00000000
00000000
00000000
0F0000F0
0F8001F0
0FC003F0
0FE007F0
0FF00FF0
0FF81FF0
0FFC3FF0
0F7E7EF0
0F3FFCF0
0F1FF8F0
0F0FF0F0
0F07E0F0
0F03C0F0
0F0180F0
0F0000F0
0F0000F0
0F0000F0
0F0000F0
0F0000F0
0F0000F0
0F0000F0
0F0000F0
0F0000F0
0F0000F0
0F0000F0
0F0000F0
0F0000F0
0F0000F0
0F0000F0
0F0000F0
0F0000F0
0F0000F0
0F0000F0
0F0000F0
0F0000F0
0F0000F0
0F0000F0
0F0000F0
0F0000F0
0F0000F0
00000000
00000000
00000000
00000000
00000000
00000000
00000000
00000000
00000000
00000000
00000000
00000000
ENDCHAR
STARTCHAR LATIN CAPITAL LETTER N
ENCODING 78
SWIDTH 500 0
DWIDTH 32 0
BBX 32 64 0 -12
BITMAP
00000000
00000000
00000000
00000000
00000000
00000000
00000000
00000000
00000000
00000000
00000000
00000000
0F0000F0
0F0000F0
0F8000F0
0F8000F0
0FC000F0
0FC000F0
0FE000F0
0FE000F0
0FF000F0
0FF000F0
0FF800F0
0FF800F0
0F7C00F0
0F7C00F0
0F3E00F0
0F3E00F0
0F1F00F0
0F1F00F0
0F0F80F0
0F0F80F0
0F07C0F0
0F07C0F0
0F03E0F0
0F03E0F0
0F01F0F0
0F01F0F0
0F00F8F0
0F00F8F0
0F007CF0
0F007CF0
0F003EF0
0F003EF0
0F001FF0
0F001FF0
0F000FF0
0F000FF0
0F0007F0
0F0007F0
0F0003F0
0F0003F0
00000000
00000000
00000000
00000000
00000000
00000000
00000000
00000000
00000000
00000000
00000000
00000000
ENDCHAR
STARTCHAR LATIN CAPITAL LETTER O
ENCODING 79
SWIDTH 500 0
DWIDTH 32 0
BBX 32 64 0 -12
BITMAP
00000000
00000000
00000000
00000000
00000000
00000000
00000000
00000000
00000000
00000000
00000000
00000000
007FFE00
01FFFF80
03FFFFC0
07FFFFE0
07C003E0
0F8001F0
0F0000F0
0F0000F0
0F0000F0
0F0000F0
0F0000F0
0F0000F0
0F0000F0
0F0000F0
0F0000F0
0F0000F0
0F0000F0
0F0000F0
0F0000F0
0F0000F0
0F0000F0
0F0000F0
0F0000F0
0F0000F0
0F0000F0
0F0000F0
0F0000F0
0F0000F0
0F0000F0
0F0000F0
0F0000F0
0F0000F0
0F0000F0
0F0000F0
0F8001F0
07C003E0
07FFFFE0
03FFFFC0
01FFFF80
007FFE00
00000000
00000000
00000000
00000000
00000000
00000000
00000000
00000000
00000000
00000000
00000000
00000000
ENDCHAR
STARTCHAR LATIN CAPITAL LETTER P
ENCODING 80
SWIDTH 500 0
DWIDTH 32 0
BBX 32 64 0 -12
BITMAP
00000000
00000000
00000000
00000000
00000000
00000000
00000000
00000000
00000000
00000000
00000000
00000000
0FFFFE00
0FFFFF80
0FFFFFC0
0FFFFFE0
0F0003E0
0F0001F0
0F0000F0
0F0000F0
0F0000F0
0F0000F0
0F0000F0
0F0000F0
0F0000F0
0F0000F0
0F0000F0
0F0000F0
0F0001F0
0F0003E0
0FFFFFE0
0FFFFFC0
0FFFFF80
0FFFFE00
0F000000
0F000000
0F000000
0F000000
0F000000
0F000000
0F000000
0F000000
0F000000
0F000000
0F000000
0F000000
0F000000
0F000000
0F000000
0F000000
0F000000
0F000000
00000000
00000000
00000000
00000000
00000000
00000000
00000000
00000000
00000000
00000000
00000000
00000000
ENDCHAR
STARTCHAR LATIN CAPITAL LETTER Q
ENCODING 81
SWIDTH 500 0
DWIDTH 32 0
BBX 32 64 0 -12
BITMAP
00000000
00000000
00000000
00000000
00000000
00000000
00000000
00000000
00000000
00000000
00000000
00000000
007FFE00
01FFFF80
03FFFFC0
07FFFFE0
07C003E0
0F8001F0
0F0000F0
0F0000F0
0F0000F0
0F0000F0
0F0000F0
0F0000F0
0F0000F0
0F0000F0
0F0000F0
0F0000F0
0F0000F0
0F0000F0
0F0000F0
0F0000F0
0F0000F0
0F0000F0
0F0000F0
0F0000F0
0F0000F0
0F0000F0
0F0000F0
0F0000F0
0F03C0F0
0F03C0F0
0F03E0F0
0F03E0F0
0F01F0F0
0F01F0F0
0F80F9F0
07C0FBE0
07FFFFE0
03FFFFC0
01FFFF80
007FFE00
00001F00
00001F00
00000F80
00000F80
000007C0
000007C0
000003C0
000003C0
00000000
00000000
00000000
00000000
ENDCHAR
STARTCHAR LATIN CAPITAL LETTER R
ENCODING 82
SWIDTH 500 0
DWIDTH 32 0
BBX 32 64 0 -12
BITMAP
00000000
00000000
00000000
00000000
00000000
00000000
00000000
00000000
00000000
00000000
00000000
00000000
0FFFFE00
0FFFFF80
0FFFFFC0
0FFFFFE0
0F0003E0
0F0001F0
0F0000F0
0F0000F0
0F0000F0
0F0000F0
0F0000F0
0F0000F0
0F0000F0
0F0000F0
0F0000F0
0F0001F0
0F0003E0
0F0007C0
0FFFFF80
0FFFFF00
0FFFFF00
0FFFFF80
0F0007C0
0F0003E0
0F0001F0
0F0000F0
0F0000F0
0F0000F0
0F0000F0
0F0000F0
0F0000F0
0F0000F0
0F0000F0
0F0000F0
0F0000F0
0F0000F0
0F0000F0
0F0000F0
0F0000F0
0F0000F0
00000000
00000000
00000000
00000000
00000000
00000000
00000000
00000000
00000000
00000000
00000000
00000000
ENDCHAR
STARTCHAR LATIN CAPITAL LETTER S
ENCODING 83
SWIDTH 500 0
DWIDTH 32 0
BBX 32 64 0 -12
BITMAP
00000000
00000000
00000000
00000000
00000000
00000000
00000000
00000000
00000000
00000000
00000000
00000000
007FFFF0
01FFFFF0
03FFFFF0
07FFFFF0
07C00000
0F800000
0F000000
0F000000
0F000000
0F000000
0F000000
0F000000
0F000000
0F000000
0F000000
0F000000
0F800000
07C00000
07FFFE00
03FFFF80
01FFFFC0
007FFFE0
000003E0
000001F0
000000F0
000000F0
000000F0
000000F0
000000F0
000000F0
000000F0
000000F0
000000F0
000000F0
000001F0
000003E0
0FFFFFE0
0FFFFFC0
0FFFFF80
0FFFFE00
00000000
00000000
00000000
00000000
00000000
00000000
00000000
00000000
00000000
00000000
00000000
00000000
ENDCHAR
STARTCHAR LATIN CAPITAL LETTER T
ENCODING 84
SWIDTH 500 0
DWIDTH 32 0
BBX 32 64 0 -12
BITMAP
00000000
00000000
00000000
00000000
00000000
00000000
00000000
00000000
00000000
00000000
00000000
00000000
3FFFFFFC
3FFFFFFC
3FFFFFFC
3FFFFFFC
0003C000
0003C000
0003C000
0003C000
0003C000
0003C000
0003C000
0003C000
0003C000
0003C000
0003C000
0003C000
0003C000
0003C000
0003C000
0003C000
0003C000
0003C000
0003C000
0003C000
0003C000
0003C000
0003C000
0003C000
0003C000
0003C000
0003C000
0003C000
0003C000
0003C000
0003C000
0003C000
0003C000
0003C000
0003C000
0003C000
00000000
00000000
00000000
00000000
00000000
00000000
00000000
00000000
00000000
00000000
00000000
00000000
ENDCHAR
STARTCHAR LATIN CAPITAL LETTER U
ENCODING 85
SWIDTH 500 0
DWIDTH 32 0
BBX 32 64 0 -12
BITMAP
00000000
00000000
00000000
00000000
00000000
00000000
00000000
00000000
00000000
00000000
00000000
00000000
0F0000F0
0F0000F0
0F0000F0
0F0000F0
0F0000F0
0F0000F0
0F0000F0
0F0000F0
0F0000F0
0F0000F0
0F0000F0
0F0000F0
0F0000F0
0F0000F0
0F0000F0
0F0000F0
0F0000F0
0F0000F0
0F0000F0
0F0000F0
0F0000F0
0F0000F0
0F0000F0
0F0000F0
0F0000F0
0F0000F0
0F0000F0
0F0000F0
0F0000F0
0F0000F0
0F0000F0
0F0000F0
0F0000F0
0F0000F0
0F8000F0
07C000F0
07FFFFF0
03FFFFF0
01FFFFF0
007FFFF0
00000000
00000000
00000000
00000000
00000000
00000000
00000000
00000000
00000000
00000000
00000000
00000000
ENDCHAR
STARTCHAR LATIN CAPITAL LETTER V
ENCODING 86
SWIDTH 500 0
DWIDTH 32 0
BBX 32 64 0 -12
BITMAP
00000000
00000000
00000000
00000000
00000000
00000000
00000000
00000000
00000000
00000000
00000000
00000000
0F0000F0
0F0000F0
0F0000F0
0F0000F0
0F0000F0
0F0000F0
0F0000F0
0F0000F0
0F0000F0
0F0000F0
0F0000F0
0F0000F0
0F0000F0
0F0000F0
0F0000F0
0F0000F0
0F0000F0
0F0000F0
0F0000F0
0F0000F0
0F0000F0
0F0000F0
0F0000F0
0F0000F0
0F0000F0
0F0000F0
0F0000F0
0F0000F0
0F8001F0
0FC003F0
07E007E0
03F00FC0
01F81F80
00FC3F00
007E7E00
003FFC00
001FF800
000FF000
0007E000
0003C000
00000000
00000000
00000000
00000000
00000000
00000000
00000000
00000000
00000000
00000000
00000000
00000000
ENDCHAR
STARTCHAR LATIN CAPITAL LETTER W
ENCODING 87
SWIDTH 500 0
DWIDTH 32 0
BBX 32 64 0 -12
BITMAP
00000000
00000000
00000000
00000000
00000000
00000000
00000000
00000000
00000000
00000000
00000000
00000000
0F0000F0
0F0000F0
0F0000F0
0F0000F0
0F0000F0
0F0000F0
0F0000F0
0F0000F0
0F0000F0
0F0000F0
0F0000F0
0F0000F0
0F0000F0
0F0000F0
0F0000F0
0F0000F0
0F0000F0
0F0000F0
0F0000F0
0F0000F0
0F0000F0
0F0000F0
0F0000F0
0F0000F0
0F0000F0
0F0000F0
0F0180F0
0F03C0F0
0F07E0F0
0F0FF0F0
0F1FF8F0
0F3FFCF0
0F7E7EF0
0FFC3FF0
0FF81FF0
0FF00FF0
0FE007F0
0FC003F0
0F8001F0
0F0000F0
00000000
00000000
00000000
00000000
00000000
00000000
00000000
00000000
00000000
00000000
00000000
00000000
ENDCHAR
STARTCHAR LATIN CAPITAL LETTER X
ENCODING 88
SWIDTH 500 0
DWIDTH 32 0
BBX 32 64 0 -12
BITMAP
00000000
00000000
00000000
00000000
00000000
00000000
00000000
00000000
00000000
00000000
00000000
00000000
0F0000F0
0F0000F0
0F0000F0
0F0000F0
0F0000F0
0F0000F0
0F0000F0
0F0000F0
0F0000F0
0F0000F0
0F0000F0
0F0000F0
0F0000F0
0F8001F0
0FC003F0
07E007E0
03F00FC0
01F81F80
00FFFF00
007FFE00
007FFE00
00FFFF00
01F81F80
03F00FC0
07E007E0
0FC003F0
0F8001F0
0F0000F0
0F0000F0
0F0000F0
0F0000F0
0F0000F0
0F0000F0
0F0000F0
0F0000F0
0F0000F0
0F0000F0
0F0000F0
0F0000F0
0F0000F0
00000000
00000000
00000000
00000000
00000000
00000000
00000000
00000000
00000000
00000000
00000000
00000000
ENDCHAR
STARTCHAR LATIN CAPITAL LETTER Y
ENCODING 89
SWIDTH 500 0
DWIDTH 32 0
BBX 32 64 0 -12
BITMAP
00000000
00000000
00000000
00000000
00000000
00000000
00000000
00000000
00000000
00000000
00000000
00000000
0F0000F0
0F0000F0
0F0000F0
0F0000F0
0F0000F0
0F0000F0
0F0000F0
0F0000F0
0F0000F0
0F0000F0
0F0000F0
0F0000F0
0F0000F0
0F0000F0
0F0000F0
0F0000F0
0F8000F0
07C000F0
07FFFFF0
03FFFFF0
01FFFFF0
007FFFF0
000000F0
000000F0
000000F0
000000F0
000000F0
000000F0
000000F0
000000F0
000000F0
000000F0
000000F0
000000F0
000001F0
000003E0
0FFFFFE0
0FFFFFC0
0FFFFF80
0FFFFE00
00000000
00000000
00000000
00000000
00000000
00000000
00000000
00000000
00000000
00000000
00000000
00000000
ENDCHAR
STARTCHAR LATIN CAPITAL LETTER Z
ENCODING 90
SWIDTH 500 0
DWIDTH 32 0
BBX 32 64 0 -12
BITMAP
00000000
00000000
00000000
00000000
00000000
00000000
00000000
00000000
00000000
00000000
00000000
00000000
0FFFFFF0
0FFFFFF0
0FFFFFF0
0FFFFFF0
000000F0
000000F0
000000F0
000000F0
000000F0
000000F0
000000F0
000001F0
000003E0
000007C0
00000F80
00001F00
00003E00
00007C00
0000F800
0001F000
0003E000
0007C000
000F8000
001F0000
003E0000
007C0000
00F80000
01F00000
03E00000
07C00000
0F800000
0F000000
0F000000
0F000000
0F000000
0F000000
0FFFFFF0
0FFFFFF0
0FFFFFF0
0FFFFFF0
00000000
00000000
00000000
00000000
00000000
00000000
00000000
00000000
00000000
00000000
00000000
00000000
ENDCHAR
STARTCHAR LEFT SQUARE BRACKET
ENCODING 91
SWIDTH 500 0
DWIDTH 32 0
BBX 32 64 0 -12
BITMAP
00000000
00000000
00000000
00000000
00FFFFF0
00FFFFF0
00FFFFF0
00FFFFF0
00F00000
00F00000
00F00000
00F00000
00F00000
00F00000
00F00000
00F00000
00F00000
00F00000
00F00000
00F00000
00F00000
00F00000
00F00000
00F00000
00F00000
00F00000
00F00000
00F00000
00F00000
00F00000
00F00000
00F00000
00F00000
00F00000
00F00000
00F00000
00F00000
00F00000
00F00000
00F00000
00F00000
00F00000
00F00000
00F00000
00F00000
00F00000
00F00000
00F00000
00F00000
00F00000
00F00000
00F00000
00F00000
00F00000
00F00000
00F00000
00FFFFF0
00FFFFF0
00FFFFF0
00FFFFF0
00000000
00000000
00000000
00000000
ENDCHAR
STARTCHAR REVERSE SOLIDUS
ENCODING 92
SWIDTH 500 0
DWIDTH 32 0
BBX 32 64 0 -12
BITMAP
00000000
00000000
00000000
00000000
00000000
00000000
3C000000
3C000000
3E000000
3E000000
1F000000
1F000000
0F800000
0F800000
07C00000
07C00000
03E00000
03E00000
01F00000
01F00000
00F80000
00F80000
007C0000
007C0000
003E0000
003E0000
001F0000
001F0000
000F8000
000F8000
0007C000
0007C000
0003E000
0003E000
0001F000
0001F000
0000F800
0000F800
00007C00
00007C00
00003E00
00003E00
00001F00
00001F00
00000F80
00000F80
000007C0
000007C0
000003E0
000003E0
000001F0
000001F0
000000F8
000000F8
0000007C
0000007C
0000003C
0000003C
00000000
00000000
00000000
00000000
00000000
00000000
ENDCHAR
STARTCHAR RIGHT SQUARE BRACKET
ENCODING 93
SWIDTH 500 0
DWIDTH 32 0
BBX 32 64 0 -12
BITMAP
00000000
00000000
00000000
00000000
0FFFFF00
0FFFFF00
0FFFFF00
0FFFFF00
00000F00
00000F00
00000F00
00000F00
00000F00
00000F00
00000F00
00000F00
00000F00
00000F00
00000F00
00000F00
00000F00
00000F00
00000F00
00000F00
00000F00
00000F00
00000F00
00000F00
00000F00
00000F00
00000F00
00000F00
00000F00
00000F00
00000F00
00000F00
00000F00
00000F00
00000F00
00000F00
00000F00
00000F00
00000F00
00000F00
00000F00
00000F00
00000F00
00000F00
00000F00
00000F00
00000F00
00000F00
00000F00
00000F00
00000F00
00000F00
0FFFFF00
0FFFFF00
0FFFFF00
0FFFFF00
00000000
00000000
00000000
00000000
ENDCHAR
STARTCHAR CIRCUMFLEX ACCENT
ENCODING 94
SWIDTH 500 0
DWIDTH 32 0
BBX 32 64 0 -12
BITMAP
00000000
00000000
00000000
00000000
00000000
00000000
00000000
00000000
0003C000
0007E000
000FF000
001FF800
003FFC00
007FFE00
00FC3F00
01F81F80
03F00FC0
07E007E0
0FC003F0
1F8001F8
3F0000FC
3E00007C
3C00003C
3800001C
00000000
00000000
00000000
00000000
00000000
00000000
00000000
00000000
00000000
00000000
00000000
00000000
00000000
00000000
00000000
00000000
00000000
00000000
00000000
00000000
00000000
00000000
00000000
00000000
00000000
00000000
00000000
00000000
00000000
00000000
00000000
00000000
00000000
00000000
00000000
00000000
00000000
00000000
00000000
00000000
ENDCHAR
STARTCHAR LOW LINE
ENCODING 95
SWIDTH 500 0
DWIDTH 32 0
BBX 32 64 0 -12
BITMAP
00000000
00000000
00000000
00000000
00000000
00000000
00000000
00000000
00000000
00000000
00000000
00000000
00000000
00000000
00000000
00000000
00000000
00000000
00000000
00000000
00000000
00000000
00000000
00000000
00000000
00000000
00000000
00000000
00000000
00000000
00000000
00000000
00000000
00000000
00000000
00000000
00000000
00000000
00000000
00000000
00000000
00000000
00000000
00000000
00000000
00000000
00000000
00000000
00000000
00000000
00000000
00000000
00000000
00000000
00000000
00000000
3FFFFFFC
3FFFFFFC
3FFFFFFC
3FFFFFFC
00000000
00000000
00000000
00000000
ENDCHAR
STARTCHAR GRAVE ACCENT
ENCODING 96
SWIDTH 500 0
DWIDTH 32 0
BBX 32 64 0 -12
BITMAP
00000000
00000000
00000000
00000000
00000000
00000000
00000000
00000000
00380000
003C0000
003E0000
003F0000
001F8000
000FC000
0007E000
0003F000
0001F800
0000FC00
00007C00
00003C00
00000000
00000000
00000000
00000000
00000000
00000000
00000000
00000000
00000000
00000000
00000000
00000000
00000000
00000000
00000000
00000000
00000000
00000000
00000000
00000000
00000000
00000000
00000000
00000000
00000000
00000000
00000000
00000000
00000000
00000000
00000000
00000000
00000000
00000000
00000000
00000000
00000000
00000000
00000000
00000000
00000000
00000000
00000000
00000000
ENDCHAR
STARTCHAR LATIN SMALL LETTER A
ENCODING 97
SWIDTH 500 0
DWIDTH 32 0
BBX 32 64 0 -12
BITMAP
00000000
00000000
00000000
00000000
00000000
00000000
00000000
00000000
00000000
00000000
00000000
00000000
00000000
00000000
00000000
00000000
00000000
00000000
00000000
00000000
00000000
00000000
00000000
00000000
03FFFE00
03FFFF80
03FFFFC0
03FFFFE0
000003E0
000001F0
000000F0
000000F0
000000F0
000000F0
007FFFF0
01FFFFF0
03FFFFF0
07FFFFF0
07C000F0
0F8000F0
0F0000F0
0F0000F0
0F0000F0
0F0000F0
0F0000F0
0F0000F0
0F8000F0
07C000F0
07FFFFF0
03FFFFF0
01FFFFF0
007FFFF0
00000000
00000000
00000000
00000000
00000000
00000000
00000000
00000000
00000000
00000000
00000000
00000000
ENDCHAR
STARTCHAR LATIN SMALL LETTER B
ENCODING 98
SWIDTH 500 0
DWIDTH 32 0
BBX 32 64 0 -12
BITMAP
00000000
00000000
00000000
00000000
00000000
00000000
00000000
00000000
00000000
00000000
00000000
00000000
0F000000
0F000000
0F000000
0F000000
0F000000
0F000000
0F000000
0F000000
0F000000
0F000000
0F000000
0F000000
0FFFFE00
0FFFFF80
0FFFFFC0
0FFFFFE0
0F0003E0
0F0001F0
0F0000F0
0F0000F0
0F0000F0
0F0000F0
0F0000F0
0F0000F0
0F0000F0
0F0000F0
0F0000F0
0F0000F0
0F0000F0
0F0000F0
0F0000F0
0F0000F0
0F0000F0
0F0000F0
0F0001F0
0F0003E0
0FFFFFE0
0FFFFFC0
0FFFFF80
0FFFFE00
00000000
00000000
00000000
00000000
00000000
00000000
00000000
00000000
00000000
00000000
00000000
00000000
ENDCHAR
STARTCHAR LATIN SMALL LETTER C
ENCODING 99
SWIDTH 500 0
DWIDTH 32 0
BBX 32 64 0 -12
BITMAP
00000000
00000000
00000000
00000000
00000000
00000000
00000000
00000000
00000000
00000000
00000000
00000000
00000000
00000000
00000000
00000000
00000000
00000000
00000000
00000000
00000000
00000000
00000000
00000000
007FFFF0
01FFFFF0
03FFFFF0
07FFFFF0
07C00000
0F800000
0F000000
0F000000
0F000000
0F000000
0F000000
0F000000
0F000000
0F000000
0F000000
0F000000
0F000000
0F000000
0F000000
0F000000
0F000000
0F000000
0F800000
07C00000
07FFFFF0
03FFFFF0
01FFFFF0
007FFFF0
00000000
00000000
00000000
00000000
00000000
00000000
00000000
00000000
00000000
00000000
00000000
00000000
ENDCHAR
STARTCHAR LATIN SMALL LETTER D
ENCODING 100
SWIDTH 500 0
DWIDTH 32 0
BBX 32 64 0 -12
BITMAP
00000000
00000000
00000000
00000000
00000000
00000000
00000000
00000000
00000000
00000000
00000000
00000000
000000F0
000000F0
000000F0
000000F0
000000F0
000000F0
000000F0
000000F0
000000F0
000000F0
000000F0
000000F0
007FFFF0
01FFFFF0
03FFFFF0
07FFFFF0
07C000F0
0F8000F0
0F0000F0
0F0000F0
0F0000F0
0F0000F0
0F0000F0
0F0000F0
0F0000F0
0F0000F0
0F0000F0
0F0000F0
0F0000F0
0F0000F0
0F0000F0
0F0000F0
0F0000F0
0F0000F0
0F8000F0
07C000F0
07FFFFF0
03FFFFF0
01FFFFF0
007FFFF0
00000000
00000000
00000000
00000000
00000000
00000000
00000000
00000000
00000000
00000000
00000000
00000000
ENDCHAR
STARTCHAR LATIN SMALL LETTER E
ENCODING 101
SWIDTH 500 0
DWIDTH 32 0
BBX 32 64 0 -12
BITMAP
00000000
00000000
00000000
00000000
00000000
00000000
00000000
00000000
00000000
00000000
00000000
00000000
00000000
00000000
00000000
00000000
00000000
00000000
00000000
00000000
00000000
00000000
00000000
00000000
007FFFF0
01FFFFF0
03FFFFF0
07FFFFF0
07C000F0
0F8000F0
0F0000F0
0F0000F0
0F0000F0
0F0000F0
0F0000F0
0F0000F0
0FFFFFF0
0FFFFFF0
0FFFFFF0
0FFFFFF0
0F000000
0F000000
0F000000
0F000000
0F000000
0F000000
0F800000
07C00000
07FFFFF0
03FFFFF0
01FFFFF0
007FFFF0
00000000
00000000
00000000
00000000
00000000
00000000
00000000
00000000
00000000
00000000
00000000
00000000
ENDCHAR
STARTCHAR LATIN SMALL LETTER F
ENCODING 102
SWIDTH 500 0
DWIDTH 32 0
BBX 32 64 0 -12
BITMAP
00000000
00000000
00000000
00000000
00000000
00000000
00000000
00000000
00000000
00000000
00000000
00000000
0001FFC0
0007FFC0
000FFFC0
001FFFC0
001F0000
003E0000
003C0000
003C0000
003C0000
003C0000
003C0000
003C0000
003C0000
003C0000
003C0000
003C0000
03FFFC00
03FFFC00
03FFFC00
03FFFC00
003C0000
003C0000
003C0000
003C0000
003C0000
003C0000
003C0000
003C0000
003C0000
003C0000
003C0000
003C0000
003C0000
003C0000
003C0000
003C0000
003C0000
003C0000
003C0000
003C0000
00000000
00000000
00000000
00000000
00000000
00000000
00000000
00000000
00000000
00000000
00000000
00000000
ENDCHAR
STARTCHAR LATIN SMALL LETTER G
ENCODING 103
SWIDTH 500 0
DWIDTH 32 0
BBX 32 64 0 -12
BITMAP
00000000
00000000
00000000
00000000
00000000
00000000
00000000
00000000
00000000
00000000
00000000
00000000
00000000
00000000
00000000
00000000
00000000
00000000
00000000
00000000
00000000
00000000
00000000
00000000
007FFFF0
01FFFFF0
03FFFFF0
07FFFFF0
07C000F0
0F8000F0
0F0000F0
0F0000F0
0F0000F0
0F0000F0
0F0000F0
0F0000F0
0F0000F0
0F0000F0
0F0000F0
0F0000F0
0F0000F0
0F0000F0
0F0000F0
0F0000F0
0F0000F0
0F0000F0
0F8001F0
07C003E0
07FFFFC0
03FFFF80
01FFFF80
007FFFC0
000003E0
000001E0
000000F0
000000F0
000000F0
000000F0
000001F0
000003E0
0FFFFFE0
0FFFFFC0
0FFFFF80
0FFFFE00
ENDCHAR
STARTCHAR LATIN SMALL LETTER H
ENCODING 104
SWIDTH 500 0
DWIDTH 32 0
BBX 32 64 0 -12
BITMAP
00000000
00000000
00000000
00000000
00000000
00000000
00000000
00000000
00000000
00000000
00000000
00000000
0F000000
0F000000
0F000000
0F000000
0F000000
0F000000
0F000000
0F000000
0F000000
0F000000
0F000000
0F000000
0FFFFE00
0FFFFF80
0FFFFFC0
0FFFFFE0
0F0003E0
0F0001F0
0F0000F0
0F0000F0
0F0000F0
0F0000F0
0F0000F0
0F0000F0
0F0000F0
0F0000F0
0F0000F0
0F0000F0
0F0000F0
0F0000F0
0F0000F0
0F0000F0
0F0000F0
0F0000F0
0F0000F0
0F0000F0
0F0000F0
0F0000F0
0F0000F0
0F0000F0
00000000
00000000
00000000
00000000
00000000
00000000
00000000
00000000
00000000
00000000
00000000
00000000
ENDCHAR
STARTCHAR LATIN SMALL LETTER I
ENCODING 105
SWIDTH 500 0
DWIDTH 32 0
BBX 32 64 0 -12
BITMAP
00000000
00000000
00000000
00000000
00000000
00000000
00000000
00000000
00000000
00000000
00000000
00000000
0003C000
0003C000
0003C000
0003C000
0003C000
0003C000
00000000
00000000
00000000
00000000
00000000
00000000
003FC000
003FC000
003FC000
003FC000
0003C000
0003C000
0003C000
0003C000
0003C000
0003C000
0003C000
0003C000
0003C000
0003C000
0003C000
0003C000
0003C000
0003C000
0003C000
0003C000
0003C000
0003C000
0003C000
0003C000
0003FC00
0003FC00
0003FC00
0003FC00
00000000
00000000
00000000
00000000
00000000
00000000
00000000
00000000
00000000
00000000
00000000
00000000
ENDCHAR
STARTCHAR LATIN SMALL LETTER J
ENCODING 106
SWIDTH 500 0
DWIDTH 32 0
BBX 32 64 0 -12
BITMAP
00000000
00000000
00000000
00000000
00000000
00000000
00000000
00000000
00000000
00000000
00000000
00000000
0003C000
0003C000
0003C000
0003C000
0003C000
0003C000
00000000
00000000
00000000
00000000
00000000
00000000
0003C000
0003C000
0003C000
0003C000
0003C000
0003C000
0003C000
0003C000
0003C000
0003C000
0003C000
0003C000
0003C000
0003C000
0003C000
0003C000
0003C000
0003C000
0003C000
0003C000
0003C000
0003C000
0003C000
0003C000
0003C000
0003C000
0003C000
0003C000
0003C000
0003C000
0003C000
0003C000
0003C000
0003C000
0007C000
000F8000
03FF8000
03FF0000
03FE0000
03F80000
ENDCHAR
STARTCHAR LATIN SMALL LETTER K
ENCODING 107
SWIDTH 500 0
DWIDTH 32 0
BBX 32 64 0 -12
BITMAP
00000000
00000000
00000000
00000000
00000000
00000000
00000000
00000000
00000000
00000000
00000000
00000000
03C00000
03C00000
03C00000
03C00000
03C00000
03C00000
03C00000
03C00000
03C00000
03C00000
03C00000
03C00000
03C00700
03C00F00
03C01F00
03C03E00
03C07C00
03C0F800
03C1F000
03C3E000
03C7C000
03CF8000
03FF0000
03FF0000
03FF0000
03FF0000
03CF8000
03C7C000
03C3E000
03C1F000
03C0F800
03C07C00
03C03E00
03C01F00
03C00F80
03C007C0
03C003E0
03C001F0
03C000F0
03C00070
00000000
00000000
00000000
00000000
00000000
00000000
00000000
00000000
00000000
00000000
00000000
00000000
ENDCHAR
STARTCHAR LATIN SMALL LETTER L
ENCODING 108
SWIDTH 500 0
DWIDTH 32 0
BBX 32 64 0 -12
BITMAP
00000000
00000000
00000000
00000000
00000000
00000000
00000000
00000000
00000000
00000000
00000000
00000000
003C0000
003C0000
003C0000
003C0000
003C0000
003C0000
003C0000
003C0000
003C0000
003C0000
003C0000
003C0000
003C0000
003C0000
003C0000
003C0000
003C0000
003C0000
003C0000
003C0000
003C0000
003C0000
003C0000
003C0000
003C0000
003C0000
003C0000
003C0000
003C0000
003C0000
003C0000
003C0000
003C0000
003C0000
003E0000
001F0000
001FFFC0
000FFFC0
0007FFC0
0001FFC0
00000000
00000000
00000000
00000000
00000000
00000000
00000000
00000000
00000000
00000000
00000000
00000000
ENDCHAR
STARTCHAR LATIN SMALL LETTER M
ENCODING 109
SWIDTH 500 0
DWIDTH 32 0
BBX 32 64 0 -12
BITMAP
00000000
00000000
00000000
00000000
00000000
00000000
00000000
00000000
00000000
00000000
00000000
00000000
00000000
00000000
00000000
00000000
00000000
00000000
00000000
00000000
00000000
00000000
00000000
00000000
0FFC3E00
0FFC3F80
0FFC3FC0
0FFC3FE0
0F03C3E0
0F03C1F0
0F03C0F0
0F03C0F0
0F03C0F0
0F03C0F0
0F03C0F0
0F03C0F0
0F03C0F0
0F03C0F0
0F03C0F0
0F03C0F0
0F03C0F0
0F03C0F0
0F03C0F0
0F03C0F0
0F0000F0
0F0000F0
0F0000F0
0F0000F0
0F0000F0
0F0000F0
0F0000F0
0F0000F0
00000000
00000000
00000000
00000000
00000000
00000000
00000000
00000000
00000000
00000000
00000000
00000000
ENDCHAR
STARTCHAR LATIN SMALL LETTER N
ENCODING 110
SWIDTH 500 0
DWIDTH 32 0
BBX 32 64 0 -12
BITMAP
00000000
00000000
00000000
00000000
00000000
00000000
00000000
00000000
00000000
00000000
00000000
00000000
00000000
00000000
00000000
00000000
00000000
00000000
00000000
00000000
00000000
00000000
00000000
00000000
0FFFFE00
0FFFFF80
0FFFFFC0
0FFFFFE0
0F0003E0
0F0001F0
0F0000F0
0F0000F0
0F0000F0
0F0000F0
0F0000F0
0F0000F0
0F0000F0
0F0000F0
0F0000F0
0F0000F0
0F0000F0
0F0000F0
0F0000F0
0F0000F0
0F0000F0
0F0000F0
0F0000F0
0F0000F0
0F0000F0
0F0000F0
0F0000F0
0F0000F0
00000000
00000000
00000000
00000000
00000000
00000000
00000000
00000000
00000000
00000000
00000000
00000000
ENDCHAR
STARTCHAR LATIN SMALL LETTER O
ENCODING 111
SWIDTH 500 0
DWIDTH 32 0
BBX 32 64 0 -12
BITMAP
00000000
00000000
00000000
00000000
00000000
00000000
00000000
00000000
00000000
00000000
00000000
00000000
00000000
00000000
00000000
00000000
00000000
00000000
00000000
00000000
00000000
00000000
00000000
00000000
007FFE00
01FFFF80
03FFFFC0
07FFFFE0
07C003E0
0F8001F0
0F0000F0
0F0000F0
0F0000F0
0F0000F0
0F0000F0
0F0000F0
0F0000F0
0F0000F0
0F0000F0
0F0000F0
0F0000F0
0F0000F0
0F0000F0
0F0000F0
0F0000F0
0F0000F0
0F8001F0
07C003E0
07FFFFE0
03FFFFC0
01FFFF80
007FFE00
00000000
00000000
00000000
00000000
00000000
00000000
00000000
00000000
00000000
00000000
00000000
00000000
ENDCHAR
STARTCHAR LATIN SMALL LETTER P
ENCODING 112
SWIDTH 500 0
DWIDTH 32 0
BBX 32 64 0 -12
BITMAP
00000000
00000000
00000000
00000000
00000000
00000000
00000000
00000000
00000000
00000000
00000000
00000000
00000000
00000000
00000000
00000000
00000000
00000000
00000000
00000000
00000000
00000000
00000000
00000000
0FFFFE00
0FFFFF80
0FFFFFC0
0FFFFFE0
0F0003E0
0F0001F0
0F0000F0
0F0000F0
0F0000F0
0F0000F0
0F0000F0
0F0000F0
0F0000F0
0F0000F0
0F0000F0
0F0000F0
0F0000F0
0F0000F0
0F0000F0
0F0000F0
0F0000F0
0F0000F0
0F0001F0
0F0003E0
0FFFFFE0
0FFFFFC0
0FFFFF80
0FFFFE00
0F000000
0F000000
0F000000
0F000000
0F000000
0F000000
0F000000
0F000000
0F000000
0F000000
0F000000
0F000000
ENDCHAR
STARTCHAR LATIN SMALL LETTER Q
ENCODING 113
SWIDTH 500 0
DWIDTH 32 0
BBX 32 64 0 -12
BITMAP
00000000
00000000
00000000
00000000
00000000
00000000
00000000
00000000
00000000
00000000
00000000
00000000
00000000
00000000
00000000
00000000
00000000
00000000
00000000
00000000
00000000
00000000
00000000
00000000
007FFFF0
01FFFFF0
03FFFFF0
07FFFFF0
07C000F0
0F8000F0
0F0000F0
0F0000F0
0F0000F0
0F0000F0
0F0000F0
0F0000F0
0F0000F0
0F0000F0
0F0000F0
0F0000F0
0F0000F0
0F0000F0
0F0000F0
0F0000F0
0F0000F0
0F0000F0
0F8000F0
07C000F0
07FFFFF0
03FFFFF0
01FFFFF0
007FFFF0
000000F0
000000F0
000000F0
000000F0
000000F0
000000F0
000000F0
000000F0
000000F0
000000F0
000000F0
000000F0
ENDCHAR
STARTCHAR LATIN SMALL LETTER R
ENCODING 114
SWIDTH 500 0
DWIDTH 32 0
BBX 32 64 0 -12
BITMAP
00000000
00000000
00000000
00000000
00000000
00000000
00000000
00000000
00000000
00000000
00000000
00000000
00000000
00000000
00000000
00000000
00000000
00000000
00000000
00000000
00000000
00000000
00000000
00000000
007FFFF0
01FFFFF0
03FFFFF0
07FFFFF0
07C000F0
0F8000F0
0F0000F0
0F0000F0
0F000000
0F000000
0F000000
0F000000
0F000000
0F000000
0F000000
0F000000
0F000000
0F000000
0F000000
0F000000
0F000000
0F000000
0F000000
0F000000
0F000000
0F000000
0F000000
0F000000
00000000
00000000
00000000
00000000
00000000
00000000
00000000
00000000
00000000
00000000
00000000
00000000
ENDCHAR
STARTCHAR LATIN SMALL LETTER S
ENCODING 115
SWIDTH 500 0
DWIDTH 32 0
BBX 32 64 0 -12
BITMAP
00000000
00000000
00000000
00000000
00000000
00000000
00000000
00000000
00000000
00000000
00000000
00000000
00000000
00000000
00000000
00000000
00000000
00000000
00000000
00000000
00000000
00000000
00000000
00000000
007FFFF0
01FFFFF0
03FFFFF0
07FFFFF0
07C00000
0F800000
0F000000
0F000000
0F000000
0F000000
0F800000
07C00000
07FFFE00
03FFFF80
01FFFFC0
007FFFE0
000003E0
000001F0
000000F0
000000F0
000000F0
000000F0
000001F0
000003E0
0FFFFFE0
0FFFFFC0
0FFFFF80
0FFFFE00
00000000
00000000
00000000
00000000
00000000
00000000
00000000
00000000
00000000
00000000
00000000
00000000
ENDCHAR
STARTCHAR LATIN SMALL LETTER T
ENCODING 116
SWIDTH 500 0
DWIDTH 32 0
BBX 32 64 0 -12
BITMAP
00000000
00000000
00000000
00000000
00000000
00000000
00000000
00000000
00000000
00000000
00000000
00000000
003C0000
003C0000
003C0000
003C0000
003C0000
003C0000
003C0000
003C0000
003C0000
003C0000
003C0000
003C0000
03FFFC00
03FFFC00
03FFFC00
03FFFC00
003C0000
003C0000
003C0000
003C0000
003C0000
003C0000
003C0000
003C0000
003C0000
003C0000
003C0000
003C0000
003C0000
003C0000
003C0000
003C0000
003C0000
003C0000
003E0000
001F0000
001FFFC0
000FFFC0
0007FFC0
0001FFC0
00000000
00000000
00000000
00000000
00000000
00000000
00000000
00000000
00000000
00000000
00000000
00000000
ENDCHAR
STARTCHAR LATIN SMALL LETTER U
ENCODING 117
SWIDTH 500 0
DWIDTH 32 0
BBX 32 64 0 -12
BITMAP
00000000
00000000
00000000
00000000
00000000
00000000
00000000
00000000
00000000
00000000
00000000
00000000
00000000
00000000
00000000
00000000
00000000
00000000
00000000
00000000
00000000
00000000
00000000
00000000
0F0000F0
0F0000F0
0F0000F0
0F0000F0
0F0000F0
0F0000F0
0F0000F0
0F0000F0
0F0000F0
0F0000F0
0F0000F0
0F0000F0
0F0000F0
0F0000F0
0F0000F0
0F0000F0
0F0000F0
0F0000F0
0F0000F0
0F0000F0
0F0000F0
0F0000F0
0F8000F0
0FC000F0
07FFFFF0
03FFFFF0
01FFFFF0
00FFFFF0
00000000
00000000
00000000
00000000
00000000
00000000
00000000
00000000
00000000
00000000
00000000
00000000
ENDCHAR
STARTCHAR LATIN SMALL LETTER V
ENCODING 118
SWIDTH 500 0
DWIDTH 32 0
BBX 32 64 0 -12
BITMAP
00000000
00000000
00000000
00000000
00000000
00000000
00000000
00000000
00000000
00000000
00000000
00000000
00000000
00000000
00000000
00000000
00000000
00000000
00000000
00000000
00000000
00000000
00000000
00000000
0F0000F0
0F0000F0
0F0000F0
0F0000F0
0F0000F0
0F0000F0
0F0000F0
0F0000F0
0F0000F0
0F0000F0
0F0000F0
0F0000F0
0F0000F0
0F0000F0
0F0000F0
0F0000F0
0F0000F0
0F8001F0
07C003E0
03E007C0
01F00F80
00F81F00
007C3E00
003E7C00
001FF800
000FF000
0007E000
0003C000
00000000
00000000
00000000
00000000
00000000
00000000
00000000
00000000
00000000
00000000
00000000
00000000
ENDCHAR
STARTCHAR LATIN SMALL LETTER W
ENCODING 119
SWIDTH 500 0
DWIDTH 32 0
BBX 32 64 0 -12
BITMAP
00000000
00000000
00000000
00000000
00000000
00000000
00000000
00000000
00000000
00000000
00000000
00000000
00000000
00000000
00000000
00000000
00000000
00000000
00000000
00000000
00000000
00000000
00000000
00000000
0F0000F0
0F0000F0
0F0000F0
0F0000F0
0F0000F0
0F0000F0
0F0000F0
0F0000F0
0F03C0F0
0F03C0F0
0F03C0F0
0F03C0F0
0F03C0F0
0F03C0F0
0F03C0F0
0F03C0F0
0F03C0F0
0F03C0F0
0F03C0F0
0F03C0F0
0F03C0F0
0F03C0F0
0F83C0F0
07C3C0F0
07FC3FF0
03FC3FF0
01FC3FF0
007C3FF0
00000000
00000000
00000000
00000000
00000000
00000000
00000000
00000000
00000000
00000000
00000000
00000000
ENDCHAR
STARTCHAR LATIN SMALL LETTER X
ENCODING 120
SWIDTH 500 0
DWIDTH 32 0
BBX 32 64 0 -12
BITMAP
00000000
00000000
00000000
00000000
00000000
00000000
00000000
00000000
00000000
00000000
00000000
00000000
00000000
00000000
00000000
00000000
00000000
00000000
00000000
00000000
00000000
00000000
00000000
00000000
0F0000F0
0F0000F0
0F0000F0
0F8001F0
07C003E0
03E007C0
01F00F80
00F81F00
007C3E00
003E7C00
001FF800
000FF000
000FF000
001FF800
003E7C00
007C3E00
00F81F00
01F00F80
03E007C0
03C003C0
07C003E0
07C003E0
0F8001F0
0F8001F0
0F0000F0
0F0000F0
0F0000F0
0F0000F0
00000000
00000000
00000000
00000000
00000000
00000000
00000000
00000000
00000000
00000000
00000000
00000000
ENDCHAR
STARTCHAR LATIN SMALL LETTER Y
ENCODING 121
SWIDTH 500 0
DWIDTH 32 0
BBX 32 64 0 -12
BITMAP
00000000
00000000
00000000
00000000
00000000
00000000
00000000
00000000
00000000
00000000
00000000
00000000
00000000
00000000
00000000
00000000
00000000
00000000
00000000
00000000
00000000
00000000
00000000
00000000
0F0000F0
0F0000F0
0F0000F0
0F0000F0
0F0000F0
0F0000F0
0F0000F0
0F0000F0
0F0000F0
0F0000F0
0F0000F0
0F0000F0
0F0000F0
0F0000F0
0F0000F0
0F0000F0
0F0000F0
0F0000F0
0F0000F0
0F0000F0
0F0000F0
0F0000F0
0F8000F0
07C000F0
07FFFFF0
03FFFFF0
01FFFFF0
007FFFF0
000000F0
000000F0
000000F0
000000F0
000000F0
000000F0
000001F0
000003E0
0FFFFFE0
0FFFFFC0
0FFFFF80
0FFFFE00
ENDCHAR
STARTCHAR LATIN SMALL LETTER Z
ENCODING 122
SWIDTH 500 0
DWIDTH 32 0
BBX 32 64 0 -12
BITMAP
00000000
00000000
00000000
00000000
00000000
00000000
00000000
00000000
00000000
00000000
00000000
00000000
00000000
00000000
00000000
00000000
00000000
00000000
00000000
00000000
00000000
00000000
00000000
00000000
0FFFFFF0
0FFFFFF0
0FFFFFF0
0FFFFFF0
000000F0
000001F0
000003E0
000007C0
00000F80
00001F00
00003E00
00007C00
0000F800
0001F000
0003E000
0007C000
000F8000
001F0000
003E0000
007C0000
00F80000
01F00000
03E00000
07C00000
0FFFFFF0
0FFFFFF0
0FFFFFF0
0FFFFFF0
00000000
00000000
00000000
00000000
00000000
00000000
00000000
00000000
00000000
00000000
00000000
00000000
ENDCHAR
STARTCHAR LEFT CURLY BRACKET
ENCODING 123
SWIDTH 500 0
DWIDTH 32 0
BBX 32 64 0 -12
BITMAP
00000000
00000000
00000000
00000000
00007FF0
0001FFF0
0003FFF0
0007FFF0
0007C000
000F8000
000F0000
000F0000
000F0000
000F0000
000F0000
000F0000
000F0000
000F0000
000F0000
000F0000
000F0000
000F0000
000F0000
000F0000
000F0000
001F0000
003F0000
007E0000
0FFC0000
0FF80000
0FF00000
0FF00000
0FF00000
0FF00000
0FF80000
0FFC0000
007E0000
003F0000
001F0000
000F0000
000F0000
000F0000
000F0000
000F0000
000F0000
000F0000
000F0000
000F0000
000F0000
000F0000
000F0000
000F0000
000F0000
000F0000
000F8000
0007C000
0007FFF0
0003FFF0
0001FFF0
00007FF0
00000000
00000000
00000000
00000000
ENDCHAR
STARTCHAR VERTICAL LINE
ENCODING 124
SWIDTH 500 0
DWIDTH 32 0
BBX 32 64 0 -12
BITMAP
00000000
00000000
00000000
00000000
00000000
00000000
00000000
00000000
0003C000
0003C000
0003C000
0003C000
0003C000
0003C000
0003C000
0003C000
0003C000
0003C000
0003C000
0003C000
0003C000
0003C000
0003C000
0003C000
0003C000
0003C000
0003C000
0003C000
0003C000
0003C000
0003C000
0003C000
0003C000
0003C000
0003C000
0003C000
0003C000
0003C000
0003C000
0003C000
0003C000
0003C000
0003C000
0003C000
0003C000
0003C000
0003C000
0003C000
0003C000
0003C000
0003C000
0003C000
0003C000
0003C000
0003C000
0003C000
00000000
00000000
00000000
00000000
00000000
00000000
00000000
00000000
ENDCHAR
STARTCHAR RIGHT CURLY BRACKET
ENCODING 125
SWIDTH 500 0
DWIDTH 32 0
BBX 32 64 0 -12
BITMAP
00000000
00000000
00000000
00000000
0FFE0000
0FFF8000
0FFFC000
0FFFE000
0003E000
0001F000
0000F000
0000F000
0000F000
0000F000
0000F000
0000F000
0000F000
0000F000
0000F000
0000F000
0000F000
0000F000
0000F000
0000F000
0000F000
0000F800
0000FC00
00007E00
00003FF0
00001FF0
00000FF0
00000FF0
00000FF0
00000FF0
00001FF0
00003FF0
00007E00
0000FC00
0000F800
0000F000
0000F000
0000F000
0000F000
0000F000
0000F000
0000F000
0000F000
0000F000
0000F000
0000F000
0000F000
0000F000
0000F000
0000F000
0001F000
0003E000
0FFFE000
0FFFC000
0FFF8000
0FFE0000
00000000
00000000
00000000
00000000
ENDCHAR
STARTCHAR TILDE
ENCODING 126
SWIDTH 500 0
DWIDTH 32 0
BBX 32 64 0 -12
BITMAP
00000000
00000000
00000000
00000000
00000000
00000000
00000000
00000000
007800F0
01FE00F0
03FF00F0
07FF80F0
0FCFC1F0
0F87E3F0
0F03FFE0
0F01FFC0
0F00FF80
0F003E00
00000000
00000000
00000000
00000000
00000000
00000000
00000000
00000000
00000000
00000000
00000000
00000000
00000000
00000000
00000000
00000000
00000000
00000000
00000000
00000000
00000000
00000000
00000000
00000000
00000000
00000000
00000000
00000000
00000000
00000000
00000000
00000000
00000000
00000000
00000000
00000000
00000000
00000000
00000000
00000000
00000000
00000000
00000000
00000000
00000000
00000000
ENDCHAR
STARTCHAR <control>
ENCODING 127
SWIDTH 500 0
DWIDTH 32 0
BBX 32 64 0 -12
BITMAP
00000000
00000000
00000000
00000000
00000000
00000000
00000000
00000000
00000000
00000000
00000000
00000000
00000000
00000000
00000000
00000000
00000000
00000000
00000000
00000000
00000000
00000000
00000000
00000000
00000000
00000000
00000000
00000000
00000000
00000000
00000000
00000000
00000000
00000000
00000000
00000000
00000000
00000000
00000000
00000000
00000000
00000000
00000000
00000000
00000000
00000000
00000000
00000000
00000000
00000000
00000000
00000000
00000000
00000000
00000000
00000000
00000000
00000000
00000000
00000000
00000000
00000000
00000000
00000000
ENDCHAR
STARTCHAR NO-BREAK SPACE
ENCODING 160
SWIDTH 500 0
DWIDTH 32 0
BBX 32 64 0 -12
BITMAP
00000000
00000000
00000000
00000000
00000000
00000000
00000000
00000000
00000000
00000000
00000000
00000000
00000000
00000000
00000000
00000000
00000000
00000000
00000000
00000000
00000000
00000000
00000000
00000000
00000000
00000000
00000000
00000000
00000000
00000000
00000000
00000000
00000000
00000000
00000000
00000000
00000000
00000000
00000000
00000000
00000000
00000000
00000000
00000000
00000000
00000000
00000000
00000000
00000000
00000000
00000000
00000000
00000000
00000000
00000000
00000000
00000000
00000000
00000000
00000000
00000000
00000000
00000000
00000000
ENDCHAR
STARTCHAR INVERTED EXCLAMATION MARK
ENCODING 161
SWIDTH 500 0
DWIDTH 32 0
BBX 32 64 0 -12
BITMAP
00000000
00000000
00000000
00000000
00000000
00000000
00000000
00000000
00000000
00000000
00000000
00000000
0003C000
0003C000
0003C000
0003C000
00000000
00000000
00000000
00000000
00000000
00000000
00000000
00000000
0003C000
0003C000
0003C000
0003C000
0003C000
0003C000
0003C000
0003C000
0003C000
0003C000
0003C000
0003C000
0003C000
0003C000
0003C000
0003C000
0003C000
0003C000
0003C000
0003C000
0003C000
0003C000
0003C000
0003C000
0003C000
0003C000
0003C000
0003C000
00000000
00000000
00000000
00000000
00000000
00000000
00000000
00000000
00000000
00000000
00000000
00000000
ENDCHAR
STARTCHAR CENT SIGN
ENCODING 162
SWIDTH 500 0
DWIDTH 32 0
BBX 32 64 0 -12
BITMAP
00000000
00000000
00000000
00000000
00000000
00000000
00000000
00000000
00000000
00000000
00000000
00000000
00000000
00000000
00000000
00000000
00000000
00000000
00000000
00000000
0000F000
0000F000
0000F000
0000F000
007FFFF0
01FFFFF0
03FFFFF0
07FFFFF0
07C0F000
0F80F000
0F00F000
0F00F000
0F00F000
0F00F000
0F00F000
0F00F000
0F00F000
0F00F000
0F00F000
0F00F000
0F00F000
0F00F000
0F00F000
0F00F000
0F00F000
0F00F000
0F80F000
07C0F000
07FFFFF0
03FFFFF0
01FFFFF0
007FFFF0
0000F000
0000F000
0000F000
0000F000
00000000
00000000
00000000
00000000
00000000
00000000
00000000
00000000
ENDCHAR
STARTCHAR POUND SIGN
ENCODING 163
SWIDTH 500 0
DWIDTH 32 0
BBX 32 64 0 -12
BITMAP
00000000
00000000
00000000
00000000
00000000
00000000
00000000
00000000
00000000
00000000
00000000
00000000
0007F800
001FFE00
003FFF00
007FFF80
007C0F80
00F807C0
00F003C0
00F003C0
00F00000
00F00000
00F00000
00F00000
00F00000
00F00000
00F00000
00F00000
00F00000
00F00000
0FFFFF00
0FFFFF00
0FFFFF00
0FFFFF00
00F00000
00F00000
00F00000
00F00000
00F00000
00F00000
00F00000
00F00000
00F00000
00F00000
01E00000
01E00000
03C00000
03C00000
0FFFFFF0
0FFFFFF0
0FFFFFF0
0FFFFFF0
00000000
00000000
00000000
00000000
00000000
00000000
00000000
00000000
00000000
00000000
00000000
00000000
ENDCHAR
STARTCHAR CURRENCY SIGN
ENCODING 164
SWIDTH 500 0
DWIDTH 32 0
BBX 32 64 0 -12
BITMAP
00000000
00000000
00000000
00000000
00000000
00000000
00000000
00000000
00000000
00000000
00000000
00000000
00000000
00000000
00000000
00000000
00000000
00000000
03F00FC0
01F81F80
00FC3F00
007E7E00
003FFC00
007FFE00
00FFFF00
01FFFF80
03F00FC0
03E007C0
03C003C0
03C003C0
03C003C0
03C003C0
03C003C0
03C003C0
03C003C0
03C003C0
03E007C0
03F00FC0
01FFFF80
00FFFF00
007FFE00
003FFC00
007E7E00
00FC3F00
01F81F80
03F00FC0
00000000
00000000
00000000
00000000
00000000
00000000
00000000
00000000
00000000
00000000
00000000
00000000
00000000
00000000
00000000
00000000
00000000
00000000
ENDCHAR
STARTCHAR YEN SIGN
ENCODING 165
SWIDTH 500 0
DWIDTH 32 0
BBX 32 64 0 -12
BITMAP
00000000
00000000
00000000
00000000
00000000
00000000
00000000
00000000
00000000
00000000
00000000
00000000
0F0000F0
0F0000F0
078001E0
078001E0
03C003C0
03C003C0
01E00780
01E00780
00F00F00
00F00F00
00781E00
00781E00
003C3C00
003C3C00
001E7800
001E7800
000FF000
000FF000
0007E000
0007E000
0003C000
0003C000
0003C000
0003C000
03FFFFC0
03FFFFC0
03FFFFC0
03FFFFC0
0003C000
0003C000
0003C000
0003C000
03FFFFC0
03FFFFC0
03FFFFC0
03FFFFC0
0003C000
0003C000
0003C000
0003C000
00000000
00000000
00000000
00000000
00000000
00000000
00000000
00000000
00000000
00000000
00000000
00000000
ENDCHAR
STARTCHAR BROKEN BAR
ENCODING 166
SWIDTH 500 0
DWIDTH 32 0
BBX 32 64 0 -12
BITMAP
00000000
00000000
00000000
00000000
00000000
00000000
00000000
00000000
0003C000
0003C000
0003C000
0003C000
0003C000
0003C000
0003C000
0003C000
0003C000
0003C000
0003C000
0003C000
0003C000
0003C000
0003C000
0003C000
0003C000
0003C000
0003C000
0003C000
00000000
00000000
00000000
00000000
00000000
00000000
00000000
00000000
0003C000
0003C000
0003C000
0003C000
0003C000
0003C000
0003C000
0003C000
0003C000
0003C000
0003C000
0003C000
0003C000
0003C000
0003C000
0003C000
0003C000
0003C000
0003C000
0003C000
00000000
00000000
00000000
00000000
00000000
00000000
00000000
00000000
ENDCHAR
STARTCHAR SECTION SIGN
ENCODING 167
SWIDTH 500 0
DWIDTH 32 0
BBX 32 64 0 -12
BITMAP
00000000
00000000
00000000
00000000
00000000
00000000
00000000
00000000
001FF000
007FFC00
00FFFE00
01FFFE00
01F03F00
03E01F00
03C00000
03C00000
03C00000
03C00000
03E00000
01F00000
01F80000
00FC0000
007FF800
007FFE00
00FFFF00
01FFFF80
01F00F80
03E007C0
03C003C0
03C003C0
03C003C0
03C003C0
03C003C0
03C003C0
03C003C0
03C003C0
03E007C0
01F00F80
01FFFF80
00FFFF00
007FFE00
001FFE00
00003F00
00001F80
00000F80
000007C0
000003C0
000003C0
000003C0
000003C0
00F807C0
00FC0F80
007FFF80
007FFF00
003FFE00
000FF800
00000000
00000000
00000000
00000000
00000000
00000000
00000000
00000000
ENDCHAR
STARTCHAR DIAERESIS
ENCODING 168
SWIDTH 500 0
DWIDTH 32 0
BBX 32 64 0 -12
BITMAP
00000000
00000000
00000000
00000000
00000000
00000000
00000000
00000000
00000000
00000000
00000000
00000000
00000000
00000000
00F00F00
00F00F00
00F00F00
00F00F00
00F00F00
00F00F00
00000000
00000000
00000000
00000000
00000000
00000000
00000000
00000000
00000000
00000000
00000000
00000000
00000000
00000000
00000000
00000000
00000000
00000000
00000000
00000000
00000000
00000000
00000000
00000000
00000000
00000000
00000000
00000000
00000000
00000000
00000000
00000000
00000000
00000000
00000000
00000000
00000000
00000000
00000000
00000000
00000000
00000000
00000000
00000000
ENDCHAR
STARTCHAR COPYRIGHT SIGN
ENCODING 169
SWIDTH 500 0
DWIDTH 32 0
BBX 32 64 0 -12
BITMAP
00000000
00000000
00000000
00000000
00000000
00000000
00000000
00000000
00000000
00000000
00000000
00000000
00000000
00000000
00000000
00000000
00000000
00000000
00000000
00000000
007FFE00
01FFFF80
03FFFFC0
07FFFFE0
07C003E0
0F8001F0
0F0000F0
0F0000F0
0F03FCF0
0F0FFCF0
0F1FFCF0
0F1FFCF0
0F3E00F0
0F3C00F0
0F3C00F0
0F3C00F0
0F3C00F0
0F3C00F0
0F3C00F0
0F3E00F0
0F1FFCF0
0F1FFCF0
0F0FFCF0
0F03FCF0
0F0000F0
0F0000F0
0F8001F0
07C003E0
07FFFFE0
03FFFFC0
01FFFF80
007FFE00
00000000
00000000
00000000
00000000
00000000
00000000
00000000
00000000
00000000
00000000
00000000
00000000
ENDCHAR
STARTCHAR FEMININE ORDINAL INDICATOR
ENCODING 170
SWIDTH 500 0
DWIDTH 32 0
BBX 32 64 0 -12
BITMAP
00000000
00000000
00000000
00000000
00000000
00000000
00000000
00000000
003FE000
003FF800
003FFC00
003FFE00
00003E00
00001F00
00000F00
00000F00
000FFF00
003FFF00
007FFF00
007FFF00
00F80F00
00F00F00
00F00F00
00F80F00
007FFF00
007FFF00
003FFF00
000FFF00
00000000
00000000
00000000
00000000
00FFFF00
00FFFF00
00FFFF00
00FFFF00
00000000
00000000
00000000
00000000
00000000
00000000
00000000
00000000
00000000
00000000
00000000
00000000
00000000
00000000
00000000
00000000
00000000
00000000
00000000
00000000
00000000
00000000
00000000
00000000
00000000
00000000
00000000
00000000
ENDCHAR
STARTCHAR LEFT-POINTING DOUBLE ANGLE QUOTATION MARK
ENCODING 171
SWIDTH 500 0
DWIDTH 32 0
BBX 32 64 0 -12
BITMAP
00000000
00000000
00000000
00000000
00000000
00000000
00000000
00000000
00000000
00000000
00000000
00000000
00000000
00000000
00000000
00000000
00000000
00000000
00000000
00000000
00000000
00000000
00000000
00000000
00000000
00000000
00000000
00000000
000FC3F0
001F87E0
003F0FC0
007E1F80
00FC3F00
01F87E00
03F0FC00
07E1F800
0FC3F000
1F87E000
1F87E000
0FC3F000
07E1F800
03F0FC00
01F87E00
00FC3F00
007E1F80
003F0FC0
001F87E0
000FC3F0
00000000
00000000
00000000
00000000
00000000
00000000
00000000
00000000
00000000
00000000
00000000
00000000
00000000
00000000
00000000
00000000
ENDCHAR
STARTCHAR NOT SIGN
ENCODING 172
SWIDTH 500 0
DWIDTH 32 0
BBX 32 64 0 -12
BITMAP
00000000
00000000
00000000
00000000
00000000
00000000
00000000
00000000
00000000
00000000
00000000
00000000
00000000
00000000
00000000
00000000
00000000
00000000
00000000
00000000
00000000
00000000
00000000
00000000
0FFFFFF0
0FFFFFF0
0FFFFFF0
0FFFFFF0
000000F0
000000F0
000000F0
000000F0
000000F0
000000F0
000000F0
000000F0
000000F0
000000F0
000000F0
000000F0
00000000
00000000
00000000
00000000
00000000
00000000
00000000
00000000
00000000
00000000
00000000
00000000
00000000
00000000
00000000
00000000
00000000
00000000
00000000
00000000
00000000
00000000
00000000
00000000
ENDCHAR
STARTCHAR SOFT HYPHEN
ENCODING 173
SWIDTH 500 0
DWIDTH 32 0
BBX 32 64 0 -12
BITMAP
00000000
00000000
00000000
00000000
00000000
00000000
00000000
00000000
00000000
00000000
00000000
00000000
00000000
00000000
00000000
00000000
00000000
00000000
00000000
00000000
00000000
00000000
00000000
00000000
00000000
00000000
00000000
00000000
00000000
00000000
00000000
00000000
03FFFFC0
03FFFFC0
03FFFFC0
03FFFFC0
00000000
00000000
00000000
00000000
00000000
00000000
00000000
00000000
00000000
00000000
00000000
00000000
00000000
00000000
00000000
00000000
00000000
00000000
00000000
00000000
00000000
00000000
00000000
00000000
00000000
00000000
00000000
00000000
ENDCHAR
STARTCHAR REGISTERED SIGN
ENCODING 174
SWIDTH 500 0
DWIDTH 32 0
BBX 32 64 0 -12
BITMAP
00000000
00000000
00000000
00000000
00000000
00000000
00000000
00000000
00000000
00000000
00000000
00000000
00000000
00000000
00000000
00000000
007FFE00
01FFFF80
03FFFFC0
07FFFFE0
07C003E0
0F8001F0
0F0000F0
0F0000F0
0F3FF0F0
0F3FF8F0
0F3FFCF0
0F3FFCF0
0F3C3CF0
0F3C3CF0
0F3FFCF0
0F3FFCF0
0F3FF8F0
0F3FF0F0
0F3C78F0
0F3C3CF0
0F3C3CF0
0F3C3CF0
0F3C3CF0
0F3C3CF0
0F0000F0
0F0000F0
0F8001F0
07C003E0
07FFFFE0
03FFFFC0
01FFFF80
007FFE00
00000000
00000000
00000000
00000000
00000000
00000000
00000000
00000000
00000000
00000000
00000000
00000000
00000000
00000000
00000000
00000000
ENDCHAR
STARTCHAR MACRON
ENCODING 175
SWIDTH 500 0
DWIDTH 32 0
BBX 32 64 0 -12
BITMAP
00000000
00000000
00000000
00000000
00FFFF00
00FFFF00
00FFFF00
00FFFF00
00000000
00000000
00000000
00000000
00000000
00000000
00000000
00000000
00000000
00000000
00000000
00000000
00000000
00000000
00000000
00000000
00000000
00000000
00000000
00000000
00000000
00000000
00000000
00000000
00000000
00000000
00000000
00000000
00000000
00000000
00000000
00000000
00000000
00000000
00000000
00000000
00000000
00000000
00000000
00000000
00000000
00000000
00000000
00000000
00000000
00000000
00000000
00000000
00000000
00000000
00000000
00000000
00000000
00000000
00000000
00000000
ENDCHAR
STARTCHAR DEGREE SIGN
ENCODING 176
SWIDTH 500 0
DWIDTH 32 0
BBX 32 64 0 -12
BITMAP
00000000
00000000
00000000
00000000
00000000
00000000
00000000
00000000
00000000
00000000
0007E000
001FF800
003FFC00
007FFE00
007C3E00
00F81F00
00F00F00
00F00F00
00F00F00
00F00F00
00F00F00
00F00F00
00F81F00
007C3E00
007FFE00
003FFC00
001FF800
0007E000
00000000
00000000
00000000
00000000
00000000
00000000
00000000
00000000
00000000
00000000
00000000
00000000
00000000
00000000
00000000
00000000
00000000
00000000
00000000
00000000
00000000
00000000
00000000
00000000
00000000
00000000
00000000
00000000
00000000
00000000
00000000
00000000
00000000
00000000
00000000
00000000
ENDCHAR
STARTCHAR PLUS-MINUS SIGN
ENCODING 177
SWIDTH 500 0
DWIDTH 32 0
BBX 32 64 0 -12
BITMAP
00000000
00000000
00000000
00000000
00000000
00000000
00000000
00000000
00000000
00000000
00000000
00000000
00000000
00000000
00000000
00000000
00000000
00000000
00000000
00000000
0003C000
0003C000
0003C000
0003C000
0003C000
0003C000
0003C000
0003C000
03FFFFC0
03FFFFC0
03FFFFC0
03FFFFC0
0003C000
0003C000
0003C000
0003C000
0003C000
0003C000
0003C000
0003C000
00000000
00000000
00000000
00000000
03FFFFC0
03FFFFC0
03FFFFC0
03FFFFC0
00000000
00000000
00000000
00000000
00000000
00000000
00000000
00000000
00000000
00000000
00000000
00000000
00000000
00000000
00000000
00000000
ENDCHAR
STARTCHAR SUPERSCRIPT TWO
ENCODING 178
SWIDTH 500 0
DWIDTH 32 0
BBX 32 64 0 -12
BITMAP
00000000
00000000
00000000
00000000
00000000
00000000
00000000
00000000
00000000
00000000
0007E000
001FF800
003FFC00
007FFE00
00F81E00
00F00F00
00000F00
00000F00
00000F00
00001E00
00003E00
00007C00
0000F800
0001F000
0003E000
0007C000
000F8000
001F0000
003E0F00
007C0F00
00FFFF00
00FFFF00
00FFFF00
00FFFF00
00000000
00000000
00000000
00000000
00000000
00000000
00000000
00000000
00000000
00000000
00000000
00000000
00000000
00000000
00000000
00000000
00000000
00000000
00000000
00000000
00000000
00000000
00000000
00000000
00000000
00000000
00000000
00000000
00000000
00000000
ENDCHAR
STARTCHAR SUPERSCRIPT THREE
ENCODING 179
SWIDTH 500 0
DWIDTH 32 0
BBX 32 64 0 -12
BITMAP
00000000
00000000
00000000
00000000
00000000
00000000
00000000
00000000
00000000
00000000
0007E000
001FF800
003FFC00
007FFE00
00F81E00
00F00F00
00000F00
00000F00
00000F00
00001F00
0003FE00
0003FC00
0003FC00
0003FE00
00001F00
00000F00
00000F00
00000F00
00F00F00
00F81E00
007FFE00
003FFC00
001FF800
0007E000
00000000
00000000
00000000
00000000
00000000
00000000
00000000
00000000
00000000
00000000
00000000
00000000
00000000
00000000
00000000
00000000
00000000
00000000
00000000
00000000
00000000
00000000
00000000
00000000
00000000
00000000
00000000
00000000
00000000
00000000
ENDCHAR
STARTCHAR ACUTE ACCENT
ENCODING 180
SWIDTH 500 0
DWIDTH 32 0
BBX 32 64 0 -12
BITMAP
00000000
00000000
00000000
00000000
00000000
00000000
00000000
00000000
00000700
00000F00
00001F00
00003F00
00007E00
0000FC00
0001F800
0003F000
0007E000
000FC000
000F8000
000F0000
00000000
00000000
00000000
00000000
00000000
00000000
00000000
00000000
00000000
00000000
00000000
00000000
00000000
00000000
00000000
00000000
00000000
00000000
00000000
00000000
00000000
00000000
00000000
00000000
00000000
00000000
00000000
00000000
00000000
00000000
00000000
00000000
00000000
00000000
00000000
00000000
00000000
00000000
00000000
00000000
00000000
00000000
00000000
00000000
ENDCHAR
STARTCHAR MICRO SIGN
ENCODING 181
SWIDTH 500 0
DWIDTH 32 0
BBX 32 64 0 -12
BITMAP
00000000
00000000
00000000
00000000
00000000
00000000
00000000
00000000
00000000
00000000
00000000
00000000
00000000
00000000
00000000
00000000
00000000
00000000
00000000
00000000
00000000
00000000
00000000
00000000
0F000F00
0F000F00
0F000F00
0F000F00
0F000F00
0F000F00
0F000F00
0F000F00
0F000F00
0F000F00
0F000F00
0F000F00
0F000F00
0F000F00
0F000F00
0F000F00
0F000F00
0F000F00
0F000F00
0F000F00
0F000F00
0F000F00
0F801F80
0FC03FC0
0FFFFFFC
0FFFFFFC
0F7FF9FC
0F1FE07C
0F000000
0F000000
0F000000
0F000000
0F000000
0F000000
0F000000
0F000000
0F000000
0F000000
0F000000
0F000000
ENDCHAR
STARTCHAR PILCROW SIGN
ENCODING 182
SWIDTH 500 0
DWIDTH 32 0
BBX 32 64 0 -12
BITMAP
00000000
00000000
00000000
00000000
00000000
00000000
00000000
00000000
00000000
00000000
00000000
00000000
007FFFF0
01FFFFF0
03FFFFF0
07FFFFF0
07C3C0F0
0F83C0F0
0F03C0F0
0F03C0F0
0F03C0F0
0F03C0F0
0F03C0F0
0F03C0F0
0F03C0F0
0F03C0F0
0F83C0F0
07C3C0F0
07FFC0F0
03FFC0F0
01FFC0F0
007FC0F0
0003C0F0
0003C0F0
0003C0F0
0003C0F0
0003C0F0
0003C0F0
0003C0F0
0003C0F0
0003C0F0
0003C0F0
0003C0F0
0003C0F0
0003C0F0
0003C0F0
0003C0F0
0003C0F0
0003C0F0
0003C0F0
0003C0F0
0003C0F0
00000000
00000000
00000000
00000000
00000000
00000000
00000000
00000000
00000000
00000000
00000000
00000000
ENDCHAR
STARTCHAR MIDDLE DOT
ENCODING 183
SWIDTH 500 0
DWIDTH 32 0
BBX 32 64 0 -12
BITMAP
00000000
00000000
00000000
00000000
00000000
00000000
00000000
00000000
00000000
00000000
00000000
00000000
00000000
00000000
00000000
00000000
00000000
00000000
00000000
00000000
00000000
00000000
00000000
00000000
00000000
00000000
00000000
00000000
0003C000
0003C000
0003C000
0003C000
0003C000
0003C000
00000000
00000000
00000000
00000000
00000000
00000000
00000000
00000000
00000000
00000000
00000000
00000000
00000000
00000000
00000000
00000000
00000000
00000000
00000000
00000000
00000000
00000000
00000000
00000000
00000000
00000000
00000000
00000000
00000000
00000000
ENDCHAR
STARTCHAR CEDILLA
ENCODING 184
SWIDTH 500 0
DWIDTH 32 0
BBX 32 64 0 -12
BITMAP
00000000
00000000
00000000
00000000
00000000
00000000
00000000
00000000
00000000
00000000
00000000
00000000
00000000
00000000
00000000
00000000
00000000
00000000
00000000
00000000
00000000
00000000
00000000
00000000
00000000
00000000
00000000
00000000
00000000
00000000
00000000
00000000
00000000
00000000
00000000
00000000
00000000
00000000
00000000
00000000
00000000
00000000
00000000
00000000
00000000
00000000
00000000
00000000
00000000
00000000
00000000
00000000
0003C000
0003C000
0003C000
0003C000
0003C000
0003C000
0007C000
000F8000
003F8000
003F0000
003E0000
00380000
ENDCHAR
STARTCHAR SUPERSCRIPT ONE
ENCODING 185
SWIDTH 500 0
DWIDTH 32 0
BBX 32 64 0 -12
BITMAP
00000000
00000000
00000000
00000000
00000000
00000000
00000000
00000000
00000000
00000000
0003C000
0007C000
000FC000
001FC000
003FC000
003FC000
003BC000
0033C000
0003C000
0003C000
0003C000
0003C000
0003C000
0003C000
0003C000
0003C000
0003C000
0003C000
0003C000
0003C000
003FFC00
003FFC00
003FFC00
003FFC00
00000000
00000000
00000000
00000000
00000000
00000000
00000000
00000000
00000000
00000000
00000000
00000000
00000000
00000000
00000000
00000000
00000000
00000000
00000000
00000000
00000000
00000000
00000000
00000000
00000000
00000000
00000000
00000000
00000000
00000000
ENDCHAR
STARTCHAR MASCULINE ORDINAL INDICATOR
ENCODING 186
SWIDTH 500 0
DWIDTH 32 0
BBX 32 64 0 -12
BITMAP
00000000
00000000
00000000
00000000
00000000
00000000
00000000
00000000
00000000
00000000
0007E000
001FF800
003FFC00
007FFE00
007C3E00
00F81F00
00F00F00
00F00F00
00F00F00
00F00F00
00F00F00
00F00F00
00F81F00
007C3E00
007FFE00
003FFC00
001FF800
0007E000
00000000
00000000
00000000
00000000
00FFFF00
00FFFF00
00FFFF00
00FFFF00
00000000
00000000
00000000
00000000
00000000
00000000
00000000
00000000
00000000
00000000
00000000
00000000
00000000
00000000
00000000
00000000
00000000
00000000
00000000
00000000
00000000
00000000
00000000
00000000
00000000
00000000
00000000
00000000
ENDCHAR
STARTCHAR RIGHT-POINTING DOUBLE ANGLE QUOTATION MARK
ENCODING 187
SWIDTH 500 0
DWIDTH 32 0
BBX 32 64 0 -12
BITMAP
00000000
00000000
00000000
00000000
00000000
00000000
00000000
00000000
00000000
00000000
00000000
00000000
00000000
00000000
00000000
00000000
00000000
00000000
00000000
00000000
00000000
00000000
00000000
00000000
00000000
00000000
00000000
00000000
0FC3F000
07E1F800
03F0FC00
01F87E00
00FC3F00
007E1F80
003F0FC0
001F87E0
000FC3F0
0007E1F8
0007E1F8
000FC3F0
001F87E0
003F0FC0
007E1F80
00FC3F00
01F87E00
03F0FC00
07E1F800
0FC3F000
00000000
00000000
00000000
00000000
00000000
00000000
00000000
00000000
00000000
00000000
00000000
00000000
00000000
00000000
00000000
00000000
ENDCHAR
STARTCHAR VULGAR FRACTION ONE QUARTER
ENCODING 188
SWIDTH 500 0
DWIDTH 32 0
BBX 32 64 0 -12
BITMAP
00000000
00000000
00000000
00000000
03C00000
07C00000
0FC00000
1FC00000
3FC00000
3FC00000
3BC00000
33C00000
03C00000
03C00000
03C00000
03C00000
03C00000
03C00000
03C0003C
03C0007C
03C000FC
03C001FC
03C003F8
03C007F0
3FFC0FE0
3FFC1FC0
3FFC3F80
3FFC7F00
0000FE00
0001FC00
0003F800
0007F000
000FE000
001FC000
003F8000
007F0000
00FE0000
01FC0000
03FBC000
07F3C000
0FE3C000
1FC3C000
3F83C3C0
3F03C3C0
3E03C3C0
3C03C3C0
0003C3C0
0003C3C0
0003C3C0
0003C3C0
0003FFFC
0003FFFC
0003FFFC
0003FFFC
000003C0
000003C0
000003C0
000003C0
000003C0
000003C0
00000000
00000000
00000000
00000000
ENDCHAR
STARTCHAR VULGAR FRACTION ONE HALF
ENCODING 189
SWIDTH 500 0
DWIDTH 32 0
BBX 32 64 0 -12
BITMAP
00000000
00000000
00000000
00000000
03C00000
07C00000
0FC00000
1FC00000
3FC00000
3FC00000
3BC00000
33C00000
03C00000
03C00000
03C00000
03C00000
03C00000
03C00000
03C0003C
03C0007C
03C000FC
03C001FC
03C003F8
03C007F0
3FFC0FE0
3FFC1FC0
3FFC3F80
3FFC7F00
0000FE00
0001FC00
0003F800
0007F000
000FE000
001FC000
003F8000
007F0000
00FE1F80
01FC7FE0
03F8FFF0
07F1FFF8
0FE3E078
1FC3C03C
3F80003C
3F00003C
3E00003C
3C000078
000000F8
000001F0
000003E0
000007C0
00000F80
00001F00
00003E00
00007C00
0000F83C
0001F03C
0003FFFC
0003FFFC
0003FFFC
0003FFFC
00000000
00000000
00000000
00000000
ENDCHAR
STARTCHAR VULGAR FRACTION THREE QUARTERS
ENCODING 190
SWIDTH 500 0
DWIDTH 32 0
BBX 32 64 0 -12
BITMAP
00000000
00000000
00000000
00000000
01F80000
07FE0000
0FFF0000
1FFF8000
3E078000
3C03C000
0003C000
0003C000
0003C000
0007C000
00FF8000
00FF0000
00FF0000
00FF8000
0007C03C
0003C07C
0003C0FC
0003C1FC
3C03C3F8
3E0787F0
1FFF8FE0
0FFF1FC0
07FE3F80
01F87F00
0000FE00
0001FC00
0003F800
0007F000
000FE000
001FC000
003F8000
007F0000
00FE0000
01FC0000
03FBC000
07F3C000
0FE3C000
1FC3C000
3F83C3C0
3F03C3C0
3E03C3C0
3C03C3C0
0003C3C0
0003C3C0
0003C3C0
0003C3C0
0003FFFC
0003FFFC
0003FFFC
0003FFFC
000003C0
000003C0
000003C0
000003C0
000003C0
000003C0
00000000
00000000
00000000
00000000
ENDCHAR
STARTCHAR INVERTED QUESTION MARK
ENCODING 191
SWIDTH 500 0
DWIDTH 32 0
BBX 32 64 0 -12
BITMAP
00000000
00000000
00000000
00000000
00000000
00000000
00000000
00000000
00000000
00000000
00000000
00000000
0003C000
0003C000
0003C000
0003C000
0003C000
0003C000
00000000
00000000
00000000
00000000
00000000
00000000
0003C000
0003C000
0003C000
0003C000
00078000
00078000
000F0000
000F0000
001E0000
001E0000
003C0000
00780000
00F00000
01E00000
03C00000
07800000
0F000000
0F000000
0F000000
0F000000
0F0000F0
0F0000F0
0F8001F0
07C003E0
07FFFFE0
03FFFFC0
01FFFF80
007FFE00
00000000
00000000
00000000
00000000
00000000
00000000
00000000
00000000
00000000
00000000
00000000
00000000
ENDCHAR
STARTCHAR LATIN CAPITAL LETTER A WITH GRAVE
ENCODING 192
SWIDTH 500 0
DWIDTH 32 0
BBX 32 64 0 -12
BITMAP
00000000
00000000
003E0000
003F0000
001F8000
000FC000
0007E000
0003F000
0001F800
0000F800
00000000
00000000
007FFE00
01FFFF80
03FFFFC0
07FFFFE0
07C003E0
0F8001F0
0F0000F0
0F0000F0
0F0000F0
0F0000F0
0F0000F0
0F0000F0
0F0000F0
0F0000F0
0F0000F0
0F0000F0
0F0000F0
0F0000F0
0FFFFFF0
0FFFFFF0
0FFFFFF0
0FFFFFF0
0F0000F0
0F0000F0
0F0000F0
0F0000F0
0F0000F0
0F0000F0
0F0000F0
0F0000F0
0F0000F0
0F0000F0
0F0000F0
0F0000F0
0F0000F0
0F0000F0
0F0000F0
0F0000F0
0F0000F0
0F0000F0
00000000
00000000
00000000
00000000
00000000
00000000
00000000
00000000
00000000
00000000
00000000
00000000
ENDCHAR
STARTCHAR LATIN CAPITAL LETTER A WITH ACUTE
ENCODING 193
SWIDTH 500 0
DWIDTH 32 0
BBX 32 64 0 -12
BITMAP
00000000
00000000
00007C00
0000FC00
0001F800
0003F000
0007E000
000FC000
001F8000
001F0000
00000000
00000000
007FFE00
01FFFF80
03FFFFC0
07FFFFE0
07C003E0
0F8001F0
0F0000F0
0F0000F0
0F0000F0
0F0000F0
0F0000F0
0F0000F0
0F0000F0
0F0000F0
0F0000F0
0F0000F0
0F0000F0
0F0000F0
0FFFFFF0
0FFFFFF0
0FFFFFF0
0FFFFFF0
0F0000F0
0F0000F0
0F0000F0
0F0000F0
0F0000F0
0F0000F0
0F0000F0
0F0000F0
0F0000F0
0F0000F0
0F0000F0
0F0000F0
0F0000F0
0F0000F0
0F0000F0
0F0000F0
0F0000F0
0F0000F0
00000000
00000000
00000000
00000000
00000000
00000000
00000000
00000000
00000000
00000000
00000000
00000000
ENDCHAR
STARTCHAR LATIN CAPITAL LETTER A WITH CIRCUMFLEX
ENCODING 194
SWIDTH 500 0
DWIDTH 32 0
BBX 32 64 0 -12
BITMAP
0003C000
0007E000
000FF000
001FF800
003FFC00
007E7E00
00FC3F00
00F81F00
00000000
00000000
00000000
00000000
007FFE00
01FFFF80
03FFFFC0
07FFFFE0
07C003E0
0F8001F0
0F0000F0
0F0000F0
0F0000F0
0F0000F0
0F0000F0
0F0000F0
0F0000F0
0F0000F0
0F0000F0
0F0000F0
0F0000F0
0F0000F0
0FFFFFF0
0FFFFFF0
0FFFFFF0
0FFFFFF0
0F0000F0
0F0000F0
0F0000F0
0F0000F0
0F0000F0
0F0000F0
0F0000F0
0F0000F0
0F0000F0
0F0000F0
0F0000F0
0F0000F0
0F0000F0
0F0000F0
0F0000F0
0F0000F0
0F0000F0
0F0000F0
00000000
00000000
00000000
00000000
00000000
00000000
00000000
00000000
00000000
00000000
00000000
00000000
ENDCHAR
STARTCHAR LATIN CAPITAL LETTER A WITH TILDE
ENCODING 195
SWIDTH 500 0
DWIDTH 32 0
BBX 32 64 0 -12
BITMAP
00000000
00000000
007E00F0
01FF80F0
03FFC1F0
07FFE3F0
0FC7FFE0
0F83FFC0
0F01FF80
0F007E00
00000000
00000000
007FFE00
01FFFF80
03FFFFC0
07FFFFE0
07C003E0
0F8001F0
0F0000F0
0F0000F0
0F0000F0
0F0000F0
0F0000F0
0F0000F0
0F0000F0
0F0000F0
0F0000F0
0F0000F0
0F0000F0
0F0000F0
0FFFFFF0
0FFFFFF0
0FFFFFF0
0FFFFFF0
0F0000F0
0F0000F0
0F0000F0
0F0000F0
0F0000F0
0F0000F0
0F0000F0
0F0000F0
0F0000F0
0F0000F0
0F0000F0
0F0000F0
0F0000F0
0F0000F0
0F0000F0
0F0000F0
0F0000F0
0F0000F0
00000000
00000000
00000000
00000000
00000000
00000000
00000000
00000000
00000000
00000000
00000000
00000000
ENDCHAR
STARTCHAR LATIN CAPITAL LETTER A WITH DIAERESIS
ENCODING 196
SWIDTH 500 0
DWIDTH 32 0
BBX 32 64 0 -12
BITMAP
00000000
00000000
00F00F00
00F00F00
00F00F00
00F00F00
00F00F00
00F00F00
00000000
00000000
00000000
00000000
007FFE00
01FFFF80
03FFFFC0
07FFFFE0
07C003E0
0F8001F0
0F0000F0
0F0000F0
0F0000F0
0F0000F0
0F0000F0
0F0000F0
0F0000F0
0F0000F0
0F0000F0
0F0000F0
0F0000F0
0F0000F0
0FFFFFF0
0FFFFFF0
0FFFFFF0
0FFFFFF0
0F0000F0
0F0000F0
0F0000F0
0F0000F0
0F0000F0
0F0000F0
0F0000F0
0F0000F0
0F0000F0
0F0000F0
0F0000F0
0F0000F0
0F0000F0
0F0000F0
0F0000F0
0F0000F0
0F0000F0
0F0000F0
00000000
00000000
00000000
00000000
00000000
00000000
00000000
00000000
00000000
00000000
00000000
00000000
ENDCHAR
STARTCHAR LATIN CAPITAL LETTER A WITH RING ABOVE
ENCODING 197
SWIDTH 500 0
DWIDTH 32 0
BBX 32 64 0 -12
BITMAP
0003C000
0007E000
000FF000
001FF800
003C3C00
003C3C00
003C3C00
003C3C00
001FF800
000FF000
0007E000
0003C000
007FFE00
01FFFF80
03FFFFC0
07FFFFE0
07C003E0
0F8001F0
0F0000F0
0F0000F0
0F0000F0
0F0000F0
0F0000F0
0F0000F0
0F0000F0
0F0000F0
0F0000F0
0F0000F0
0F0000F0
0F0000F0
0FFFFFF0
0FFFFFF0
0FFFFFF0
0FFFFFF0
0F0000F0
0F0000F0
0F0000F0
0F0000F0
0F0000F0
0F0000F0
0F0000F0
0F0000F0
0F0000F0
0F0000F0
0F0000F0
0F0000F0
0F0000F0
0F0000F0
0F0000F0
0F0000F0
0F0000F0
0F0000F0
00000000
00000000
00000000
00000000
00000000
00000000
00000000
00000000
00000000
00000000
00000000
00000000
ENDCHAR
STARTCHAR LATIN CAPITAL LETTER AE
ENCODING 198
SWIDTH 500 0
DWIDTH 32 0
BBX 32 64 0 -12
BITMAP
00000000
00000000
00000000
00000000
00000000
00000000
00000000
00000000
00000000
00000000
00000000
00000000
007FFFF0
01FFFFF0
03FFFFF0
07FFFFF0
07C0F000
0F80F000
0F00F000
0F00F000
0F00F000
0F00F000
0F00F000
0F00F000
0F00F000
0F00F000
0F00F000
0F00F000
0F00F000
0F00F000
0FFFFFF0
0FFFFFF0
0FFFFFF0
0FFFFFF0
0F00F000
0F00F000
0F00F000
0F00F000
0F00F000
0F00F000
0F00F000
0F00F000
0F00F000
0F00F000
0F00F000
0F00F000
0F00F000
0F00F000
0F00FFF0
0F00FFF0
0F00FFF0
0F00FFF0
00000000
00000000
00000000
00000000
00000000
00000000
00000000
00000000
00000000
00000000
00000000
00000000
ENDCHAR
STARTCHAR LATIN CAPITAL LETTER C WITH CEDILLA
ENCODING 199
SWIDTH 500 0
DWIDTH 32 0
BBX 32 64 0 -12
BITMAP
00000000
00000000
00000000
00000000
00000000
00000000
00000000
00000000
00000000
00000000
00000000
00000000
007FFFF0
01FFFFF0
03FFFFF0
07FFFFF0
07C00000
0F800000
0F000000
0F000000
0F000000
0F000000
0F000000
0F000000
0F000000
0F000000
0F000000
0F000000
0F000000
0F000000
0F000000
0F000000
0F000000
0F000000
0F000000
0F000000
0F000000
0F000000
0F000000
0F000000
0F000000
0F000000
0F000000
0F000000
0F000000
0F000000
0F800000
07C00000
07FFFFF0
03FFFFF0
01FFFFF0
007FFFF0
0000F000
0000F000
0000F000
0000F000
0000F000
0000F000
0001F000
0003E000
000FE000
000FC000
000F8000
000E0000
ENDCHAR
STARTCHAR LATIN CAPITAL LETTER E WITH GRAVE
ENCODING 200
SWIDTH 500 0
DWIDTH 32 0
BBX 32 64 0 -12
BITMAP
00000000
00000000
003E0000
003F0000
001F8000
000FC000
0007E000
0003F000
0001F800
0000F800
00000000
00000000
007FFFF0
01FFFFF0
03FFFFF0
07FFFFF0
07C00000
0F800000
0F000000
0F000000
0F000000
0F000000
0F000000
0F000000
0F000000
0F000000
0F000000
0F000000
0F000000
0F000000
0FFFFC00
0FFFFC00
0FFFFC00
0FFFFC00
0F000000
0F000000
0F000000
0F000000
0F000000
0F000000
0F000000
0F000000
0F000000
0F000000
0F000000
0F000000
0F800000
07C00000
07FFFFF0
03FFFFF0
01FFFFF0
007FFFF0
00000000
00000000
00000000
00000000
00000000
00000000
00000000
00000000
00000000
00000000
00000000
00000000
ENDCHAR
STARTCHAR LATIN CAPITAL LETTER E WITH ACUTE
ENCODING 201
SWIDTH 500 0
DWIDTH 32 0
BBX 32 64 0 -12
BITMAP
00000000
00000000
00007C00
0000FC00
0001F800
0003F000
0007E000
000FC000
001F8000
001F0000
00000000
00000000
007FFFF0
01FFFFF0
03FFFFF0
07FFFFF0
07C00000
0F800000
0F000000
0F000000
0F000000
0F000000
0F000000
0F000000
0F000000
0F000000
0F000000
0F000000
0F000000
0F000000
0FFFFC00
0FFFFC00
0FFFFC00
0FFFFC00
0F000000
0F000000
0F000000
0F000000
0F000000
0F000000
0F000000
0F000000
0F000000
0F000000
0F000000
0F000000
0F800000
07C00000
07FFFFF0
03FFFFF0
01FFFFF0
007FFFF0
00000000
00000000
00000000
00000000
00000000
00000000
00000000
00000000
00000000
00000000
00000000
00000000
ENDCHAR
STARTCHAR LATIN CAPITAL LETTER E WITH CIRCUMFLEX
ENCODING 202
SWIDTH 500 0
DWIDTH 32 0
BBX 32 64 0 -12
BITMAP
0003C000
0007E000
000FF000
001FF800
003FFC00
007E7E00
00FC3F00
00F81F00
00000000
00000000
00000000
00000000
007FFFF0
01FFFFF0
03FFFFF0
07FFFFF0
07C00000
0F800000
0F000000
0F000000
0F000000
0F000000
0F000000
0F000000
0F000000
0F000000
0F000000
0F000000
0F000000
0F000000
0FFFFC00
0FFFFC00
0FFFFC00
0FFFFC00
0F000000
0F000000
0F000000
0F000000
0F000000
0F000000
0F000000
0F000000
0F000000
0F000000
0F000000
0F000000
0F800000
07C00000
07FFFFF0
03FFFFF0
01FFFFF0
007FFFF0
00000000
00000000
00000000
00000000
00000000
00000000
00000000
00000000
00000000
00000000
00000000
00000000
ENDCHAR
STARTCHAR LATIN CAPITAL LETTER E WITH DIAERESIS
ENCODING 203
SWIDTH 500 0
DWIDTH 32 0
BBX 32 64 0 -12
BITMAP
00000000
00000000
00F00F00
00F00F00
00F00F00
00F00F00
00F00F00
00F00F00
00000000
00000000
00000000
00000000
007FFFF0
01FFFFF0
03FFFFF0
07FFFFF0
07C00000
0F800000
0F000000
0F000000
0F000000
0F000000
0F000000
0F000000
0F000000
0F000000
0F000000
0F000000
0F000000
0F000000
0FFFFC00
0FFFFC00
0FFFFC00
0FFFFC00
0F000000
0F000000
0F000000
0F000000
0F000000
0F000000
0F000000
0F000000
0F000000
0F000000
0F000000
0F000000
0F800000
07C00000
07FFFFF0
03FFFFF0
01FFFFF0
007FFFF0
00000000
00000000
00000000
00000000
00000000
00000000
00000000
00000000
00000000
00000000
00000000
00000000
ENDCHAR
STARTCHAR LATIN CAPITAL LETTER I WITH GRAVE
ENCODING 204
SWIDTH 500 0
DWIDTH 32 0
BBX 32 64 0 -12
BITMAP
00000000
00000000
003E0000
003F0000
001F8000
000FC000
0007E000
0003F000
0001F800
0000F800
00000000
00000000
03FFFFC0
03FFFFC0
03FFFFC0
03FFFFC0
0003C000
0003C000
0003C000
0003C000
0003C000
0003C000
0003C000
0003C000
0003C000
0003C000
0003C000
0003C000
0003C000
0003C000
0003C000
0003C000
0003C000
0003C000
0003C000
0003C000
0003C000
0003C000
0003C000
0003C000
0003C000
0003C000
0003C000
0003C000
0003C000
0003C000
0003C000
0003C000
03FFFFC0
03FFFFC0
03FFFFC0
03FFFFC0
00000000
00000000
00000000
00000000
00000000
00000000
00000000
00000000
00000000
00000000
00000000
00000000
ENDCHAR
STARTCHAR LATIN CAPITAL LETTER I WITH ACUTE
ENCODING 205
SWIDTH 500 0
DWIDTH 32 0
BBX 32 64 0 -12
BITMAP
00000000
00000000
00007C00
0000FC00
0001F800
0003F000
0007E000
000FC000
001F8000
001F0000
00000000
00000000
03FFFFC0
03FFFFC0
03FFFFC0
03FFFFC0
0003C000
0003C000
0003C000
0003C000
0003C000
0003C000
0003C000
0003C000
0003C000
0003C000
0003C000
0003C000
0003C000
0003C000
0003C000
0003C000
0003C000
0003C000
0003C000
0003C000
0003C000
0003C000
0003C000
0003C000
0003C000
0003C000
0003C000
0003C000
0003C000
0003C000
0003C000
0003C000
03FFFFC0
03FFFFC0
03FFFFC0
03FFFFC0
00000000
00000000
00000000
00000000
00000000
00000000
00000000
00000000
00000000
00000000
00000000
00000000
ENDCHAR
STARTCHAR LATIN CAPITAL LETTER I WITH CIRCUMFLEX
ENCODING 206
SWIDTH 500 0
DWIDTH 32 0
BBX 32 64 0 -12
BITMAP
0003C000
0007E000
000FF000
001FF800
003FFC00
007E7E00
00FC3F00
00F81F00
00000000
00000000
00000000
00000000
03FFFFC0
03FFFFC0
03FFFFC0
03FFFFC0
0003C000
0003C000
0003C000
0003C000
0003C000
0003C000
0003C000
0003C000
0003C000
0003C000
0003C000
0003C000
0003C000
0003C000
0003C000
0003C000
0003C000
0003C000
0003C000
0003C000
0003C000
0003C000
0003C000
0003C000
0003C000
0003C000
0003C000
0003C000
0003C000
0003C000
0003C000
0003C000
03FFFFC0
03FFFFC0
03FFFFC0
03FFFFC0
00000000
00000000
00000000
00000000
00000000
00000000
00000000
00000000
00000000
00000000
00000000
00000000
ENDCHAR
STARTCHAR LATIN CAPITAL LETTER I WITH DIAERESIS
ENCODING 207
SWIDTH 500 0
DWIDTH 32 0
BBX 32 64 0 -12
BITMAP
00000000
00000000
00F00F00
00F00F00
00F00F00
00F00F00
00F00F00
00F00F00
00000000
00000000
00000000
00000000
03FFFFC0
03FFFFC0
03FFFFC0
03FFFFC0
0003C000
0003C000
0003C000
0003C000
0003C000
0003C000
0003C000
0003C000
0003C000
0003C000
0003C000
0003C000
0003C000
0003C000
0003C000
0003C000
0003C000
0003C000
0003C000
0003C000
0003C000
0003C000
0003C000
0003C000
0003C000
0003C000
0003C000
0003C000
0003C000
0003C000
0003C000
0003C000
03FFFFC0
03FFFFC0
03FFFFC0
03FFFFC0
00000000
00000000
00000000
00000000
00000000
00000000
00000000
00000000
00000000
00000000
00000000
00000000
ENDCHAR
STARTCHAR LATIN CAPITAL LETTER ETH
ENCODING 208
SWIDTH 500 0
DWIDTH 32 0
BBX 32 64 0 -12
BITMAP
00000000
00000000
00000000
00000000
00000000
00000000
00000000
00000000
00000000
00000000
00000000
00000000
0FFFFE00
0FFFFF80
0FFFFFC0
0FFFFFE0
0F0003E0
0F0001F0
0F0000F0
0F0000F0
0F0000F0
0F0000F0
0F0000F0
0F0000F0
0F0000F0
0F0000F0
0F0000F0
0F0000F0
0F0000F0
0F0000F0
FFFF00F0
FFFF00F0
FFFF00F0
FFFF00F0
0F0000F0
0F0000F0
0F0000F0
0F0000F0
0F0000F0
0F0000F0
0F0000F0
0F0000F0
0F0000F0
0F0000F0
0F0000F0
0F0000F0
0F0001F0
0F0003E0
0FFFFFE0
0FFFFFC0
0FFFFF80
0FFFFE00
00000000
00000000
00000000
00000000
00000000
00000000
00000000
00000000
00000000
00000000
00000000
00000000
ENDCHAR
STARTCHAR LATIN CAPITAL LETTER N WITH TILDE
ENCODING 209
SWIDTH 500 0
DWIDTH 32 0
BBX 32 64 0 -12
BITMAP
00000000
00000000
007E00F0
01FF80F0
03FFC1F0
07FFE3F0
0FC7FFE0
0F83FFC0
0F01FF80
0F007E00
00000000
00000000
0F0000F0
0F0000F0
0F8000F0
0F8000F0
0FC000F0
0FC000F0
0FE000F0
0FE000F0
0FF000F0
0FF000F0
0FF800F0
0FF800F0
0F7C00F0
0F7C00F0
0F3E00F0
0F3E00F0
0F1F00F0
0F1F00F0
0F0F80F0
0F0F80F0
0F07C0F0
0F07C0F0
0F03E0F0
0F03E0F0
0F01F0F0
0F01F0F0
0F00F8F0
0F00F8F0
0F007CF0
0F007CF0
0F003EF0
0F003EF0
0F001FF0
0F001FF0
0F000FF0
0F000FF0
0F0007F0
0F0007F0
0F0003F0
0F0003F0
00000000
00000000
00000000
00000000
00000000
00000000
00000000
00000000
00000000
00000000
00000000
00000000
ENDCHAR
STARTCHAR LATIN CAPITAL LETTER O WITH GRAVE
ENCODING 210
SWIDTH 500 0
DWIDTH 32 0
BBX 32 64 0 -12
BITMAP
00000000
00000000
003E0000
003F0000
001F8000
000FC000
0007E000
0003F000
0001F800
0000F800
00000000
00000000
007FFE00
01FFFF80
03FFFFC0
07FFFFE0
07C003E0
0F8001F0
0F0000F0
0F0000F0
0F0000F0
0F0000F0
0F0000F0
0F0000F0
0F0000F0
0F0000F0
0F0000F0
0F0000F0
0F0000F0
0F0000F0
0F0000F0
0F0000F0
0F0000F0
0F0000F0
0F0000F0
0F0000F0
0F0000F0
0F0000F0
0F0000F0
0F0000F0
0F0000F0
0F0000F0
0F0000F0
0F0000F0
0F0000F0
0F0000F0
0F8001F0
07C003E0
07FFFFE0
03FFFFC0
01FFFF80
007FFE00
00000000
00000000
00000000
00000000
00000000
00000000
00000000
00000000
00000000
00000000
00000000
00000000
ENDCHAR
STARTCHAR LATIN CAPITAL LETTER O WITH ACUTE
ENCODING 211
SWIDTH 500 0
DWIDTH 32 0
BBX 32 64 0 -12
BITMAP
00000000
00000000
00007C00
0000FC00
0001F800
0003F000
0007E000
000FC000
001F8000
001F0000
00000000
00000000
007FFE00
01FFFF80
03FFFFC0
07FFFFE0
07C003E0
0F8001F0
0F0000F0
0F0000F0
0F0000F0
0F0000F0
0F0000F0
0F0000F0
0F0000F0
0F0000F0
0F0000F0
0F0000F0
0F0000F0
0F0000F0
0F0000F0
0F0000F0
0F0000F0
0F0000F0
0F0000F0
0F0000F0
0F0000F0
0F0000F0
0F0000F0
0F0000F0
0F0000F0
0F0000F0
0F0000F0
0F0000F0
0F0000F0
0F0000F0
0F8001F0
07C003E0
07FFFFE0
03FFFFC0
01FFFF80
007FFE00
00000000
00000000
00000000
00000000
00000000
00000000
00000000
00000000
00000000
00000000
00000000
00000000
ENDCHAR
STARTCHAR LATIN CAPITAL LETTER O WITH CIRCUMFLEX
ENCODING 212
SWIDTH 500 0
DWIDTH 32 0
BBX 32 64 0 -12
BITMAP
0003C000
0007E000
000FF000
001FF800
003FFC00
007E7E00
00FC3F00
00F81F00
00000000
00000000
00000000
00000000
007FFE00
01FFFF80
03FFFFC0
07FFFFE0
07C003E0
0F8001F0
0F0000F0
0F0000F0
0F0000F0
0F0000F0
0F0000F0
0F0000F0
0F0000F0
0F0000F0
0F0000F0
0F0000F0
0F0000F0
0F0000F0
0F0000F0
0F0000F0
0F0000F0
0F0000F0
0F0000F0
0F0000F0
0F0000F0
0F0000F0
0F0000F0
0F0000F0
0F0000F0
0F0000F0
0F0000F0
0F0000F0
0F0000F0
0F0000F0
0F8001F0
07C003E0
07FFFFE0
03FFFFC0
01FFFF80
007FFE00
00000000
00000000
00000000
00000000
00000000
00000000
00000000
00000000
00000000
00000000
00000000
00000000
ENDCHAR
STARTCHAR LATIN CAPITAL LETTER O WITH TILDE
ENCODING 213
SWIDTH 500 0
DWIDTH 32 0
BBX 32 64 0 -12
BITMAP
00000000
00000000
007E00F0
01FF80F0
03FFC1F0
07FFE3F0
0FC7FFE0
0F83FFC0
0F01FF80
0F007E00
00000000
00000000
007FFE00
01FFFF80
03FFFFC0
07FFFFE0
07C003E0
0F8001F0
0F0000F0
0F0000F0
0F0000F0
0F0000F0
0F0000F0
0F0000F0
0F0000F0
0F0000F0
0F0000F0
0F0000F0
0F0000F0
0F0000F0
0F0000F0
0F0000F0
0F0000F0
0F0000F0
0F0000F0
0F0000F0
0F0000F0
0F0000F0
0F0000F0
0F0000F0
0F0000F0
0F0000F0
0F0000F0
0F0000F0
0F0000F0
0F0000F0
0F8001F0
07C003E0
07FFFFE0
03FFFFC0
01FFFF80
007FFE00
00000000
00000000
00000000
00000000
00000000
00000000
00000000
00000000
00000000
00000000
00000000
00000000
ENDCHAR
STARTCHAR LATIN CAPITAL LETTER O WITH DIAERESIS
ENCODING 214
SWIDTH 500 0
DWIDTH 32 0
BBX 32 64 0 -12
BITMAP
00000000
00000000
00F00F00
00F00F00
00F00F00
00F00F00
00F00F00
00F00F00
00000000
00000000
00000000
00000000
007FFE00
01FFFF80
03FFFFC0
07FFFFE0
07C003E0
0F8001F0
0F0000F0
0F0000F0
0F0000F0
0F0000F0
0F0000F0
0F0000F0
0F0000F0
0F0000F0
0F0000F0
0F0000F0
0F0000F0
0F0000F0
0F0000F0
0F0000F0
0F0000F0
0F0000F0
0F0000F0
0F0000F0
0F0000F0
0F0000F0
0F0000F0
0F0000F0
0F0000F0
0F0000F0
0F0000F0
0F0000F0
0F0000F0
0F0000F0
0F8001F0
07C003E0
07FFFFE0
03FFFFC0
01FFFF80
007FFE00
00000000
00000000
00000000
00000000
00000000
00000000
00000000
00000000
00000000
00000000
00000000
00000000
ENDCHAR
STARTCHAR MULTIPLICATION SIGN
ENCODING 215
SWIDTH 500 0
DWIDTH 32 0
BBX 32 64 0 -12
BITMAP
00000000
00000000
00000000
00000000
00000000
00000000
00000000
00000000
00000000
00000000
00000000
00000000
00000000
00000000
00000000
00000000
00000000
00000000
00000000
00000000
0E000070
0F0000F0
0F8001F0
0FC003F0
07E007E0
03F00FC0
01F81F80
00FC3F00
007E7E00
003FFC00
001FF800
000FF000
000FF000
001FF800
003FFC00
007E7E00
00FC3F00
01F81F80
03F00FC0
07E007E0
0FC003F0
0F8001F0
0F0000F0
0E000070
00000000
00000000
00000000
00000000
00000000
00000000
00000000
00000000
00000000
00000000
00000000
00000000
00000000
00000000
00000000
00000000
00000000
00000000
00000000
00000000
ENDCHAR
STARTCHAR LATIN CAPITAL LETTER O WITH STROKE
ENCODING 216
SWIDTH 500 0
DWIDTH 32 0
BBX 32 64 0 -12
BITMAP
00000000
00000000
00000000
00000000
00000000
00000000
00000000
00000000
000000F0
000000F0
000001F0
000001F0
007FFFE0
01FFFFE0
03FFFFC0
07FFFFE0
07C00FF0
0F800FF0
0F001FF0
0F001FF0
0F003EF0
0F003EF0
0F007CF0
0F007CF0
0F00F8F0
0F00F8F0
0F01F0F0
0F01F0F0
0F03E0F0
0F03E0F0
0F07C0F0
0F07C0F0
0F0F80F0
0F0F80F0
0F1F00F0
0F1F00F0
0F3E00F0
0F3E00F0
0F7C00F0
0F7C00F0
0FF800F0
0FF800F0
0FF000F0
0FF000F0
0FE000F0
0FE000F0
0FC001F0
0FC003E0
0FFFFFE0
0FFFFFC0
0FFFFF80
0FFFFE00
1E000000
1E000000
3C000000
3C000000
00000000
00000000
00000000
00000000
00000000
00000000
00000000
00000000
ENDCHAR
STARTCHAR LATIN CAPITAL LETTER U WITH GRAVE
ENCODING 217
SWIDTH 500 0
DWIDTH 32 0
BBX 32 64 0 -12
BITMAP
00000000
00000000
003E0000
003F0000
001F8000
000FC000
0007E000
0003F000
0001F800
0000F800
00000000
00000000
0F0000F0
0F0000F0
0F0000F0
0F0000F0
0F0000F0
0F0000F0
0F0000F0
0F0000F0
0F0000F0
0F0000F0
0F0000F0
0F0000F0
0F0000F0
0F0000F0
0F0000F0
0F0000F0
0F0000F0
0F0000F0
0F0000F0
0F0000F0
0F0000F0
0F0000F0
0F0000F0
0F0000F0
0F0000F0
0F0000F0
0F0000F0
0F0000F0
0F0000F0
0F0000F0
0F0000F0
0F0000F0
0F0000F0
0F0000F0
0F8000F0
07C000F0
07FFFFF0
03FFFFF0
01FFFFF0
007FFFF0
00000000
00000000
00000000
00000000
00000000
00000000
00000000
00000000
00000000
00000000
00000000
00000000
ENDCHAR
STARTCHAR LATIN CAPITAL LETTER U WITH ACUTE
ENCODING 218
SWIDTH 500 0
DWIDTH 32 0
BBX 32 64 0 -12
BITMAP
00000000
00000000
00007C00
0000FC00
0001F800
0003F000
0007E000
000FC000
001F8000
001F0000
00000000
00000000
0F0000F0
0F0000F0
0F0000F0
0F0000F0
0F0000F0
0F0000F0
0F0000F0
0F0000F0
0F0000F0
0F0000F0
0F0000F0
0F0000F0
0F0000F0
0F0000F0
0F0000F0
0F0000F0
0F0000F0
0F0000F0
0F0000F0
0F0000F0
0F0000F0
0F0000F0
0F0000F0
0F0000F0
0F0000F0
0F0000F0
0F0000F0
0F0000F0
0F0000F0
0F0000F0
0F0000F0
0F0000F0
0F0000F0
0F0000F0
0F8000F0
07C000F0
07FFFFF0
03FFFFF0
01FFFFF0
007FFFF0
00000000
00000000
00000000
00000000
00000000
00000000
00000000
00000000
00000000
00000000
00000000
00000000
ENDCHAR
STARTCHAR LATIN CAPITAL LETTER U WITH CIRCUMFLEX
ENCODING 219
SWIDTH 500 0
DWIDTH 32 0
BBX 32 64 0 -12
BITMAP
0003C000
0007E000
000FF000
001FF800
003FFC00
007E7E00
00FC3F00
00F81F00
00000000
00000000
00000000
00000000
0F0000F0
0F0000F0
0F0000F0
0F0000F0
0F0000F0
0F0000F0
0F0000F0
0F0000F0
0F0000F0
0F0000F0
0F0000F0
0F0000F0
0F0000F0
0F0000F0
0F0000F0
0F0000F0
0F0000F0
0F0000F0
0F0000F0
0F0000F0
0F0000F0
0F0000F0
0F0000F0
0F0000F0
0F0000F0
0F0000F0
0F0000F0
0F0000F0
0F0000F0
0F0000F0
0F0000F0
0F0000F0
0F0000F0
0F0000F0
0F8000F0
07C000F0
07FFFFF0
03FFFFF0
01FFFFF0
007FFFF0
00000000
00000000
00000000
00000000
00000000
00000000
00000000
00000000
00000000
00000000
00000000
00000000
ENDCHAR
STARTCHAR LATIN CAPITAL LETTER U WITH DIAERESIS
ENCODING 220
SWIDTH 500 0
DWIDTH 32 0
BBX 32 64 0 -12
BITMAP
00000000
00000000
00F00F00
00F00F00
00F00F00
00F00F00
00F00F00
00F00F00
00000000
00000000
00000000
00000000
0F0000F0
0F0000F0
0F0000F0
0F0000F0
0F0000F0
0F0000F0
0F0000F0
0F0000F0
0F0000F0
0F0000F0
0F0000F0
0F0000F0
0F0000F0
0F0000F0
0F0000F0
0F0000F0
0F0000F0
0F0000F0
0F0000F0
0F0000F0
0F0000F0
0F0000F0
0F0000F0
0F0000F0
0F0000F0
0F0000F0
0F0000F0
0F0000F0
0F0000F0
0F0000F0
0F0000F0
0F0000F0
0F0000F0
0F0000F0
0F8000F0
07C000F0
07FFFFF0
03FFFFF0
01FFFFF0
007FFFF0
00000000
00000000
00000000
00000000
00000000
00000000
00000000
00000000
00000000
00000000
00000000
00000000
ENDCHAR
STARTCHAR LATIN CAPITAL LETTER Y WITH ACUTE
ENCODING 221
SWIDTH 500 0
DWIDTH 32 0
BBX 32 64 0 -12
BITMAP
00000000
00000000
00007C00
0000FC00
0001F800
0003F000
0007E000
000FC000
001F8000
001F0000
00000000
00000000
0F0000F0
0F0000F0
0F0000F0
0F0000F0
0F0000F0
0F0000F0
0F0000F0
0F0000F0
0F0000F0
0F0000F0
0F0000F0
0F0000F0
0F0000F0
0F0000F0
0F0000F0
0F0000F0
0F8000F0
07C000F0
07FFFFF0
03FFFFF0
01FFFFF0
007FFFF0
000000F0
000000F0
000000F0
000000F0
000000F0
000000F0
000000F0
000000F0
000000F0
000000F0
000000F0
000000F0
000001F0
000003E0
0FFFFFE0
0FFFFFC0
0FFFFF80
0FFFFE00
00000000
00000000
00000000
00000000
00000000
00000000
00000000
00000000
00000000
00000000
00000000
00000000
ENDCHAR
STARTCHAR LATIN CAPITAL LETTER THORN
ENCODING 222
SWIDTH 500 0
DWIDTH 32 0
BBX 32 64 0 -12
BITMAP
00000000
00000000
00000000
00000000
00000000
00000000
00000000
00000000
00000000
00000000
00000000
00000000
00000000
00000000
00000000
00000000
0F000000
0F000000
0F000000
0F000000
0F000000
0F000000
0F000000
0F000000
0FFFFE00
0FFFFF80
0FFFFFC0
0FFFFFE0
0F0003E0
0F0001F0
0F0000F0
0F0000F0
0F0000F0
0F0000F0
0F0000F0
0F0000F0
0F0000F0
0F0000F0
0F0000F0
0F0000F0
0F0000F0
0F0000F0
0F0000F0
0F0000F0
0F0000F0
0F0000F0
0F0001F0
0F0003E0
0FFFFFE0
0FFFFFC0
0FFFFF80
0FFFFE00
0F000000
0F000000
0F000000
0F000000
0F000000
0F000000
0F000000
0F000000
00000000
00000000
00000000
00000000
ENDCHAR
STARTCHAR LATIN SMALL LETTER SHARP S
ENCODING 223
SWIDTH 500 0
DWIDTH 32 0
BBX 32 64 0 -12
BITMAP
00000000
00000000
00000000
00000000
00000000
00000000
00000000
00000000
00000000
00000000
00000000
00000000
007FE000
01FFF800
03FFFC00
07FFFE00
07C03E00
0F801F00
0F000F00
0F000F00
0F000F00
0F000F00
0F000F00
0F000F00
0F000F00
0F000F00
0F001F00
0F003F00
0FFFFE00
0FFFFC00
0FFFF800
0FFFF000
0F03FC00
0F00FF00
0F003FC0
0F000FE0
0F0003F0
0F0001F0
0F0000F0
0F0000F0
0F0000F0
0F0000F0
0F0000F0
0F8000F0
0FC000F0
0FE000F0
0FF001F0
0FFC03E0
0F7FFFE0
0F3FFFC0
0F1FFF80
0F0FFE00
00000000
00000000
00000000
00000000
00000000
00000000
00000000
00000000
00000000
00000000
00000000
00000000
ENDCHAR
STARTCHAR LATIN SMALL LETTER A WITH GRAVE
ENCODING 224
SWIDTH 500 0
DWIDTH 32 0
BBX 32 64 0 -12
BITMAP
00000000
00000000
00000000
00000000
00000000
00000000
00000000
00000000
00380000
003C0000
003E0000
003F0000
001F8000
000FC000
0007E000
0003F000
0001F800
0000FC00
00007C00
00003C00
00000000
00000000
00000000
00000000
03FFFE00
03FFFF80
03FFFFC0
03FFFFE0
000003E0
000001F0
000000F0
000000F0
000000F0
000000F0
007FFFF0
01FFFFF0
03FFFFF0
07FFFFF0
07C000F0
0F8000F0
0F0000F0
0F0000F0
0F0000F0
0F0000F0
0F0000F0
0F0000F0
0F8000F0
07C000F0
07FFFFF0
03FFFFF0
01FFFFF0
007FFFF0
00000000
00000000
00000000
00000000
00000000
00000000
00000000
00000000
00000000
00000000
00000000
00000000
ENDCHAR
STARTCHAR LATIN SMALL LETTER A WITH ACUTE
ENCODING 225
SWIDTH 500 0
DWIDTH 32 0
BBX 32 64 0 -12
BITMAP
00000000
00000000
00000000
00000000
00000000
00000000
00000000
00000000
00000700
00000F00
00001F00
00003F00
00007E00
0000FC00
0001F800
0003F000
0007E000
000FC000
000F8000
000F0000
00000000
00000000
00000000
00000000
03FFFE00
03FFFF80
03FFFFC0
03FFFFE0
000003E0
000001F0
000000F0
000000F0
000000F0
000000F0
007FFFF0
01FFFFF0
03FFFFF0
07FFFFF0
07C000F0
0F8000F0
0F0000F0
0F0000F0
0F0000F0
0F0000F0
0F0000F0
0F0000F0
0F8000F0
07C000F0
07FFFFF0
03FFFFF0
01FFFFF0
007FFFF0
00000000
00000000
00000000
00000000
00000000
00000000
00000000
00000000
00000000
00000000
00000000
00000000
ENDCHAR
STARTCHAR LATIN SMALL LETTER A WITH CIRCUMFLEX
ENCODING 226
SWIDTH 500 0
DWIDTH 32 0
BBX 32 64 0 -12
BITMAP
00000000
00000000
00000000
00000000
00000000
00000000
00000000
00000000
0003C000
0007E000
000FF000
001FF800
003FFC00
007E7E00
00FC3F00
01F81F80
03F00FC0
03E007C0
03C003C0
038001C0
00000000
00000000
00000000
00000000
03FFFE00
03FFFF80
03FFFFC0
03FFFFE0
000003E0
000001F0
000000F0
000000F0
000000F0
000000F0
007FFFF0
01FFFFF0
03FFFFF0
07FFFFF0
07C000F0
0F8000F0
0F0000F0
0F0000F0
0F0000F0
0F0000F0
0F0000F0
0F0000F0
0F8000F0
07C000F0
07FFFFF0
03FFFFF0
01FFFFF0
007FFFF0
00000000
00000000
00000000
00000000
00000000
00000000
00000000
00000000
00000000
00000000
00000000
00000000
ENDCHAR
STARTCHAR LATIN SMALL LETTER A WITH TILDE
ENCODING 227
SWIDTH 500 0
DWIDTH 32 0
BBX 32 64 0 -12
BITMAP
00000000
00000000
00000000
00000000
00000000
00000000
00000000
00000000
007800F0
01FE00F0
03FF00F0
07FF80F0
0FCFC1F0
0F87E3F0
0F03FFE0
0F01FFC0
0F00FF80
0F003E00
00000000
00000000
00000000
00000000
00000000
00000000
03FFFE00
03FFFF80
03FFFFC0
03FFFFE0
000003E0
000001F0
000000F0
000000F0
000000F0
000000F0
007FFFF0
01FFFFF0
03FFFFF0
07FFFFF0
07C000F0
0F8000F0
0F0000F0
0F0000F0
0F0000F0
0F0000F0
0F0000F0
0F0000F0
0F8000F0
07C000F0
07FFFFF0
03FFFFF0
01FFFFF0
007FFFF0
00000000
00000000
00000000
00000000
00000000
00000000
00000000
00000000
00000000
00000000
00000000
00000000
ENDCHAR
STARTCHAR LATIN SMALL LETTER A WITH DIAERESIS
ENCODING 228
SWIDTH 500 0
DWIDTH 32 0
BBX 32 64 0 -12
BITMAP
00000000
00000000
00000000
00000000
00000000
00000000
00000000
00000000
00000000
00000000
00000000
00000000
00F00F00
00F00F00
00F00F00
00F00F00
00F00F00
00F00F00
00000000
00000000
00000000
00000000
00000000
00000000
03FFFE00
03FFFF80
03FFFFC0
03FFFFE0
000003E0
000001F0
000000F0
000000F0
000000F0
000000F0
007FFFF0
01FFFFF0
03FFFFF0
07FFFFF0
07C000F0
0F8000F0
0F0000F0
0F0000F0
0F0000F0
0F0000F0
0F0000F0
0F0000F0
0F8000F0
07C000F0
07FFFFF0
03FFFFF0
01FFFFF0
007FFFF0
00000000
00000000
00000000
00000000
00000000
00000000
00000000
00000000
00000000
00000000
00000000
00000000
ENDCHAR
STARTCHAR LATIN SMALL LETTER A WITH RING ABOVE
ENCODING 229
SWIDTH 500 0
DWIDTH 32 0
BBX 32 64 0 -12
BITMAP
00000000
00000000
00000000
00000000
00000000
00000000
0001E000
0007F800
000FFC00
001FFE00
001E1E00
003C0F00
003C0F00
003C0F00
003C0F00
001E1E00
001FFE00
000FFC00
0007F800
0001E000
00000000
00000000
00000000
00000000
03FFFE00
03FFFF80
03FFFFC0
03FFFFE0
000003E0
000001F0
000000F0
000000F0
000000F0
000000F0
007FFFF0
01FFFFF0
03FFFFF0
07FFFFF0
07C000F0
0F8000F0
0F0000F0
0F0000F0
0F0000F0
0F0000F0
0F0000F0
0F0000F0
0F8000F0
07C000F0
07FFFFF0
03FFFFF0
01FFFFF0
007FFFF0
00000000
00000000
00000000
00000000
00000000
00000000
00000000
00000000
00000000
00000000
00000000
00000000
ENDCHAR
STARTCHAR LATIN SMALL LETTER AE
ENCODING 230
SWIDTH 500 0
DWIDTH 32 0
BBX 32 64 0 -12
BITMAP
00000000
00000000
00000000
00000000
00000000
00000000
00000000
00000000
00000000
00000000
00000000
00000000
00000000
00000000
00000000
00000000
00000000
00000000
00000000
00000000
00000000
00000000
00000000
00000000
03FF0FFF
03FF9FFF
03FFFFFF
03FFFFFF
0003FC0F
0001F80F
0000F00F
0000F00F
0000F00F
0000F00F
007FF00F
01FFF00F
03FFFFFF
07FFFFFF
07C0FFFF
0F80FFFF
0F00F000
0F00F000
0F00F000
0F00F000
0F00F000
0F00F000
0F81F800
07C3FC00
07FFFFFF
03FFFFFF
01FF9FFF
007F0FFF
00000000
00000000
00000000
00000000
00000000
00000000
00000000
00000000
00000000
00000000
00000000
00000000
ENDCHAR
STARTCHAR LATIN SMALL LETTER C WITH CEDILLA
ENCODING 231
SWIDTH 500 0
DWIDTH 32 0
BBX 32 64 0 -12
BITMAP
00000000
00000000
00000000
00000000
00000000
00000000
00000000
00000000
00000000
00000000
00000000
00000000
00000000
00000000
00000000
00000000
00000000
00000000
00000000
00000000
00000000
00000000
00000000
00000000
007FFFF0
01FFFFF0
03FFFFF0
07FFFFF0
07C00000
0F800000
0F000000
0F000000
0F000000
0F000000
0F000000
0F000000
0F000000
0F000000
0F000000
0F000000
0F000000
0F000000
0F000000
0F000000
0F000000
0F000000
0F800000
07C00000
07FFFFF0
03FFFFF0
01FFFFF0
007FFFF0
0000F000
0000F000
0000F000
0000F000
0000F000
0000F000
0001F000
0003E000
000FE000
000FC000
000F8000
000E0000
ENDCHAR
STARTCHAR LATIN SMALL LETTER E WITH GRAVE
ENCODING 232
SWIDTH 500 0
DWIDTH 32 0
BBX 32 64 0 -12
BITMAP
00000000
00000000
00000000
00000000
00000000
00000000
00000000
00000000
00380000
003C0000
003E0000
003F0000
001F8000
000FC000
0007E000
0003F000
0001F800
0000FC00
00007C00
00003C00
00000000
00000000
00000000
00000000
007FFFF0
01FFFFF0
03FFFFF0
07FFFFF0
07C000F0
0F8000F0
0F0000F0
0F0000F0
0F0000F0
0F0000F0
0F0000F0
0F0000F0
0FFFFFF0
0FFFFFF0
0FFFFFF0
0FFFFFF0
0F000000
0F000000
0F000000
0F000000
0F000000
0F000000
0F800000
07C00000
07FFFFF0
03FFFFF0
01FFFFF0
007FFFF0
00000000
00000000
00000000
00000000
00000000
00000000
00000000
00000000
00000000
00000000
00000000
00000000
ENDCHAR
STARTCHAR LATIN SMALL LETTER E WITH ACUTE
ENCODING 233
SWIDTH 500 0
DWIDTH 32 0
BBX 32 64 0 -12
BITMAP
00000000
00000000
00000000
00000000
00000000
00000000
00000000
00000000
00000700
00000F00
00001F00
00003F00
00007E00
0000FC00
0001F800
0003F000
0007E000
000FC000
000F8000
000F0000
00000000
00000000
00000000
00000000
007FFFF0
01FFFFF0
03FFFFF0
07FFFFF0
07C000F0
0F8000F0
0F0000F0
0F0000F0
0F0000F0
0F0000F0
0F0000F0
0F0000F0
0FFFFFF0
0FFFFFF0
0FFFFFF0
0FFFFFF0
0F000000
0F000000
0F000000
0F000000
0F000000
0F000000
0F800000
07C00000
07FFFFF0
03FFFFF0
01FFFFF0
007FFFF0
00000000
00000000
00000000
00000000
00000000
00000000
00000000
00000000
00000000
00000000
00000000
00000000
ENDCHAR
STARTCHAR LATIN SMALL LETTER E WITH CIRCUMFLEX
ENCODING 234
SWIDTH 500 0
DWIDTH 32 0
BBX 32 64 0 -12
BITMAP
00000000
00000000
00000000
00000000
00000000
00000000
00000000
00000000
0003C000
0007E000
000FF000
001FF800
003FFC00
007E7E00
00FC3F00
01F81F80
03F00FC0
03E007C0
03C003C0
038001C0
00000000
00000000
00000000
00000000
007FFFF0
01FFFFF0
03FFFFF0
07FFFFF0
07C000F0
0F8000F0
0F0000F0
0F0000F0
0F0000F0
0F0000F0
0F0000F0
0F0000F0
0FFFFFF0
0FFFFFF0
0FFFFFF0
0FFFFFF0
0F000000
0F000000
0F000000
0F000000
0F000000
0F000000
0F800000
07C00000
07FFFFF0
03FFFFF0
01FFFFF0
007FFFF0
00000000
00000000
00000000
00000000
00000000
00000000
00000000
00000000
00000000
00000000
00000000
00000000
ENDCHAR
STARTCHAR LATIN SMALL LETTER E WITH DIAERESIS
ENCODING 235
SWIDTH 500 0
DWIDTH 32 0
BBX 32 64 0 -12
BITMAP
00000000
00000000
00000000
00000000
00000000
00000000
00000000
00000000
00000000
00000000
00000000
00000000
00F00F00
00F00F00
00F00F00
00F00F00
00F00F00
00F00F00
00000000
00000000
00000000
00000000
00000000
00000000
007FFFF0
01FFFFF0
03FFFFF0
07FFFFF0
07C000F0
0F8000F0
0F0000F0
0F0000F0
0F0000F0
0F0000F0
0F0000F0
0F0000F0
0FFFFFF0
0FFFFFF0
0FFFFFF0
0FFFFFF0
0F000000
0F000000
0F000000
0F000000
0F000000
0F000000
0F800000
07C00000
07FFFFF0
03FFFFF0
01FFFFF0
007FFFF0
00000000
00000000
00000000
00000000
00000000
00000000
00000000
00000000
00000000
00000000
00000000
00000000
ENDCHAR
STARTCHAR LATIN SMALL LETTER I WITH GRAVE
ENCODING 236
SWIDTH 500 0
DWIDTH 32 0
BBX 32 64 0 -12
BITMAP
00000000
00000000
00000000
00000000
00000000
00000000
00000000
00000000
00380000
003C0000
003E0000
003F0000
001F8000
000FC000
0007E000
0003F000
0001F800
0000FC00
00007C00
00003C00
00000000
00000000
00000000
00000000
003FC000
003FC000
003FC000
003FC000
0003C000
0003C000
0003C000
0003C000
0003C000
0003C000
0003C000
0003C000
0003C000
0003C000
0003C000
0003C000
0003C000
0003C000
0003C000
0003C000
0003C000
0003C000
0003C000
0003C000
0003FC00
0003FC00
0003FC00
0003FC00
00000000
00000000
00000000
00000000
00000000
00000000
00000000
00000000
00000000
00000000
00000000
00000000
ENDCHAR
STARTCHAR LATIN SMALL LETTER I WITH ACUTE
ENCODING 237
SWIDTH 500 0
DWIDTH 32 0
BBX 32 64 0 -12
BITMAP
00000000
00000000
00000000
00000000
00000000
00000000
00000000
00000000
00001C00
00003C00
00007C00
0000FC00
0001F800
0003F000
0007E000
000FC000
001F8000
003F0000
003E0000
003C0000
00000000
00000000
00000000
00000000
003FC000
003FC000
003FC000
003FC000
0003C000
0003C000
0003C000
0003C000
0003C000
0003C000
0003C000
0003C000
0003C000
0003C000
0003C000
0003C000
0003C000
0003C000
0003C000
0003C000
0003C000
0003C000
0003C000
0003C000
0003FC00
0003FC00
0003FC00
0003FC00
00000000
00000000
00000000
00000000
00000000
00000000
00000000
00000000
00000000
00000000
00000000
00000000
ENDCHAR
STARTCHAR LATIN SMALL LETTER I WITH CIRCUMFLEX
ENCODING 238
SWIDTH 500 0
DWIDTH 32 0
BBX 32 64 0 -12
BITMAP
00000000
00000000
00000000
00000000
00000000
00000000
00000000
00000000
0003C000
0007E000
000FF000
001FF800
003FFC00
007E7E00
00FC3F00
01F81F80
03F00FC0
03E007C0
03C003C0
038001C0
00000000
00000000
00000000
00000000
003FC000
003FC000
003FC000
003FC000
0003C000
0003C000
0003C000
0003C000
0003C000
0003C000
0003C000
0003C000
0003C000
0003C000
0003C000
0003C000
0003C000
0003C000
0003C000
0003C000
0003C000
0003C000
0003C000
0003C000
0003FC00
0003FC00
0003FC00
0003FC00
00000000
00000000
00000000
00000000
00000000
00000000
00000000
00000000
00000000
00000000
00000000
00000000
ENDCHAR
STARTCHAR LATIN SMALL LETTER I WITH DIAERESIS
ENCODING 239
SWIDTH 500 0
DWIDTH 32 0
BBX 32 64 0 -12
BITMAP
00000000
00000000
00000000
00000000
00000000
00000000
00000000
00000000
00000000
00000000
00000000
00000000
00F00F00
00F00F00
00F00F00
00F00F00
00F00F00
00F00F00
00000000
00000000
00000000
00000000
00000000
00000000
003FC000
003FC000
003FC000
003FC000
0003C000
0003C000
0003C000
0003C000
0003C000
0003C000
0003C000
0003C000
0003C000
0003C000
0003C000
0003C000
0003C000
0003C000
0003C000
0003C000
0003C000
0003C000
0003C000
0003C000
0003FC00
0003FC00
0003FC00
0003FC00
00000000
00000000
00000000
00000000
00000000
00000000
00000000
00000000
00000000
00000000
00000000
00000000
ENDCHAR
STARTCHAR LATIN SMALL LETTER ETH
ENCODING 240
SWIDTH 500 0
DWIDTH 32 0
BBX 32 64 0 -12
BITMAP
00000000
00000000
00000000
00000000
00000000
00000000
00000000
00000000
00000000
00000000
03C3C000
03E7C000
03FFC000
01FF8000
00FF0000
007E0000
00FF0000
01FF8000
03FFC000
03F7E000
03E3F000
03C1F800
0000FC00
00007E00
007FFF00
01FFFF80
03FFFFC0
07FFFFE0
07C003E0
0F8001F0
0F0000F0
0F0000F0
0F0000F0
0F0000F0
0F0000F0
0F0000F0
0F0000F0
0F0000F0
0F0000F0
0F0000F0
0F0000F0
0F0000F0
0F0000F0
0F0000F0
0F0000F0
0F0000F0
0F8001F0
07C003E0
07FFFFE0
03FFFFC0
01FFFF80
007FFE00
00000000
00000000
00000000
00000000
00000000
00000000
00000000
00000000
00000000
00000000
00000000
00000000
ENDCHAR
STARTCHAR LATIN SMALL LETTER N WITH TILDE
ENCODING 241
SWIDTH 500 0
DWIDTH 32 0
BBX 32 64 0 -12
BITMAP
00000000
00000000
00000000
00000000
00000000
00000000
00000000
00000000
007800F0
01FE00F0
03FF00F0
07FF80F0
0FCFC1F0
0F87E3F0
0F03FFE0
0F01FFC0
0F00FF80
0F003E00
00000000
00000000
00000000
00000000
00000000
00000000
0FFFFE00
0FFFFF80
0FFFFFC0
0FFFFFE0
0F0003E0
0F0001F0
0F0000F0
0F0000F0
0F0000F0
0F0000F0
0F0000F0
0F0000F0
0F0000F0
0F0000F0
0F0000F0
0F0000F0
0F0000F0
0F0000F0
0F0000F0
0F0000F0
0F0000F0
0F0000F0
0F0000F0
0F0000F0
0F0000F0
0F0000F0
0F0000F0
0F0000F0
00000000
00000000
00000000
00000000
00000000
00000000
00000000
00000000
00000000
00000000
00000000
00000000
ENDCHAR
STARTCHAR LATIN SMALL LETTER O WITH GRAVE
ENCODING 242
SWIDTH 500 0
DWIDTH 32 0
BBX 32 64 0 -12
BITMAP
00000000
00000000
00000000
00000000
00000000
00000000
00000000
00000000
00380000
003C0000
003E0000
003F0000
001F8000
000FC000
0007E000
0003F000
0001F800
0000FC00
00007C00
00003C00
00000000
00000000
00000000
00000000
007FFE00
01FFFF80
03FFFFC0
07FFFFE0
07C003E0
0F8001F0
0F0000F0
0F0000F0
0F0000F0
0F0000F0
0F0000F0
0F0000F0
0F0000F0
0F0000F0
0F0000F0
0F0000F0
0F0000F0
0F0000F0
0F0000F0
0F0000F0
0F0000F0
0F0000F0
0F8001F0
07C003E0
07FFFFE0
03FFFFC0
01FFFF80
007FFE00
00000000
00000000
00000000
00000000
00000000
00000000
00000000
00000000
00000000
00000000
00000000
00000000
ENDCHAR
STARTCHAR LATIN SMALL LETTER O WITH ACUTE
ENCODING 243
SWIDTH 500 0
DWIDTH 32 0
BBX 32 64 0 -12
BITMAP
00000000
00000000
00000000
00000000
00000000
00000000
00000000
00000000
00001C00
00003C00
00007C00
0000FC00
0001F800
0003F000
0007E000
000FC000
001F8000
003F0000
003E0000
003C0000
00000000
00000000
00000000
00000000
007FFE00
01FFFF80
03FFFFC0
07FFFFE0
07C003E0
0F8001F0
0F0000F0
0F0000F0
0F0000F0
0F0000F0
0F0000F0
0F0000F0
0F0000F0
0F0000F0
0F0000F0
0F0000F0
0F0000F0
0F0000F0
0F0000F0
0F0000F0
0F0000F0
0F0000F0
0F8001F0
07C003E0
07FFFFE0
03FFFFC0
01FFFF80
007FFE00
00000000
00000000
00000000
00000000
00000000
00000000
00000000
00000000
00000000
00000000
00000000
00000000
ENDCHAR
STARTCHAR LATIN SMALL LETTER O WITH CIRCUMFLEX
ENCODING 244
SWIDTH 500 0
DWIDTH 32 0
BBX 32 64 0 -12
BITMAP
00000000
00000000
00000000
00000000
00000000
00000000
00000000
00000000
0003C000
0007E000
000FF000
001FF800
003FFC00
007E7E00
00FC3F00
01F81F80
03F00FC0
03E007C0
03C003C0
038001C0
00000000
00000000
00000000
00000000
007FFE00
01FFFF80
03FFFFC0
07FFFFE0
07C003E0
0F8001F0
0F0000F0
0F0000F0
0F0000F0
0F0000F0
0F0000F0
0F0000F0
0F0000F0
0F0000F0
0F0000F0
0F0000F0
0F0000F0
0F0000F0
0F0000F0
0F0000F0
0F0000F0
0F0000F0
0F8001F0
07C003E0
07FFFFE0
03FFFFC0
01FFFF80
007FFE00
00000000
00000000
00000000
00000000
00000000
00000000
00000000
00000000
00000000
00000000
00000000
00000000
ENDCHAR
STARTCHAR LATIN SMALL LETTER O WITH TILDE
ENCODING 245
SWIDTH 500 0
DWIDTH 32 0
BBX 32 64 0 -12
BITMAP
00000000
00000000
00000000
00000000
00000000
00000000
00000000
00000000
007800F0
01FE00F0
03FF00F0
07FF80F0
0FCFC1F0
0F87E3F0
0F03FFE0
0F01FFC0
0F00FF80
0F003E00
00000000
00000000
00000000
00000000
00000000
00000000
007FFE00
01FFFF80
03FFFFC0
07FFFFE0
07C003E0
0F8001F0
0F0000F0
0F0000F0
0F0000F0
0F0000F0
0F0000F0
0F0000F0
0F0000F0
0F0000F0
0F0000F0
0F0000F0
0F0000F0
0F0000F0
0F0000F0
0F0000F0
0F0000F0
0F0000F0
0F8001F0
07C003E0
07FFFFE0
03FFFFC0
01FFFF80
007FFE00
00000000
00000000
00000000
00000000
00000000
00000000
00000000
00000000
00000000
00000000
00000000
00000000
ENDCHAR
STARTCHAR LATIN SMALL LETTER O WITH DIAERESIS
ENCODING 246
SWIDTH 500 0
DWIDTH 32 0
BBX 32 64 0 -12
BITMAP
00000000
00000000
00000000
00000000
00000000
00000000
00000000
00000000
00000000
00000000
00000000
00000000
00F00F00
00F00F00
00F00F00
00F00F00
00F00F00
00F00F00
00000000
00000000
00000000
00000000
00000000
00000000
007FFE00
01FFFF80
03FFFFC0
07FFFFE0
07C003E0
0F8001F0
0F0000F0
0F0000F0
0F0000F0
0F0000F0
0F0000F0
0F0000F0
0F0000F0
0F0000F0
0F0000F0
0F0000F0
0F0000F0
0F0000F0
0F0000F0
0F0000F0
0F0000F0
0F0000F0
0F8001F0
07C003E0
07FFFFE0
03FFFFC0
01FFFF80
007FFE00
00000000
00000000
00000000
00000000
00000000
00000000
00000000
00000000
00000000
00000000
00000000
00000000
ENDCHAR
STARTCHAR DIVISION SIGN
ENCODING 247
SWIDTH 500 0
DWIDTH 32 0
BBX 32 64 0 -12
BITMAP
00000000
00000000
00000000
00000000
00000000
00000000
00000000
00000000
00000000
00000000
00000000
00000000
00000000
00000000
00000000
00000000
00000000
00000000
00000000
00000000
00000000
00000000
0003C000
0003C000
0003C000
0003C000
0003C000
0003C000
00000000
00000000
00000000
00000000
03FFFFC0
03FFFFC0
03FFFFC0
03FFFFC0
00000000
00000000
00000000
00000000
0003C000
0003C000
0003C000
0003C000
0003C000
0003C000
00000000
00000000
00000000
00000000
00000000
00000000
00000000
00000000
00000000
00000000
00000000
00000000
00000000
00000000
00000000
00000000
00000000
00000000
ENDCHAR
STARTCHAR LATIN SMALL LETTER O WITH STROKE
ENCODING 248
SWIDTH 500 0
DWIDTH 32 0
BBX 32 64 0 -12
BITMAP
00000000
00000000
00000000
00000000
00000000
00000000
00000000
00000000
00000000
00000000
00000000
00000000
00000000
00000000
00000000
00000000
00000000
00000000
00000000
00000000
00000000
00000000
00000000
00000000
007FFE1C
01FFFFBC
03FFFFFC
07FFFFF8
07C003F0
0F8003F0
0F0007F0
0F000FF0
0F001FF0
0F003FF0
0F007EF0
0F00FCF0
0F01F8F0
0F03F0F0
0F07E0F0
0F0FC0F0
0F1F80F0
0F3F00F0
0F7E00F0
0FFC00F0
0FF800F0
0FF000F0
0FE001F0
0FC003E0
1FFFFFE0
3FFFFFC0
3DFFFF80
387FFE00
00000000
00000000
00000000
00000000
00000000
00000000
00000000
00000000
00000000
00000000
00000000
00000000
ENDCHAR
STARTCHAR LATIN SMALL LETTER U WITH GRAVE
ENCODING 249
SWIDTH 500 0
DWIDTH 32 0
BBX 32 64 0 -12
BITMAP
00000000
00000000
00000000
00000000
00000000
00000000
00000000
00000000
00380000
003C0000
003E0000
003F0000
001F8000
000FC000
0007E000
0003F000
0001F800
0000FC00
00007C00
00003C00
00000000
00000000
00000000
00000000
0F0000F0
0F0000F0
0F0000F0
0F0000F0
0F0000F0
0F0000F0
0F0000F0
0F0000F0
0F0000F0
0F0000F0
0F0000F0
0F0000F0
0F0000F0
0F0000F0
0F0000F0
0F0000F0
0F0000F0
0F0000F0
0F0000F0
0F0000F0
0F0000F0
0F0000F0
0F8000F0
07C000F0
07FFFFF0
03FFFFF0
01FFFFF0
007FFFF0
00000000
00000000
00000000
00000000
00000000
00000000
00000000
00000000
00000000
00000000
00000000
00000000
ENDCHAR
STARTCHAR LATIN SMALL LETTER U WITH ACUTE
ENCODING 250
SWIDTH 500 0
DWIDTH 32 0
BBX 32 64 0 -12
BITMAP
00000000
00000000
00000000
00000000
00000000
00000000
00000000
00000000
00001C00
00003C00
00007C00
0000FC00
0001F800
0003F000
0007E000
000FC000
001F8000
003F0000
003E0000
003C0000
00000000
00000000
00000000
00000000
0F0000F0
0F0000F0
0F0000F0
0F0000F0
0F0000F0
0F0000F0
0F0000F0
0F0000F0
0F0000F0
0F0000F0
0F0000F0
0F0000F0
0F0000F0
0F0000F0
0F0000F0
0F0000F0
0F0000F0
0F0000F0
0F0000F0
0F0000F0
0F0000F0
0F0000F0
0F8000F0
07C000F0
07FFFFF0
03FFFFF0
01FFFFF0
007FFFF0
00000000
00000000
00000000
00000000
00000000
00000000
00000000
00000000
00000000
00000000
00000000
00000000
ENDCHAR
STARTCHAR LATIN SMALL LETTER U WITH CIRCUMFLEX
ENCODING 251
SWIDTH 500 0
DWIDTH 32 0
BBX 32 64 0 -12
BITMAP
00000000
00000000
00000000
00000000
00000000
00000000
00000000
00000000
0003C000
0007E000
000FF000
001FF800
003FFC00
007E7E00
00FC3F00
01F81F80
03F00FC0
03E007C0
03C003C0
038001C0
00000000
00000000
00000000
00000000
0F0000F0
0F0000F0
0F0000F0
0F0000F0
0F0000F0
0F0000F0
0F0000F0
0F0000F0
0F0000F0
0F0000F0
0F0000F0
0F0000F0
0F0000F0
0F0000F0
0F0000F0
0F0000F0
0F0000F0
0F0000F0
0F0000F0
0F0000F0
0F0000F0
0F0000F0
0F8000F0
07C000F0
07FFFFF0
03FFFFF0
01FFFFF0
007FFFF0
00000000
00000000
00000000
00000000
00000000
00000000
00000000
00000000
00000000
00000000
00000000
00000000
ENDCHAR
STARTCHAR LATIN SMALL LETTER U WITH DIAERESIS
ENCODING 252
SWIDTH 500 0
DWIDTH 32 0
BBX 32 64 0 -12
BITMAP
00000000
00000000
00000000
00000000
00000000
00000000
00000000
00000000
00000000
00000000
00000000
00000000
00F00F00
00F00F00
00F00F00
00F00F00
00F00F00
00F00F00
00000000
00000000
00000000
00000000
00000000
00000000
0F0000F0
0F0000F0
0F0000F0
0F0000F0
0F0000F0
0F0000F0
0F0000F0
0F0000F0
0F0000F0
0F0000F0
0F0000F0
0F0000F0
0F0000F0
0F0000F0
0F0000F0
0F0000F0
0F0000F0
0F0000F0
0F0000F0
0F0000F0
0F0000F0
0F0000F0
0F8000F0
07C000F0
07FFFFF0
03FFFFF0
01FFFFF0
007FFFF0
00000000
00000000
00000000
00000000
00000000
00000000
00000000
00000000
00000000
00000000
00000000
00000000
ENDCHAR
STARTCHAR LATIN SMALL LETTER Y WITH ACUTE
ENCODING 253
SWIDTH 500 0
DWIDTH 32 0
BBX 32 64 0 -12
BITMAP
00000000
00000000
00000000
00000000
00000000
00000000
00000000
00000000
00001C00
00003C00
00007C00
0000FC00
0001F800
0003F000
0007E000
000FC000
001F8000
003F0000
003E0000
003C0000
00000000
00000000
00000000
00000000
0F0000F0
0F0000F0
0F0000F0
0F0000F0
0F0000F0
0F0000F0
0F0000F0
0F0000F0
0F0000F0
0F0000F0
0F0000F0
0F0000F0
0F0000F0
0F0000F0
0F0000F0
0F0000F0
0F0000F0
0F0000F0
0F0000F0
0F0000F0
0F0000F0
0F0000F0
0F8000F0
07C000F0
07FFFFF0
03FFFFF0
01FFFFF0
007FFFF0
000000F0
000000F0
000000F0
000000F0
000000F0
000000F0
000001F0
000003E0
0FFFFFE0
0FFFFFC0
0FFFFF80
0FFFFE00
ENDCHAR
STARTCHAR LATIN SMALL LETTER THORN
ENCODING 254
SWIDTH 500 0
DWIDTH 32 0
BBX 32 64 0 -12
BITMAP
00000000
00000000
00000000
00000000
00000000
00000000
00000000
00000000
00000000
00000000
00000000
00000000
0F000000
0F000000
0F000000
0F000000
0F000000
0F000000
0F000000
0F000000
0F000000
0F000000
0F000000
0F000000
0FFFFE00
0FFFFF80
0FFFFFC0
0FFFFFE0
0F0003E0
0F0001F0
0F0000F0
0F0000F0
0F0000F0
0F0000F0
0F0000F0
0F0000F0
0F0000F0
0F0000F0
0F0000F0
0F0000F0
0F0000F0
0F0000F0
0F0000F0
0F0000F0
0F0000F0
0F0000F0
0F0001F0
0F0003E0
0FFFFFE0
0FFFFFC0
0FFFFF80
0FFFFE00
0F000000
0F000000
0F000000
0F000000
0F000000
0F000000
0F000000
0F000000
0F000000
0F000000
0F000000
0F000000
ENDCHAR
STARTCHAR LATIN SMALL LETTER Y WITH DIAERESIS
ENCODING 255
SWIDTH 500 0
DWIDTH 32 0
BBX 32 64 0 -12
BITMAP
00000000
00000000
00000000
00000000
00000000
00000000
00000000
00000000
00000000
00000000
00000000
00000000
00F00F00
00F00F00
00F00F00
00F00F00
00F00F00
00F00F00
00000000
00000000
00000000
00000000
00000000
00000000
0F0000F0
0F0000F0
0F0000F0
0F0000F0
0F0000F0
0F0000F0
0F0000F0
0F0000F0
0F0000F0
0F0000F0
0F0000F0
0F0000F0
0F0000F0
0F0000F0
0F0000F0
0F0000F0
0F0000F0
0F0000F0
0F0000F0
0F0000F0
0F0000F0
0F0000F0
0F8000F0
07C000F0
07FFFFF0
03FFFFF0
01FFFFF0
007FFFF0
000000F0
000000F0
000000F0
000000F0
000000F0
000000F0
000001F0
000003E0
0FFFFFE0
0FFFFFC0
0FFFFF80
0FFFFE00
ENDCHAR
STARTCHAR LATIN CAPITAL LETTER A WITH MACRON
ENCODING 256
SWIDTH 500 0
DWIDTH 32 0
BBX 32 64 0 -12
BITMAP
00000000
00000000
00000000
00000000
00FFFF00
00FFFF00
00FFFF00
00FFFF00
00000000
00000000
00000000
00000000
007FFE00
01FFFF80
03FFFFC0
07FFFFE0
07C003E0
0F8001F0
0F0000F0
0F0000F0
0F0000F0
0F0000F0
0F0000F0
0F0000F0
0F0000F0
0F0000F0
0F0000F0
0F0000F0
0F0000F0
0F0000F0
0FFFFFF0
0FFFFFF0
0FFFFFF0
0FFFFFF0
0F0000F0
0F0000F0
0F0000F0
0F0000F0
0F0000F0
0F0000F0
0F0000F0
0F0000F0
0F0000F0
0F0000F0
0F0000F0
0F0000F0
0F0000F0
0F0000F0
0F0000F0
0F0000F0
0F0000F0
0F0000F0
00000000
00000000
00000000
00000000
00000000
00000000
00000000
00000000
00000000
00000000
00000000
00000000
ENDCHAR
STARTCHAR LATIN SMALL LETTER A WITH MACRON
ENCODING 257
SWIDTH 500 0
DWIDTH 32 0
BBX 32 64 0 -12
BITMAP
00000000
00000000
00000000
00000000
00000000
00000000
00000000
00000000
00000000
00000000
00000000
00000000
00000000
00000000
00000000
00000000
00FFFF00
00FFFF00
00FFFF00
00FFFF00
00000000
00000000
00000000
00000000
03FFFE00
03FFFF80
03FFFFC0
03FFFFE0
000003E0
000001F0
000000F0
000000F0
000000F0
000000F0
007FFFF0
01FFFFF0
03FFFFF0
07FFFFF0
07C000F0
0F8000F0
0F0000F0
0F0000F0
0F0000F0
0F0000F0
0F0000F0
0F0000F0
0F8000F0
07C000F0
07FFFFF0
03FFFFF0
01FFFFF0
007FFFF0
00000000
00000000
00000000
00000000
00000000
00000000
00000000
00000000
00000000
00000000
00000000
00000000
ENDCHAR
STARTCHAR LATIN CAPITAL LETTER A WITH BREVE
ENCODING 258
SWIDTH 500 0
DWIDTH 32 0
BBX 32 64 0 -12
BITMAP
00F00F00
00F00F00
00F00F00
00781E00
007FFE00
003FFC00
001FF800
0007E000
00000000
00000000
00000000
00000000
007FFE00
01FFFF80
03FFFFC0
07FFFFE0
07C003E0
0F8001F0
0F0000F0
0F0000F0
0F0000F0
0F0000F0
0F0000F0
0F0000F0
0F0000F0
0F0000F0
0F0000F0
0F0000F0
0F0000F0
0F0000F0
0FFFFFF0
0FFFFFF0
0FFFFFF0
0FFFFFF0
0F0000F0
0F0000F0
0F0000F0
0F0000F0
0F0000F0
0F0000F0
0F0000F0
0F0000F0
0F0000F0
0F0000F0
0F0000F0
0F0000F0
0F0000F0
0F0000F0
0F0000F0
0F0000F0
0F0000F0
0F0000F0
00000000
00000000
00000000
00000000
00000000
00000000
00000000
00000000
00000000
00000000
00000000
00000000
ENDCHAR
STARTCHAR LATIN SMALL LETTER A WITH BREVE
ENCODING 259
SWIDTH 500 0
DWIDTH 32 0
BBX 32 64 0 -12
BITMAP
00000000
00000000
00000000
00000000
00000000
00000000
00000000
00000000
00000000
00000000
00000000
00000000
00F00F00
00F00F00
00F00F00
00781E00
007FFE00
003FFC00
001FF800
0007E000
00000000
00000000
00000000
00000000
03FFFE00
03FFFF80
03FFFFC0
03FFFFE0
000003E0
000001F0
000000F0
000000F0
000000F0
000000F0
007FFFF0
01FFFFF0
03FFFFF0
07FFFFF0
07C000F0
0F8000F0
0F0000F0
0F0000F0
0F0000F0
0F0000F0
0F0000F0
0F0000F0
0F8000F0
07C000F0
07FFFFF0
03FFFFF0
01FFFFF0
007FFFF0
00000000
00000000
00000000
00000000
00000000
00000000
00000000
00000000
00000000
00000000
00000000
00000000
ENDCHAR
STARTCHAR LATIN CAPITAL LETTER A WITH OGONEK
ENCODING 260
SWIDTH 500 0
DWIDTH 32 0
BBX 32 64 0 -12
BITMAP
00000000
00000000
00000000
00000000
00000000
00000000
00000000
00000000
00000000
00000000
00000000
00000000
007FFE00
01FFFF80
03FFFFC0
07FFFFE0
07C003E0
0F8001F0
0F0000F0
0F0000F0
0F0000F0
0F0000F0
0F0000F0
0F0000F0
0F0000F0
0F0000F0
0F0000F0
0F0000F0
0F0000F0
0F0000F0
0FFFFFF0
0FFFFFF0
0FFFFFF0
0FFFFFF0
0F0000F0
0F0000F0
0F0000F0
0F0000F0
0F0000F0
0F0000F0
0F0000F0
0F0000F0
0F0000F0
0F0000F0
0F0000F0
0F0000F0
0F0000F0
0F0000F0
0F0000F0
0F0000F0
0F0000F0
0F0000F0
00000FF0
00001FF0
00003E00
00003C00
00003C00
00003E00
00003FFC
00003FFC
00001FFC
00000FFC
00000000
00000000
ENDCHAR
STARTCHAR LATIN SMALL LETTER A WITH OGONEK
ENCODING 261
SWIDTH 500 0
DWIDTH 32 0
BBX 32 64 0 -12
BITMAP
00000000
00000000
00000000
00000000
00000000
00000000
00000000
00000000
00000000
00000000
00000000
00000000
00000000
00000000
00000000
00000000
00000000
00000000
00000000
00000000
00000000
00000000
00000000
00000000
03FFFE00
03FFFF80
03FFFFC0
03FFFFE0
000003E0
000001F0
000000F0
000000F0
000000F0
000000F0
007FFFF0
01FFFFF0
03FFFFF0
07FFFFF0
07C000F0
0F8000F0
0F0000F0
0F0000F0
0F0000F0
0F0000F0
0F0000F0
0F0000F0
0F8000F0
07C000F0
07FFFFF0
03FFFFF0
01FFFFF0
007FFFF0
00000FF0
00001F80
00003E00
00003C00
00003C00
00003E00
00003FFC
00003FFC
00001FFC
00000FFC
00000000
00000000
ENDCHAR
STARTCHAR LATIN CAPITAL LETTER C WITH ACUTE
ENCODING 262
SWIDTH 500 0
DWIDTH 32 0
BBX 32 64 0 -12
BITMAP
00000000
00000000
00001F00
00003F00
00007E00
0000FC00
0001F800
0003F000
0007E000
0007C000
00000000
00000000
007FFFF0
01FFFFF0
03FFFFF0
07FFFFF0
07C00000
0F800000
0F000000
0F000000
0F000000
0F000000
0F000000
0F000000
0F000000
0F000000
0F000000
0F000000
0F000000
0F000000
0F000000
0F000000
0F000000
0F000000
0F000000
0F000000
0F000000
0F000000
0F000000
0F000000
0F000000
0F000000
0F000000
0F000000
0F000000
0F000000
0F800000
07C00000
07FFFFF0
03FFFFF0
01FFFFF0
007FFFF0
00000000
00000000
00000000
00000000
00000000
00000000
00000000
00000000
00000000
00000000
00000000
00000000
ENDCHAR
STARTCHAR LATIN SMALL LETTER C WITH ACUTE
ENCODING 263
SWIDTH 500 0
DWIDTH 32 0
BBX 32 64 0 -12
BITMAP
00000000
00000000
00000000
00000000
00000000
00000000
00000000
00000000
00000700
00000F00
00001F00
00003F00
00007E00
0000FC00
0001F800
0003F000
0007E000
000FC000
000F8000
000F0000
00000000
00000000
00000000
00000000
007FFFF0
01FFFFF0
03FFFFF0
07FFFFF0
07C00000
0F800000
0F000000
0F000000
0F000000
0F000000
0F000000
0F000000
0F000000
0F000000
0F000000
0F000000
0F000000
0F000000
0F000000
0F000000
0F000000
0F000000
0F800000
07C00000
07FFFFF0
03FFFFF0
01FFFFF0
007FFFF0
00000000
00000000
00000000
00000000
00000000
00000000
00000000
00000000
00000000
00000000
00000000
00000000
ENDCHAR
STARTCHAR LATIN CAPITAL LETTER C WITH CIRCUMFLEX
ENCODING 264
SWIDTH 500 0
DWIDTH 32 0
BBX 32 64 0 -12
BITMAP
0003C000
0007E000
000FF000
001FF800
003FFC00
007E7E00
00FC3F00
00F81F00
00000000
00000000
00000000
00000000
007FFFF0
01FFFFF0
03FFFFF0
07FFFFF0
07C00000
0F800000
0F000000
0F000000
0F000000
0F000000
0F000000
0F000000
0F000000
0F000000
0F000000
0F000000
0F000000
0F000000
0F000000
0F000000
0F000000
0F000000
0F000000
0F000000
0F000000
0F000000
0F000000
0F000000
0F000000
0F000000
0F000000
0F000000
0F000000
0F000000
0F800000
07C00000
07FFFFF0
03FFFFF0
01FFFFF0
007FFFF0
00000000
00000000
00000000
00000000
00000000
00000000
00000000
00000000
00000000
00000000
00000000
00000000
ENDCHAR
STARTCHAR LATIN SMALL LETTER C WITH CIRCUMFLEX
ENCODING 265
SWIDTH 500 0
DWIDTH 32 0
BBX 32 64 0 -12
BITMAP
00000000
00000000
00000000
00000000
00000000
00000000
00000000
00000000
0003C000
0007E000
000FF000
001FF800
003FFC00
007E7E00
00FC3F00
01F81F80
03F00FC0
03E007C0
03C003C0
038001C0
00000000
00000000
00000000
00000000
007FFFF0
01FFFFF0
03FFFFF0
07FFFFF0
07C00000
0F800000
0F000000
0F000000
0F000000
0F000000
0F000000
0F000000
0F000000
0F000000
0F000000
0F000000
0F000000
0F000000
0F000000
0F000000
0F000000
0F000000
0F800000
07C00000
07FFFFF0
03FFFFF0
01FFFFF0
007FFFF0
00000000
00000000
00000000
00000000
00000000
00000000
00000000
00000000
00000000
00000000
00000000
00000000
ENDCHAR
STARTCHAR LATIN CAPITAL LETTER C WITH DOT ABOVE
ENCODING 266
SWIDTH 500 0
DWIDTH 32 0
BBX 32 64 0 -12
BITMAP
00000000
00000000
0003C000
0003C000
0003C000
0003C000
0003C000
0003C000
00000000
00000000
00000000
00000000
007FFFF0
01FFFFF0
03FFFFF0
07FFFFF0
07C00000
0F800000
0F000000
0F000000
0F000000
0F000000
0F000000
0F000000
0F000000
0F000000
0F000000
0F000000
0F000000
0F000000
0F000000
0F000000
0F000000
0F000000
0F000000
0F000000
0F000000
0F000000
0F000000
0F000000
0F000000
0F000000
0F000000
0F000000
0F000000
0F000000
0F800000
07C00000
07FFFFF0
03FFFFF0
01FFFFF0
007FFFF0
00000000
00000000
00000000
00000000
00000000
00000000
00000000
00000000
00000000
00000000
00000000
00000000
ENDCHAR
STARTCHAR LATIN SMALL LETTER C WITH DOT ABOVE
ENCODING 267
SWIDTH 500 0
DWIDTH 32 0
BBX 32 64 0 -12
BITMAP
00000000
00000000
00000000
00000000
00000000
00000000
00000000
00000000
00000000
00000000
00000000
00000000
0003C000
0003C000
0003C000
0003C000
0003C000
0003C000
00000000
00000000
00000000
00000000
00000000
00000000
007FFFF0
01FFFFF0
03FFFFF0
07FFFFF0
07C00000
0F800000
0F000000
0F000000
0F000000
0F000000
0F000000
0F000000
0F000000
0F000000
0F000000
0F000000
0F000000
0F000000
0F000000
0F000000
0F000000
0F000000
0F800000
07C00000
07FFFFF0
03FFFFF0
01FFFFF0
007FFFF0
00000000
00000000
00000000
00000000
00000000
00000000
00000000
00000000
00000000
00000000
00000000
00000000
ENDCHAR
STARTCHAR LATIN CAPITAL LETTER C WITH CARON
ENCODING 268
SWIDTH 500 0
DWIDTH 32 0
BBX 32 64 0 -12
BITMAP
00F81F00
00FC3F00
007E7E00
003FFC00
001FF800
000FF000
0007E000
0003C000
00000000
00000000
00000000
00000000
007FFFF0
01FFFFF0
03FFFFF0
07FFFFF0
07C00000
0F800000
0F000000
0F000000
0F000000
0F000000
0F000000
0F000000
0F000000
0F000000
0F000000
0F000000
0F000000
0F000000
0F000000
0F000000
0F000000
0F000000
0F000000
0F000000
0F000000
0F000000
0F000000
0F000000
0F000000
0F000000
0F000000
0F000000
0F000000
0F000000
0F800000
07C00000
07FFFFF0
03FFFFF0
01FFFFF0
007FFFF0
00000000
00000000
00000000
00000000
00000000
00000000
00000000
00000000
00000000
00000000
00000000
00000000
ENDCHAR
STARTCHAR LATIN SMALL LETTER C WITH CARON
ENCODING 269
SWIDTH 500 0
DWIDTH 32 0
BBX 32 64 0 -12
BITMAP
00000000
00000000
00000000
00000000
00000000
00000000
00000000
00000000
038001C0
03C003C0
03E007C0
03F00FC0
01F81F80
00FC3F00
007E7E00
003FFC00
001FF800
000FF000
0007E000
0003C000
00000000
00000000
00000000
00000000
007FFFF0
01FFFFF0
03FFFFF0
07FFFFF0
07C00000
0F800000
0F000000
0F000000
0F000000
0F000000
0F000000
0F000000
0F000000
0F000000
0F000000
0F000000
0F000000
0F000000
0F000000
0F000000
0F000000
0F000000
0F800000
07C00000
07FFFFF0
03FFFFF0
01FFFFF0
007FFFF0
00000000
00000000
00000000
00000000
00000000
00000000
00000000
00000000
00000000
00000000
00000000
00000000
ENDCHAR
STARTCHAR LATIN CAPITAL LETTER D WITH CARON
ENCODING 270
SWIDTH 500 0
DWIDTH 32 0
BBX 32 64 0 -12
BITMAP
00F81F00
00FC3F00
007E7E00
003FFC00
001FF800
000FF000
0007E000
0003C000
00000000
00000000
00000000
00000000
0FFFFE00
0FFFFF80
0FFFFFC0
0FFFFFE0
0F0003E0
0F0001F0
0F0000F0
0F0000F0
0F0000F0
0F0000F0
0F0000F0
0F0000F0
0F0000F0
0F0000F0
0F0000F0
0F0000F0
0F0000F0
0F0000F0
0F0000F0
0F0000F0
0F0000F0
0F0000F0
0F0000F0
0F0000F0
0F0000F0
0F0000F0
0F0000F0
0F0000F0
0F0000F0
0F0000F0
0F0000F0
0F0000F0
0F0000F0
0F0000F0
0F0001F0
0F0003E0
0FFFFFE0
0FFFFFC0
0FFFFF80
0FFFFE00
00000000
00000000
00000000
00000000
00000000
00000000
00000000
00000000
00000000
00000000
00000000
00000000
ENDCHAR
STARTCHAR LATIN SMALL LETTER D WITH CARON
ENCODING 271
SWIDTH 500 0
DWIDTH 32 0
BBX 32 64 0 -12
BITMAP
00F81F00
00FC3F00
007E7E00
003FFC00
001FF800
000FF000
0007E000
0003C000
00000000
00000000
00000000
00000000
000000F0
000000F0
000000F0
000000F0
000000F0
000000F0
000000F0
000000F0
000000F0
000000F0
000000F0
000000F0
007FFFF0
01FFFFF0
03FFFFF0
07FFFFF0
07C000F0
0F8000F0
0F0000F0
0F0000F0
0F0000F0
0F0000F0
0F0000F0
0F0000F0
0F0000F0
0F0000F0
0F0000F0
0F0000F0
0F0000F0
0F0000F0
0F0000F0
0F0000F0
0F0000F0
0F0000F0
0F8000F0
07C000F0
07FFFFF0
03FFFFF0
01FFFFF0
007FFFF0
00000000
00000000
00000000
00000000
00000000
00000000
00000000
00000000
00000000
00000000
00000000
00000000
ENDCHAR
STARTCHAR LATIN CAPITAL LETTER D WITH STROKE
ENCODING 272
SWIDTH 500 0
DWIDTH 32 0
BBX 32 64 0 -12
BITMAP
00000000
00000000
00000000
00000000
00000000
00000000
00000000
00000000
00000000
00000000
00000000
00000000
0FFFFE00
0FFFFF80
0FFFFFC0
0FFFFFE0
0F0003E0
0F0001F0
0F0000F0
0F0000F0
0F0000F0
0F0000F0
0F0000F0
0F0000F0
0F0000F0
0F0000F0
0F0000F0
0F0000F0
0F0000F0
0F0000F0
FFFF00F0
FFFF00F0
FFFF00F0
FFFF00F0
0F0000F0
0F0000F0
0F0000F0
0F0000F0
0F0000F0
0F0000F0
0F0000F0
0F0000F0
0F0000F0
0F0000F0
0F0000F0
0F0000F0
0F0001F0
0F0003E0
0FFFFFE0
0FFFFFC0
0FFFFF80
0FFFFE00
00000000
00000000
00000000
00000000
00000000
00000000
00000000
00000000
00000000
00000000
00000000
00000000
ENDCHAR
STARTCHAR LATIN SMALL LETTER D WITH STROKE
ENCODING 273
SWIDTH 500 0
DWIDTH 32 0
BBX 32 64 0 -12
BITMAP
00000000
00000000
00000000
00000000
00000000
00000000
00000000
00000000
00000000
00000000
00000000
00000000
000000F0
000000F0
000000F0
000000F0
0000FFFF
0000FFFF
0000FFFF
0000FFFF
000000F0
000000F0
000000F0
000000F0
007FFFF0
01FFFFF0
03FFFFF0
07FFFFF0
07C000F0
0F8000F0
0F0000F0
0F0000F0
0F0000F0
0F0000F0
0F0000F0
0F0000F0
0F0000F0
0F0000F0
0F0000F0
0F0000F0
0F0000F0
0F0000F0
0F0000F0
0F0000F0
0F0000F0
0F0000F0
0F8000F0
07C000F0
07FFFFF0
03FFFFF0
01FFFFF0
007FFFF0
00000000
00000000
00000000
00000000
00000000
00000000
00000000
00000000
00000000
00000000
00000000
00000000
ENDCHAR
STARTCHAR LATIN CAPITAL LETTER E WITH MACRON
ENCODING 274
SWIDTH 500 0
DWIDTH 32 0
BBX 32 64 0 -12
BITMAP
00000000
00000000
00000000
00000000
00FFFF00
00FFFF00
00FFFF00
00FFFF00
00000000
00000000
00000000
00000000
007FFFF0
01FFFFF0
03FFFFF0
07FFFFF0
07C00000
0F800000
0F000000
0F000000
0F000000
0F000000
0F000000
0F000000
0F000000
0F000000
0F000000
0F000000
0F000000
0F000000
0FFFFC00
0FFFFC00
0FFFFC00
0FFFFC00
0F000000
0F000000
0F000000
0F000000
0F000000
0F000000
0F000000
0F000000
0F000000
0F000000
0F000000
0F000000
0F800000
07C00000
07FFFFF0
03FFFFF0
01FFFFF0
007FFFF0
00000000
00000000
00000000
00000000
00000000
00000000
00000000
00000000
00000000
00000000
00000000
00000000
ENDCHAR
STARTCHAR LATIN SMALL LETTER E WITH MACRON
ENCODING 275
SWIDTH 500 0
DWIDTH 32 0
BBX 32 64 0 -12
BITMAP
00000000
00000000
00000000
00000000
00000000
00000000
00000000
00000000
00000000
00000000
00000000
00000000
00000000
00000000
00000000
00000000
00FFFF00
00FFFF00
00FFFF00
00FFFF00
00000000
00000000
00000000
00000000
007FFFF0
01FFFFF0
03FFFFF0
07FFFFF0
07C000F0
0F8000F0
0F0000F0
0F0000F0
0F0000F0
0F0000F0
0F0000F0
0F0000F0
0FFFFFF0
0FFFFFF0
0FFFFFF0
0FFFFFF0
0F000000
0F000000
0F000000
0F000000
0F000000
0F000000
0F800000
07C00000
07FFFFF0
03FFFFF0
01FFFFF0
007FFFF0
00000000
00000000
00000000
00000000
00000000
00000000
00000000
00000000
00000000
00000000
00000000
00000000
ENDCHAR
STARTCHAR LATIN CAPITAL LETTER E WITH BREVE
ENCODING 276
SWIDTH 500 0
DWIDTH 32 0
BBX 32 64 0 -12
BITMAP
00F00F00
00F00F00
00F00F00
00781E00
007FFE00
003FFC00
001FF800
0007E000
00000000
00000000
00000000
00000000
007FFFF0
01FFFFF0
03FFFFF0
07FFFFF0
07C00000
0F800000
0F000000
0F000000
0F000000
0F000000
0F000000
0F000000
0F000000
0F000000
0F000000
0F000000
0F000000
0F000000
0FFFFC00
0FFFFC00
0FFFFC00
0FFFFC00
0F000000
0F000000
0F000000
0F000000
0F000000
0F000000
0F000000
0F000000
0F000000
0F000000
0F000000
0F000000
0F800000
07C00000
07FFFFF0
03FFFFF0
01FFFFF0
007FFFF0
00000000
00000000
00000000
00000000
00000000
00000000
00000000
00000000
00000000
00000000
00000000
00000000
ENDCHAR
STARTCHAR LATIN SMALL LETTER E WITH BREVE
ENCODING 277
SWIDTH 500 0
DWIDTH 32 0
BBX 32 64 0 -12
BITMAP
00000000
00000000
00000000
00000000
00000000
00000000
00000000
00000000
00000000
00000000
00000000
00000000
00F00F00
00F00F00
00F00F00
00781E00
007FFE00
003FFC00
001FF800
0007E000
00000000
00000000
00000000
00000000
007FFFF0
01FFFFF0
03FFFFF0
07FFFFF0
07C000F0
0F8000F0
0F0000F0
0F0000F0
0F0000F0
0F0000F0
0F0000F0
0F0000F0
0FFFFFF0
0FFFFFF0
0FFFFFF0
0FFFFFF0
0F000000
0F000000
0F000000
0F000000
0F000000
0F000000
0F800000
07C00000
07FFFFF0
03FFFFF0
01FFFFF0
007FFFF0
00000000
00000000
00000000
00000000
00000000
00000000
00000000
00000000
00000000
00000000
00000000
00000000
ENDCHAR
STARTCHAR LATIN CAPITAL LETTER E WITH DOT ABOVE
ENCODING 278
SWIDTH 500 0
DWIDTH 32 0
BBX 32 64 0 -12
BITMAP
00000000
00000000
0003C000
0003C000
0003C000
0003C000
0003C000
0003C000
00000000
00000000
00000000
00000000
007FFFF0
01FFFFF0
03FFFFF0
07FFFFF0
07C00000
0F800000
0F000000
0F000000
0F000000
0F000000
0F000000
0F000000
0F000000
0F000000
0F000000
0F000000
0F000000
0F000000
0FFFFC00
0FFFFC00
0FFFFC00
0FFFFC00
0F000000
0F000000
0F000000
0F000000
0F000000
0F000000
0F000000
0F000000
0F000000
0F000000
0F000000
0F000000
0F800000
07C00000
07FFFFF0
03FFFFF0
01FFFFF0
007FFFF0
00000000
00000000
00000000
00000000
00000000
00000000
00000000
00000000
00000000
00000000
00000000
00000000
ENDCHAR
STARTCHAR LATIN SMALL LETTER E WITH DOT ABOVE
ENCODING 279
SWIDTH 500 0
DWIDTH 32 0
BBX 32 64 0 -12
BITMAP
00000000
00000000
00000000
00000000
00000000
00000000
00000000
00000000
00000000
00000000
00000000
00000000
0003C000
0003C000
0003C000
0003C000
0003C000
0003C000
00000000
00000000
00000000
00000000
00000000
00000000
007FFFF0
01FFFFF0
03FFFFF0
07FFFFF0
07C000F0
0F8000F0
0F0000F0
0F0000F0
0F0000F0
0F0000F0
0F0000F0
0F0000F0
0FFFFFF0
0FFFFFF0
0FFFFFF0
0FFFFFF0
0F000000
0F000000
0F000000
0F000000
0F000000
0F000000
0F800000
07C00000
07FFFFF0
03FFFFF0
01FFFFF0
007FFFF0
00000000
00000000
00000000
00000000
00000000
00000000
00000000
00000000
00000000
00000000
00000000
00000000
ENDCHAR
STARTCHAR LATIN CAPITAL LETTER E WITH OGONEK
ENCODING 280
SWIDTH 500 0
DWIDTH 32 0
BBX 32 64 0 -12
BITMAP
00000000
00000000
00000000
00000000
00000000
00000000
00000000
00000000
00000000
00000000
00000000
00000000
007FFFF0
01FFFFF0
03FFFFF0
07FFFFF0
07C00000
0F800000
0F000000
0F000000
0F000000
0F000000
0F000000
0F000000
0F000000
0F000000
0F000000
0F000000
0F000000
0F000000
0FFFFC00
0FFFFC00
0FFFFC00
0FFFFC00
0F000000
0F000000
0F000000
0F000000
0F000000
0F000000
0F000000
0F000000
0F000000
0F000000
0F000000
0F000000
0F800000
07C00000
07FFFFF0
03FFFFF0
01FFFFF0
007FFFF0
00000FF0
00001F80
00003E00
00003C00
00003C00
00003E00
00003FFC
00003FFC
00001FFC
00000FFC
00000000
00000000
ENDCHAR
STARTCHAR LATIN SMALL LETTER E WITH OGONEK
ENCODING 281
SWIDTH 500 0
DWIDTH 32 0
BBX 32 64 0 -12
BITMAP
00000000
00000000
00000000
00000000
00000000
00000000
00000000
00000000
00000000
00000000
00000000
00000000
00000000
00000000
00000000
00000000
00000000
00000000
00000000
00000000
00000000
00000000
00000000
00000000
007FFFF0
01FFFFF0
03FFFFF0
07FFFFF0
07C000F0
0F8000F0
0F0000F0
0F0000F0
0F0000F0
0F0000F0
0F0000F0
0F0000F0
0FFFFFF0
0FFFFFF0
0FFFFFF0
0FFFFFF0
0F000000
0F000000
0F000000
0F000000
0F000000
0F000000
0F800000
07C00000
07FFFFF0
03FFFFF0
01FFFFF0
007FFFF0
00000FF0
00001F80
00003E00
00003C00
00003C00
00003E00
00003FFC
00003FFC
00001FFC
00000FFC
00000000
00000000
ENDCHAR
STARTCHAR LATIN CAPITAL LETTER E WITH CARON
ENCODING 282
SWIDTH 500 0
DWIDTH 32 0
BBX 32 64 0 -12
BITMAP
00F81F00
00FC3F00
007E7E00
003FFC00
001FF800
000FF000
0007E000
0003C000
00000000
00000000
00000000
00000000
007FFFF0
01FFFFF0
03FFFFF0
07FFFFF0
07C00000
0F800000
0F000000
0F000000
0F000000
0F000000
0F000000
0F000000
0F000000
0F000000
0F000000
0F000000
0F000000
0F000000
0FFFFC00
0FFFFC00
0FFFFC00
0FFFFC00
0F000000
0F000000
0F000000
0F000000
0F000000
0F000000
0F000000
0F000000
0F000000
0F000000
0F000000
0F000000
0F800000
07C00000
07FFFFF0
03FFFFF0
01FFFFF0
007FFFF0
00000000
00000000
00000000
00000000
00000000
00000000
00000000
00000000
00000000
00000000
00000000
00000000
ENDCHAR
STARTCHAR LATIN SMALL LETTER E WITH CARON
ENCODING 283
SWIDTH 500 0
DWIDTH 32 0
BBX 32 64 0 -12
BITMAP
00000000
00000000
00000000
00000000
00000000
00000000
00000000
00000000
038001C0
03C003C0
03E007C0
03F00FC0
01F81F80
00FC3F00
007E7E00
003FFC00
001FF800
000FF000
0007E000
0003C000
00000000
00000000
00000000
00000000
007FFFF0
01FFFFF0
03FFFFF0
07FFFFF0
07C000F0
0F8000F0
0F0000F0
0F0000F0
0F0000F0
0F0000F0
0F0000F0
0F0000F0
0FFFFFF0
0FFFFFF0
0FFFFFF0
0FFFFFF0
0F000000
0F000000
0F000000
0F000000
0F000000
0F000000
0F800000
07C00000
07FFFFF0
03FFFFF0
01FFFFF0
007FFFF0
00000000
00000000
00000000
00000000
00000000
00000000
00000000
00000000
00000000
00000000
00000000
00000000
ENDCHAR
STARTCHAR LATIN CAPITAL LETTER G WITH CIRCUMFLEX
ENCODING 284
SWIDTH 500 0
DWIDTH 32 0
BBX 32 64 0 -12
BITMAP
0003C000
0007E000
000FF000
001FF800
003FFC00
007E7E00
00FC3F00
00F81F00
00000000
00000000
00000000
00000000
007FFFF0
01FFFFF0
03FFFFF0
07FFFFF0
07C00000
0F800000
0F000000
0F000000
0F000000
0F000000
0F000000
0F000000
0F000000
0F000000
0F000000
0F000000
0F000000
0F000000
0F00FFF0
0F00FFF0
0F00FFF0
0F00FFF0
0F0000F0
0F0000F0
0F0000F0
0F0000F0
0F0000F0
0F0000F0
0F0000F0
0F0000F0
0F0000F0
0F0000F0
0F0000F0
0F0000F0
0F8000F0
07C000F0
07FFFFF0
03FFFFF0
01FFFFF0
007FFFF0
00000000
00000000
00000000
00000000
00000000
00000000
00000000
00000000
00000000
00000000
00000000
00000000
ENDCHAR
STARTCHAR LATIN SMALL LETTER G WITH CIRCUMFLEX
ENCODING 285
SWIDTH 500 0
DWIDTH 32 0
BBX 32 64 0 -12
BITMAP
00000000
00000000
00000000
00000000
00000000
00000000
00000000
00000000
0003C000
0007E000
000FF000
001FF800
003FFC00
007E7E00
00FC3F00
01F81F80
03F00FC0
03E007C0
03C003C0
038001C0
00000000
00000000
00000000
00000000
007FFFF0
01FFFFF0
03FFFFF0
07FFFFF0
07C000F0
0F8000F0
0F0000F0
0F0000F0
0F0000F0
0F0000F0
0F0000F0
0F0000F0
0F0000F0
0F0000F0
0F0000F0
0F0000F0
0F0000F0
0F0000F0
0F0000F0
0F0000F0
0F0000F0
0F0000F0
0F8001F0
07C003E0
07FFFFC0
03FFFF80
01FFFF80
007FFFC0
000003E0
000001E0
000000F0
000000F0
000000F0
000000F0
000001F0
000003E0
0FFFFFE0
0FFFFFC0
0FFFFF80
0FFFFE00
ENDCHAR
STARTCHAR LATIN CAPITAL LETTER G WITH BREVE
ENCODING 286
SWIDTH 500 0
DWIDTH 32 0
BBX 32 64 0 -12
BITMAP
00F00F00
00F00F00
00F00F00
00781E00
007FFE00
003FFC00
001FF800
0007E000
00000000
00000000
00000000
00000000
007FFFF0
01FFFFF0
03FFFFF0
07FFFFF0
07C00000
0F800000
0F000000
0F000000
0F000000
0F000000
0F000000
0F000000
0F000000
0F000000
0F000000
0F000000
0F000000
0F000000
0F00FFF0
0F00FFF0
0F00FFF0
0F00FFF0
0F0000F0
0F0000F0
0F0000F0
0F0000F0
0F0000F0
0F0000F0
0F0000F0
0F0000F0
0F0000F0
0F0000F0
0F0000F0
0F0000F0
0F8000F0
07C000F0
07FFFFF0
03FFFFF0
01FFFFF0
007FFFF0
00000000
00000000
00000000
00000000
00000000
00000000
00000000
00000000
00000000
00000000
00000000
00000000
ENDCHAR
STARTCHAR LATIN SMALL LETTER G WITH BREVE
ENCODING 287
SWIDTH 500 0
DWIDTH 32 0
BBX 32 64 0 -12
BITMAP
00000000
00000000
00000000
00000000
00000000
00000000
00000000
00000000
00000000
00000000
00000000
00000000
00F00F00
00F00F00
00F00F00
00781E00
007FFE00
003FFC00
001FF800
0007E000
00000000
00000000
00000000
00000000
007FFFF0
01FFFFF0
03FFFFF0
07FFFFF0
07C000F0
0F8000F0
0F0000F0
0F0000F0
0F0000F0
0F0000F0
0F0000F0
0F0000F0
0F0000F0
0F0000F0
0F0000F0
0F0000F0
0F0000F0
0F0000F0
0F0000F0
0F0000F0
0F0000F0
0F0000F0
0F8001F0
07C003E0
07FFFFC0
03FFFF80
01FFFF80
007FFFC0
000003E0
000001E0
000000F0
000000F0
000000F0
000000F0
000001F0
000003E0
0FFFFFE0
0FFFFFC0
0FFFFF80
0FFFFE00
ENDCHAR
STARTCHAR LATIN CAPITAL LETTER G WITH DOT ABOVE
ENCODING 288
SWIDTH 500 0
DWIDTH 32 0
BBX 32 64 0 -12
BITMAP
00000000
00000000
0003C000
0003C000
0003C000
0003C000
0003C000
0003C000
00000000
00000000
00000000
00000000
007FFFF0
01FFFFF0
03FFFFF0
07FFFFF0
07C00000
0F800000
0F000000
0F000000
0F000000
0F000000
0F000000
0F000000
0F000000
0F000000
0F000000
0F000000
0F000000
0F000000
0F00FFF0
0F00FFF0
0F00FFF0
0F00FFF0
0F0000F0
0F0000F0
0F0000F0
0F0000F0
0F0000F0
0F0000F0
0F0000F0
0F0000F0
0F0000F0
0F0000F0
0F0000F0
0F0000F0
0F8000F0
07C000F0
07FFFFF0
03FFFFF0
01FFFFF0
007FFFF0
00000000
00000000
00000000
00000000
00000000
00000000
00000000
00000000
00000000
00000000
00000000
00000000
ENDCHAR
STARTCHAR LATIN SMALL LETTER G WITH DOT ABOVE
ENCODING 289
SWIDTH 500 0
DWIDTH 32 0
BBX 32 64 0 -12
BITMAP
00000000
00000000
00000000
00000000
00000000
00000000
00000000
00000000
00000000
00000000
00000000
00000000
0003C000
0003C000
0003C000
0003C000
0003C000
0003C000
00000000
00000000
00000000
00000000
00000000
00000000
007FFFF0
01FFFFF0
03FFFFF0
07FFFFF0
07C000F0
0F8000F0
0F0000F0
0F0000F0
0F0000F0
0F0000F0
0F0000F0
0F0000F0
0F0000F0
0F0000F0
0F0000F0
0F0000F0
0F0000F0
0F0000F0
0F0000F0
0F0000F0
0F0000F0
0F0000F0
0F8001F0
07C003E0
07FFFFC0
03FFFF80
01FFFF80
007FFFC0
000003E0
000001E0
000000F0
000000F0
000000F0
000000F0
000001F0
000003E0
0FFFFFE0
0FFFFFC0
0FFFFF80
0FFFFE00
ENDCHAR
STARTCHAR LATIN CAPITAL LETTER G WITH CEDILLA
ENCODING 290
SWIDTH 500 0
DWIDTH 32 0
BBX 32 64 0 -12
BITMAP
00000000
00000000
00000000
00000000
00000000
00000000
00000000
00000000
00000000
00000000
00000000
00000000
007FFFF0
01FFFFF0
03FFFFF0
07FFFFF0
07C00000
0F800000
0F000000
0F000000
0F000000
0F000000
0F000000
0F000000
0F000000
0F000000
0F000000
0F000000
0F000000
0F000000
0F00FFF0
0F00FFF0
0F00FFF0
0F00FFF0
0F0000F0
0F0000F0
0F0000F0
0F0000F0
0F0000F0
0F0000F0
0F0000F0
0F0000F0
0F0000F0
0F0000F0
0F0000F0
0F0000F0
0F8000F0
07C000F0
07FFFFF0
03FFFFF0
01FFFFF0
007FFFF0
0000F000
0000F000
0000F000
0000F000
0000F000
0000F000
0001F000
0003E000
000FE000
000FC000
000F8000
000E0000
ENDCHAR
STARTCHAR LATIN SMALL LETTER G WITH CEDILLA
ENCODING 291
SWIDTH 500 0
DWIDTH 32 0
BBX 32 64 0 -12
BITMAP
00000000
00000000
00000000
00000000
00000000
00000000
00000000
00000000
0000F000
0000F000
0000F000
0000F000
0000F000
0000F000
0001F000
0003E000
000FE000
000FC000
000F8000
000E0000
00000000
00000000
00000000
00000000
007FFFF0
01FFFFF0
03FFFFF0
07FFFFF0
07C000F0
0F8000F0
0F0000F0
0F0000F0
0F0000F0
0F0000F0
0F0000F0
0F0000F0
0F0000F0
0F0000F0
0F0000F0
0F0000F0
0F0000F0
0F0000F0
0F0000F0
0F0000F0
0F0000F0
0F0000F0
0F8001F0
07C003E0
07FFFFC0
03FFFF80
01FFFF80
007FFFC0
000003E0
000001E0
000000F0
000000F0
000000F0
000000F0
000001F0
000003E0
0FFFFFE0
0FFFFFC0
0FFFFF80
0FFFFE00
ENDCHAR
STARTCHAR LATIN CAPITAL LETTER H WITH CIRCUMFLEX
ENCODING 292
SWIDTH 500 0
DWIDTH 32 0
BBX 32 64 0 -12
BITMAP
0003C000
0007E000
000FF000
001FF800
003FFC00
007E7E00
00FC3F00
00F81F00
00000000
00000000
00000000
00000000
0F0000F0
0F0000F0
0F0000F0
0F0000F0
0F0000F0
0F0000F0
0F0000F0
0F0000F0
0F0000F0
0F0000F0
0F0000F0
0F0000F0
0F0000F0
0F0000F0
0F0000F0
0F0000F0
0F0000F0
0F0000F0
0FFFFFF0
0FFFFFF0
0FFFFFF0
0FFFFFF0
0F0000F0
0F0000F0
0F0000F0
0F0000F0
0F0000F0
0F0000F0
0F0000F0
0F0000F0
0F0000F0
0F0000F0
0F0000F0
0F0000F0
0F0000F0
0F0000F0
0F0000F0
0F0000F0
0F0000F0
0F0000F0
00000000
00000000
00000000
00000000
00000000
00000000
00000000
00000000
00000000
00000000
00000000
00000000
ENDCHAR
STARTCHAR LATIN SMALL LETTER H WITH CIRCUMFLEX
ENCODING 293
SWIDTH 500 0
DWIDTH 32 0
BBX 32 64 0 -12
BITMAP
0003C000
0007E000
000FF000
001FF800
003FFC00
007E7E00
00FC3F00
00F81F00
00000000
00000000
00000000
00000000
0F000000
0F000000
0F000000
0F000000
0F000000
0F000000
0F000000
0F000000
0F000000
0F000000
0F000000
0F000000
0FFFFE00
0FFFFF80
0FFFFFC0
0FFFFFE0
0F0003E0
0F0001F0
0F0000F0
0F0000F0
0F0000F0
0F0000F0
0F0000F0
0F0000F0
0F0000F0
0F0000F0
0F0000F0
0F0000F0
0F0000F0
0F0000F0
0F0000F0
0F0000F0
0F0000F0
0F0000F0
0F0000F0
0F0000F0
0F0000F0
0F0000F0
0F0000F0
0F0000F0
00000000
00000000
00000000
00000000
00000000
00000000
00000000
00000000
00000000
00000000
00000000
00000000
ENDCHAR
STARTCHAR LATIN CAPITAL LETTER H WITH STROKE
ENCODING 294
SWIDTH 500 0
DWIDTH 32 0
BBX 32 64 0 -12
BITMAP
00000000
00000000
00000000
00000000
00000000
00000000
00000000
00000000
00000000
00000000
00000000
00000000
0F0000F0
0F0000F0
0F0000F0
0F0000F0
FFFFFFFF
FFFFFFFF
FFFFFFFF
FFFFFFFF
0F0000F0
0F0000F0
0F0000F0
0F0000F0
0F0000F0
0F0000F0
0F0000F0
0F0000F0
0F0000F0
0F0000F0
0FFFFFF0
0FFFFFF0
0FFFFFF0
0FFFFFF0
0F0000F0
0F0000F0
0F0000F0
0F0000F0
0F0000F0
0F0000F0
0F0000F0
0F0000F0
0F0000F0
0F0000F0
0F0000F0
0F0000F0
0F0000F0
0F0000F0
0F0000F0
0F0000F0
0F0000F0
0F0000F0
00000000
00000000
00000000
00000000
00000000
00000000
00000000
00000000
00000000
00000000
00000000
00000000
ENDCHAR
STARTCHAR LATIN SMALL LETTER H WITH STROKE
ENCODING 295
SWIDTH 500 0
DWIDTH 32 0
BBX 32 64 0 -12
BITMAP
00000000
00000000
00000000
00000000
00000000
00000000
00000000
00000000
00000000
00000000
00000000
00000000
0F000000
0F000000
0F000000
0F000000
FFFF0000
FFFF0000
FFFF0000
FFFF0000
0F000000
0F000000
0F000000
0F000000
0FFFFE00
0FFFFF80
0FFFFFC0
0FFFFFE0
0F0003E0
0F0001F0
0F0000F0
0F0000F0
0F0000F0
0F0000F0
0F0000F0
0F0000F0
0F0000F0
0F0000F0
0F0000F0
0F0000F0
0F0000F0
0F0000F0
0F0000F0
0F0000F0
0F0000F0
0F0000F0
0F0000F0
0F0000F0
0F0000F0
0F0000F0
0F0000F0
0F0000F0
00000000
00000000
00000000
00000000
00000000
00000000
00000000
00000000
00000000
00000000
00000000
00000000
ENDCHAR
STARTCHAR LATIN CAPITAL LETTER I WITH TILDE
ENCODING 296
SWIDTH 500 0
DWIDTH 32 0
BBX 32 64 0 -12
BITMAP
00000000
00000000
007E00F0
01FF80F0
03FFC1F0
07FFE3F0
0FC7FFE0
0F83FFC0
0F01FF80
0F007E00
00000000
00000000
03FFFFC0
03FFFFC0
03FFFFC0
03FFFFC0
0003C000
0003C000
0003C000
0003C000
0003C000
0003C000
0003C000
0003C000
0003C000
0003C000
0003C000
0003C000
0003C000
0003C000
0003C000
0003C000
0003C000
0003C000
0003C000
0003C000
0003C000
0003C000
0003C000
0003C000
0003C000
0003C000
0003C000
0003C000
0003C000
0003C000
0003C000
0003C000
03FFFFC0
03FFFFC0
03FFFFC0
03FFFFC0
00000000
00000000
00000000
00000000
00000000
00000000
00000000
00000000
00000000
00000000
00000000
00000000
ENDCHAR
STARTCHAR LATIN SMALL LETTER I WITH TILDE
ENCODING 297
SWIDTH 500 0
DWIDTH 32 0
BBX 32 64 0 -12
BITMAP
00000000
00000000
00000000
00000000
00000000
00000000
00000000
00000000
007800F0
01FE00F0
03FF00F0
07FF80F0
0FCFC1F0
0F87E3F0
0F03FFE0
0F01FFC0
0F00FF80
0F003E00
00000000
00000000
00000000
00000000
00000000
00000000
003FC000
003FC000
003FC000
003FC000
0003C000
0003C000
0003C000
0003C000
0003C000
0003C000
0003C000
0003C000
0003C000
0003C000
0003C000
0003C000
0003C000
0003C000
0003C000
0003C000
0003C000
0003C000
0003C000
0003C000
0003FC00
0003FC00
0003FC00
0003FC00
00000000
00000000
00000000
00000000
00000000
00000000
00000000
00000000
00000000
00000000
00000000
00000000
ENDCHAR
STARTCHAR LATIN CAPITAL LETTER I WITH MACRON
ENCODING 298
SWIDTH 500 0
DWIDTH 32 0
BBX 32 64 0 -12
BITMAP
00000000
00000000
00000000
00000000
00FFFF00
00FFFF00
00FFFF00
00FFFF00
00000000
00000000
00000000
00000000
03FFFFC0
03FFFFC0
03FFFFC0
03FFFFC0
0003C000
0003C000
0003C000
0003C000
0003C000
0003C000
0003C000
0003C000
0003C000
0003C000
0003C000
0003C000
0003C000
0003C000
0003C000
0003C000
0003C000
0003C000
0003C000
0003C000
0003C000
0003C000
0003C000
0003C000
0003C000
0003C000
0003C000
0003C000
0003C000
0003C000
0003C000
0003C000
03FFFFC0
03FFFFC0
03FFFFC0
03FFFFC0
00000000
00000000
00000000
00000000
00000000
00000000
00000000
00000000
00000000
00000000
00000000
00000000
ENDCHAR
STARTCHAR LATIN SMALL LETTER I WITH MACRON
ENCODING 299
SWIDTH 500 0
DWIDTH 32 0
BBX 32 64 0 -12
BITMAP
00000000
00000000
00000000
00000000
00000000
00000000
00000000
00000000
00000000
00000000
00000000
00000000
00000000
00000000
00000000
00000000
00FFFF00
00FFFF00
00FFFF00
00FFFF00
00000000
00000000
00000000
00000000
003FC000
003FC000
003FC000
003FC000
0003C000
0003C000
0003C000
0003C000
0003C000
0003C000
0003C000
0003C000
0003C000
0003C000
0003C000
0003C000
0003C000
0003C000
0003C000
0003C000
0003C000
0003C000
0003C000
0003C000
0003FC00
0003FC00
0003FC00
0003FC00
00000000
00000000
00000000
00000000
00000000
00000000
00000000
00000000
00000000
00000000
00000000
00000000
ENDCHAR
STARTCHAR LATIN CAPITAL LETTER I WITH BREVE
ENCODING 300
SWIDTH 500 0
DWIDTH 32 0
BBX 32 64 0 -12
BITMAP
00F00F00
00F00F00
00F00F00
00781E00
007FFE00
003FFC00
001FF800
0007E000
00000000
00000000
00000000
00000000
03FFFFC0
03FFFFC0
03FFFFC0
03FFFFC0
0003C000
0003C000
0003C000
0003C000
0003C000
0003C000
0003C000
0003C000
0003C000
0003C000
0003C000
0003C000
0003C000
0003C000
0003C000
0003C000
0003C000
0003C000
0003C000
0003C000
0003C000
0003C000
0003C000
0003C000
0003C000
0003C000
0003C000
0003C000
0003C000
0003C000
0003C000
0003C000
03FFFFC0
03FFFFC0
03FFFFC0
03FFFFC0
00000000
00000000
00000000
00000000
00000000
00000000
00000000
00000000
00000000
00000000
00000000
00000000
ENDCHAR
STARTCHAR LATIN SMALL LETTER I WITH BREVE
ENCODING 301
SWIDTH 500 0
DWIDTH 32 0
BBX 32 64 0 -12
BITMAP
00000000
00000000
00000000
00000000
00000000
00000000
00000000
00000000
00000000
00000000
00000000
00000000
00F00F00
00F00F00
00F00F00
00781E00
007FFE00
003FFC00
001FF800
0007E000
00000000
00000000
00000000
00000000
003FC000
003FC000
003FC000
003FC000
0003C000
0003C000
0003C000
0003C000
0003C000
0003C000
0003C000
0003C000
0003C000
0003C000
0003C000
0003C000
0003C000
0003C000
0003C000
0003C000
0003C000
0003C000
0003C000
0003C000
0003FC00
0003FC00
0003FC00
0003FC00
00000000
00000000
00000000
00000000
00000000
00000000
00000000
00000000
00000000
00000000
00000000
00000000
ENDCHAR
STARTCHAR LATIN CAPITAL LETTER I WITH OGONEK
ENCODING 302
SWIDTH 500 0
DWIDTH 32 0
BBX 32 64 0 -12
BITMAP
00000000
00000000
00000000
00000000
00000000
00000000
00000000
00000000
00000000
00000000
00000000
00000000
03FFFFC0
03FFFFC0
03FFFFC0
03FFFFC0
0003C000
0003C000
0003C000
0003C000
0003C000
0003C000
0003C000
0003C000
0003C000
0003C000
0003C000
0003C000
0003C000
0003C000
0003C000
0003C000
0003C000
0003C000
0003C000
0003C000
0003C000
0003C000
0003C000
0003C000
0003C000
0003C000
0003C000
0003C000
0003C000
0003C000
0003C000
0003C000
03FFFFC0
03FFFFC0
03FFFFC0
03FFFFC0
00003FC0
00007E00
0000F800
0000F000
0000F000
0000F800
0000FFF0
0000FFF0
00007FF0
00003FF0
00000000
00000000
ENDCHAR
STARTCHAR LATIN SMALL LETTER I WITH OGONEK
ENCODING 303
SWIDTH 500 0
DWIDTH 32 0
BBX 32 64 0 -12
BITMAP
00000000
00000000
00000000
00000000
00000000
00000000
00000000
00000000
00000000
00000000
00000000
00000000
0003C000
0003C000
0003C000
0003C000
0003C000
0003C000
00000000
00000000
00000000
00000000
00000000
00000000
003FC000
003FC000
003FC000
003FC000
0003C000
0003C000
0003C000
0003C000
0003C000
0003C000
0003C000
0003C000
0003C000
0003C000
0003C000
0003C000
0003C000
0003C000
0003C000
0003C000
0003C000
0003C000
0003C000
0003C000
0003FC00
0003FC00
0003FC00
0003FC00
0000FC00
0001FC00
0003E000
0003C000
0003C000
0003E000
0003FFC0
0003FFC0
0001FFC0
0000FFC0
00000000
00000000
ENDCHAR
STARTCHAR LATIN CAPITAL LETTER I WITH DOT ABOVE
ENCODING 304
SWIDTH 500 0
DWIDTH 32 0
BBX 32 64 0 -12
BITMAP
00000000
00000000
0003C000
0003C000
0003C000
0003C000
0003C000
0003C000
00000000
00000000
00000000
00000000
03FFFFC0
03FFFFC0
03FFFFC0
03FFFFC0
0003C000
0003C000
0003C000
0003C000
0003C000
0003C000
0003C000
0003C000
0003C000
0003C000
0003C000
0003C000
0003C000
0003C000
0003C000
0003C000
0003C000
0003C000
0003C000
0003C000
0003C000
0003C000
0003C000
0003C000
0003C000
0003C000
0003C000
0003C000
0003C000
0003C000
0003C000
0003C000
03FFFFC0
03FFFFC0
03FFFFC0
03FFFFC0
00000000
00000000
00000000
00000000
00000000
00000000
00000000
00000000
00000000
00000000
00000000
00000000
ENDCHAR
STARTCHAR LATIN SMALL LETTER DOTLESS I
ENCODING 305
SWIDTH 500 0
DWIDTH 32 0
BBX 32 64 0 -12
BITMAP
00000000
00000000
00000000
00000000
00000000
00000000
00000000
00000000
00000000
00000000
00000000
00000000
00000000
00000000
00000000
00000000
00000000
00000000
00000000
00000000
00000000
00000000
00000000
00000000
003FC000
003FC000
003FC000
003FC000
0003C000
0003C000
0003C000
0003C000
0003C000
0003C000
0003C000
0003C000
0003C000
0003C000
0003C000
0003C000
0003C000
0003C000
0003C000
0003C000
0003C000
0003C000
0003C000
0003C000
0003FC00
0003FC00
0003FC00
0003FC00
00000000
00000000
00000000
00000000
00000000
00000000
00000000
00000000
00000000
00000000
00000000
00000000
ENDCHAR
STARTCHAR LATIN CAPITAL LIGATURE IJ
ENCODING 306
SWIDTH 500 0
DWIDTH 32 0
BBX 32 64 0 -12
BITMAP
00000000
00000000
00000000
00000000
00000000
00000000
00000000
00000000
00000000
00000000
00000000
00000000
FFF00FFF
FFF00FFF
FFF00FFF
FFF00FFF
0F0000F0
0F0000F0
0F0000F0
0F0000F0
0F0000F0
0F0000F0
0F0000F0
0F0000F0
0F0000F0
0F0000F0
0F0000F0
0F0000F0
0F0000F0
0F0000F0
0F0000F0
0F0000F0
0F0000F0
0F0000F0
0F0000F0
0F0000F0
0F0000F0
0F0000F0
0F0000F0
0F0000F0
0F0000F0
0F0000F0
0F0000F0
0F0000F0
0F0000F0
0F0000F0
0F0001F0
0F0003E0
FFF0FFE0
FFF0FFC0
FFF0FF80
FFF0FE00
00000000
00000000
00000000
00000000
00000000
00000000
00000000
00000000
00000000
00000000
00000000
00000000
ENDCHAR
STARTCHAR LATIN SMALL LIGATURE IJ
ENCODING 307
SWIDTH 500 0
DWIDTH 32 0
BBX 32 64 0 -12
BITMAP
00000000
00000000
00000000
00000000
00000000
00000000
00000000
00000000
00000000
00000000
00000000
00000000
00F000F0
00F000F0
00F000F0
00F000F0
00F000F0
00F000F0
00000000
00000000
00000000
00000000
00000000
00000000
0FF000F0
0FF000F0
0FF000F0
0FF000F0
00F000F0
00F000F0
00F000F0
00F000F0
00F000F0
00F000F0
00F000F0
00F000F0
00F000F0
00F000F0
00F000F0
00F000F0
00F000F0
00F000F0
00F000F0
00F000F0
00F000F0
00F000F0
00F000F0
00F000F0
00FF00F0
00FF00F0
00FF00F0
00FF00F0
000000F0
000000F0
000000F0
000000F0
000000F0
000000F0
000001F0
000003E0
0000FFE0
0000FFC0
0000FF80
0000FE00
ENDCHAR
STARTCHAR LATIN CAPITAL LETTER J WITH CIRCUMFLEX
ENCODING 308
SWIDTH 500 0
DWIDTH 32 0
BBX 32 64 0 -12
BITMAP
0003C000
0007E000
000FF000
001FF800
003FFC00
007E7E00
00FC3F00
00F81F00
00000000
00000000
00000000
00000000
03FFFFC0
03FFFFC0
03FFFFC0
03FFFFC0
0003C000
0003C000
0003C000
0003C000
0003C000
0003C000
0003C000
0003C000
0003C000
0003C000
0003C000
0003C000
0003C000
0003C000
0003C000
0003C000
0003C000
0003C000
0003C000
0003C000
0003C000
0003C000
0003C000
0003C000
0003C000
0003C000
0003C000
0003C000
0003C000
0003C000
0007C000
000F8000
3FFF8000
3FFF0000
3FFE0000
3FF80000
00000000
00000000
00000000
00000000
00000000
00000000
00000000
00000000
00000000
00000000
00000000
00000000
ENDCHAR
STARTCHAR LATIN SMALL LETTER J WITH CIRCUMFLEX
ENCODING 309
SWIDTH 500 0
DWIDTH 32 0
BBX 32 64 0 -12
BITMAP
00000000
00000000
00000000
00000000
00000000
00000000
00000000
00000000
0003C000
0007E000
000FF000
001FF800
003FFC00
007E7E00
00FC3F00
01F81F80
03F00FC0
03E007C0
03C003C0
038001C0
00000000
00000000
00000000
00000000
0003C000
0003C000
0003C000
0003C000
0003C000
0003C000
0003C000
0003C000
0003C000
0003C000
0003C000
0003C000
0003C000
0003C000
0003C000
0003C000
0003C000
0003C000
0003C000
0003C000
0003C000
0003C000
0003C000
0003C000
0003C000
0003C000
0003C000
0003C000
0003C000
0003C000
0003C000
0003C000
0003C000
0003C000
0007C000
000F8000
03FF8000
03FF0000
03FE0000
03F80000
ENDCHAR
STARTCHAR LATIN CAPITAL LETTER K WITH CEDILLA
ENCODING 310
SWIDTH 500 0
DWIDTH 32 0
BBX 32 64 0 -12
BITMAP
00000000
00000000
00000000
00000000
00000000
00000000
00000000
00000000
00000000
00000000
00000000
00000000
0F0000F0
0F0000F0
0F0000F0
0F0000F0
0F0000F0
0F0000F0
0F0000F0
0F0000F0
0F0000F0
0F0000F0
0F0000F0
0F0000F0
0F0000F0
0F0001F0
0F0003E0
0F0007C0
0F000F80
0F001F00
0FFFFE00
0FFFFC00
0FFFFC00
0FFFFE00
0F001F00
0F000F80
0F0007C0
0F0003E0
0F0001F0
0F0000F0
0F0000F0
0F0000F0
0F0000F0
0F0000F0
0F0000F0
0F0000F0
0F0000F0
0F0000F0
0F0000F0
0F0000F0
0F0000F0
0F0000F0
0003C000
0003C000
0003C000
0003C000
0003C000
0003C000
0007C000
000F8000
003F8000
003F0000
003E0000
00380000
ENDCHAR
STARTCHAR LATIN SMALL LETTER K WITH CEDILLA
ENCODING 311
SWIDTH 500 0
DWIDTH 32 0
BBX 32 64 0 -12
BITMAP
00000000
00000000
00000000
00000000
00000000
00000000
00000000
00000000
00000000
00000000
00000000
00000000
03C00000
03C00000
03C00000
03C00000
03C00000
03C00000
03C00000
03C00000
03C00000
03C00000
03C00000
03C00000
03C00700
03C00F00
03C01F00
03C03E00
03C07C00
03C0F800
03C1F000
03C3E000
03C7C000
03CF8000
03FF0000
03FF0000
03FF0000
03FF0000
03CF8000
03C7C000
03C3E000
03C1F000
03C0F800
03C07C00
03C03E00
03C01F00
03C00F80
03C007C0
03C003E0
03C001F0
03C000F0
03C000F0
0001E000
0001E000
0001E000
0001E000
0001E000
0001E000
0003E000
0007C000
001FC000
001F8000
001F0000
001C0000
ENDCHAR
STARTCHAR LATIN SMALL LETTER KRA
ENCODING 312
SWIDTH 500 0
DWIDTH 32 0
BBX 32 64 0 -12
BITMAP
00000000
00000000
00000000
00000000
00000000
00000000
00000000
00000000
00000000
00000000
00000000
00000000
00000000
00000000
00000000
00000000
00000000
00000000
00000000
00000000
00000000
00000000
00000000
00000000
03C003C0
03C007C0
03C00F80
03C01F00
03C03E00
03C07C00
03C0F800
03C1F000
03C3E000
03C7C000
03CF8000
03DF0000
03FE0000
03FC0000
03FC0000
03FE0000
03DF0000
03CF8000
03C7C000
03C3E000
03C1F000
03C0F800
03C07C00
03C03E00
03C01F00
03C00F80
03C007C0
03C003C0
00000000
00000000
00000000
00000000
00000000
00000000
00000000
00000000
00000000
00000000
00000000
00000000
ENDCHAR
STARTCHAR LATIN CAPITAL LETTER L WITH ACUTE
ENCODING 313
SWIDTH 500 0
DWIDTH 32 0
BBX 32 64 0 -12
BITMAP
00000000
00000000
00007C00
0000FC00
0001F800
0003F000
0007E000
000FC000
001F8000
001F0000
00000000
00000000
0F000000
0F000000
0F000000
0F000000
0F000000
0F000000
0F000000
0F000000
0F000000
0F000000
0F000000
0F000000
0F000000
0F000000
0F000000
0F000000
0F000000
0F000000
0F000000
0F000000
0F000000
0F000000
0F000000
0F000000
0F000000
0F000000
0F000000
0F000000
0F000000
0F000000
0F000000
0F000000
0F000000
0F000000
0F800000
07C00000
07FFFFF0
03FFFFF0
01FFFFF0
007FFFF0
00000000
00000000
00000000
00000000
00000000
00000000
00000000
00000000
00000000
00000000
00000000
00000000
ENDCHAR
STARTCHAR LATIN SMALL LETTER L WITH ACUTE
ENCODING 314
SWIDTH 500 0
DWIDTH 32 0
BBX 32 64 0 -12
BITMAP
00000000
00000000
00007C00
0000FC00
0001F800
0003F000
0007E000
000FC000
001F8000
001F0000
00000000
00000000
003C0000
003C0000
003C0000
003C0000
003C0000
003C0000
003C0000
003C0000
003C0000
003C0000
003C0000
003C0000
003C0000
003C0000
003C0000
003C0000
003C0000
003C0000
003C0000
003C0000
003C0000
003C0000
003C0000
003C0000
003C0000
003C0000
003C0000
003C0000
003C0000
003C0000
003C0000
003C0000
003C0000
003C0000
003E0000
001F0000
001FFFC0
000FFFC0
0007FFC0
0001FFC0
00000000
00000000
00000000
00000000
00000000
00000000
00000000
00000000
00000000
00000000
00000000
00000000
ENDCHAR
STARTCHAR LATIN CAPITAL LETTER L WITH CEDILLA
ENCODING 315
SWIDTH 500 0
DWIDTH 32 0
BBX 32 64 0 -12
BITMAP
00000000
00000000
00000000
00000000
00000000
00000000
00000000
00000000
00000000
00000000
00000000
00000000
0F000000
0F000000
0F000000
0F000000
0F000000
0F000000
0F000000
0F000000
0F000000
0F000000
0F000000
0F000000
0F000000
0F000000
0F000000
0F000000
0F000000
0F000000
0F000000
0F000000
0F000000
0F000000
0F000000
0F000000
0F000000
0F000000
0F000000
0F000000
0F000000
0F000000
0F000000
0F000000
0F000000
0F000000
0F800000
07C00000
07FFFFF0
03FFFFF0
01FFFFF0
007FFFF0
0000F000
0000F000
0000F000
0000F000
0000F000
0000F000
0001F000
0003E000
000FE000
000FC000
000F8000
000E0000
ENDCHAR
STARTCHAR LATIN SMALL LETTER L WITH CEDILLA
ENCODING 316
SWIDTH 500 0
DWIDTH 32 0
BBX 32 64 0 -12
BITMAP
00000000
00000000
00000000
00000000
00000000
00000000
00000000
00000000
00000000
00000000
00000000
00000000
003C0000
003C0000
003C0000
003C0000
003C0000
003C0000
003C0000
003C0000
003C0000
003C0000
003C0000
003C0000
003C0000
003C0000
003C0000
003C0000
003C0000
003C0000
003C0000
003C0000
003C0000
003C0000
003C0000
003C0000
003C0000
003C0000
003C0000
003C0000
003C0000
003C0000
003C0000
003C0000
003C0000
003C0000
003E0000
001F0000
001FFFC0
000FFFC0
0007FFC0
0001FFC0
0000F000
0000F000
0000F000
0000F000
0000F000
0000F000
0001F000
0003E000
000FE000
000FC000
000F8000
000E0000
ENDCHAR
STARTCHAR LATIN CAPITAL LETTER L WITH CARON
ENCODING 317
SWIDTH 500 0
DWIDTH 32 0
BBX 32 64 0 -12
BITMAP
00F81F00
00FC3F00
007E7E00
003FFC00
001FF800
000FF000
0007E000
0003C000
00000000
00000000
00000000
00000000
0F000000
0F000000
0F000000
0F000000
0F000000
0F000000
0F000000
0F000000
0F000000
0F000000
0F000000
0F000000
0F000000
0F000000
0F000000
0F000000
0F000000
0F000000
0F000000
0F000000
0F000000
0F000000
0F000000
0F000000
0F000000
0F000000
0F000000
0F000000
0F000000
0F000000
0F000000
0F000000
0F000000
0F000000
0F800000
07C00000
07FFFFF0
03FFFFF0
01FFFFF0
007FFFF0
00000000
00000000
00000000
00000000
00000000
00000000
00000000
00000000
00000000
00000000
00000000
00000000
ENDCHAR
STARTCHAR LATIN SMALL LETTER L WITH CARON
ENCODING 318
SWIDTH 500 0
DWIDTH 32 0
BBX 32 64 0 -12
BITMAP
00F81F00
00FC3F00
007E7E00
003FFC00
001FF800
000FF000
0007E000
0003C000
00000000
00000000
00000000
00000000
003C0000
003C0000
003C0000
003C0000
003C0000
003C0000
003C0000
003C0000
003C0000
003C0000
003C0000
003C0000
003C0000
003C0000
003C0000
003C0000
003C0000
003C0000
003C0000
003C0000
003C0000
003C0000
003C0000
003C0000
003C0000
003C0000
003C0000
003C0000
003C0000
003C0000
003C0000
003C0000
003C0000
003C0000
003E0000
001F0000
001FFFC0
000FFFC0
0007FFC0
0001FFC0
00000000
00000000
00000000
00000000
00000000
00000000
00000000
00000000
00000000
00000000
00000000
00000000
ENDCHAR
STARTCHAR LATIN CAPITAL LETTER L WITH MIDDLE DOT
ENCODING 319
SWIDTH 500 0
DWIDTH 32 0
BBX 32 64 0 -12
BITMAP
00000000
00000000
00000000
00000000
00000000
00000000
00000000
00000000
00000000
00000000
00000000
00000000
0F000000
0F000000
0F000000
0F000000
0F000000
0F000000
0F000000
0F000000
0F000000
0F000000
0F000000
0F000000
0F000000
0F000000
0F000000
0F000000
0F000F00
0F000F00
0F000F00
0F000F00
0F000F00
0F000F00
0F000000
0F000000
0F000000
0F000000
0F000000
0F000000
0F000000
0F000000
0F000000
0F000000
0F000000
0F000000
0F800000
07C00000
07FFFFF0
03FFFFF0
01FFFFF0
007FFFF0
00000000
00000000
00000000
00000000
00000000
00000000
00000000
00000000
00000000
00000000
00000000
00000000
ENDCHAR
STARTCHAR LATIN SMALL LETTER L WITH MIDDLE DOT
ENCODING 320
SWIDTH 500 0
DWIDTH 32 0
BBX 32 64 0 -12
BITMAP
00000000
00000000
00000000
00000000
00000000
00000000
00000000
00000000
00000000
00000000
00000000
00000000
003C0000
003C0000
003C0000
003C0000
003C0000
003C0000
003C0000
003C0000
003C0000
003C0000
003C0000
003C0000
003C0000
003C0000
003C0000
003C0000
003C0F00
003C0F00
003C0F00
003C0F00
003C0F00
003C0F00
003C0000
003C0000
003C0000
003C0000
003C0000
003C0000
003C0000
003C0000
003C0000
003C0000
003C0000
003C0000
003E0000
001F0000
001FFFC0
000FFFC0
0007FFC0
0001FFC0
00000000
00000000
00000000
00000000
00000000
00000000
00000000
00000000
00000000
00000000
00000000
00000000
ENDCHAR
STARTCHAR LATIN CAPITAL LETTER L WITH STROKE
ENCODING 321
SWIDTH 500 0
DWIDTH 32 0
BBX 32 64 0 -12
BITMAP
00000000
00000000
00000000
00000000
00000000
00000000
00000000
00000000
00000000
00000000
00000000
00000000
0F000000
0F000000
0F000000
0F000000
0F000000
0F000000
0F000000
0F000000
0F000000
0F000000
0F070000
0F0F0000
0F1F0000
0F3F0000
0F7E0000
0FFC0000
0FF80000
0FF00000
0FE00000
0FC00000
1F800000
3F000000
7F000000
FF000000
FF000000
FF000000
0F000000
0F000000
0F000000
0F000000
0F000000
0F000000
0F000000
0F000000
0F800000
07C00000
07FFFFF0
03FFFFF0
01FFFFF0
007FFFF0
00000000
00000000
00000000
00000000
00000000
00000000
00000000
00000000
00000000
00000000
00000000
00000000
ENDCHAR
STARTCHAR LATIN SMALL LETTER L WITH STROKE
ENCODING 322
SWIDTH 500 0
DWIDTH 32 0
BBX 32 64 0 -12
BITMAP
00000000
00000000
00000000
00000000
00000000
00000000
00000000
00000000
00000000
00000000
00000000
00000000
003C0000
003C0000
003C0000
003C0000
003C0000
003C0000
003C0000
003C0000
003C0000
003C0000
003C1C00
003C3C00
003C7C00
003CFC00
003DF800
003FF000
003FE000
003FC000
003F8000
003F0000
007E0000
00FC0000
01FC0000
03FC0000
03FC0000
03FC0000
003C0000
003C0000
003C0000
003C0000
003C0000
003C0000
003C0000
003C0000
003E0000
001F0000
001FFFC0
000FFFC0
0007FFC0
0001FFC0
00000000
00000000
00000000
00000000
00000000
00000000
00000000
00000000
00000000
00000000
00000000
00000000
ENDCHAR
STARTCHAR LATIN CAPITAL LETTER N WITH ACUTE
ENCODING 323
SWIDTH 500 0
DWIDTH 32 0
BBX 32 64 0 -12
BITMAP
00000000
00000000
00007C00
0000FC00
0001F800
0003F000
0007E000
000FC000
001F8000
001F0000
00000000
00000000
0F0000F0
0F0000F0
0F8000F0
0F8000F0
0FC000F0
0FC000F0
0FE000F0
0FE000F0
0FF000F0
0FF000F0
0FF800F0
0FF800F0
0F7C00F0
0F7C00F0
0F3E00F0
0F3E00F0
0F1F00F0
0F1F00F0
0F0F80F0
0F0F80F0
0F07C0F0
0F07C0F0
0F03E0F0
0F03E0F0
0F01F0F0
0F01F0F0
0F00F8F0
0F00F8F0
0F007CF0
0F007CF0
0F003EF0
0F003EF0
0F001FF0
0F001FF0
0F000FF0
0F000FF0
0F0007F0
0F0007F0
0F0003F0
0F0003F0
00000000
00000000
00000000
00000000
00000000
00000000
00000000
00000000
00000000
00000000
00000000
00000000
ENDCHAR
STARTCHAR LATIN SMALL LETTER N WITH ACUTE
ENCODING 324
SWIDTH 500 0
DWIDTH 32 0
BBX 32 64 0 -12
BITMAP
00000000
00000000
00000000
00000000
00000000
00000000
00000000
00000000
00000E00
00001E00
00003E00
00007E00
0000FC00
0001F800
0003F000
0007E000
000FC000
001F8000
001F0000
001E0000
00000000
00000000
00000000
00000000
0FFFFE00
0FFFFF80
0FFFFFC0
0FFFFFE0
0F0003E0
0F0001F0
0F0000F0
0F0000F0
0F0000F0
0F0000F0
0F0000F0
0F0000F0
0F0000F0
0F0000F0
0F0000F0
0F0000F0
0F0000F0
0F0000F0
0F0000F0
0F0000F0
0F0000F0
0F0000F0
0F0000F0
0F0000F0
0F0000F0
0F0000F0
0F0000F0
0F0000F0
00000000
00000000
00000000
00000000
00000000
00000000
00000000
00000000
00000000
00000000
00000000
00000000
ENDCHAR
STARTCHAR LATIN CAPITAL LETTER N WITH CEDILLA
ENCODING 325
SWIDTH 500 0
DWIDTH 32 0
BBX 32 64 0 -12
BITMAP
00000000
00000000
00000000
00000000
00000000
00000000
00000000
00000000
00000000
00000000
00000000
00000000
0F0000F0
0F0000F0
0F8000F0
0F8000F0
0FC000F0
0FC000F0
0FE000F0
0FE000F0
0FF000F0
0FF000F0
0FF800F0
0FF800F0
0F7C00F0
0F7C00F0
0F3E00F0
0F3E00F0
0F1F00F0
0F1F00F0
0F0F80F0
0F0F80F0
0F07C0F0
0F07C0F0
0F03E0F0
0F03E0F0
0F01F0F0
0F01F0F0
0F00F8F0
0F00F8F0
0F007CF0
0F007CF0
0F003EF0
0F003EF0
0F001FF0
0F001FF0
0F000FF0
0F000FF0
0F0007F0
0F0007F0
0F0003F0
0F0003F0
0003C000
0003C000
0003C000
0003C000
0003C000
0003C000
0007C000
000F8000
003F8000
003F0000
003E0000
00380000
ENDCHAR
STARTCHAR LATIN SMALL LETTER N WITH CEDILLA
ENCODING 326
SWIDTH 500 0
DWIDTH 32 0
BBX 32 64 0 -12
BITMAP
00000000
00000000
00000000
00000000
00000000
00000000
00000000
00000000
00000000
00000000
00000000
00000000
00000000
00000000
00000000
00000000
00000000
00000000
00000000
00000000
00000000
00000000
00000000
00000000
0FFFFE00
0FFFFF80
0FFFFFC0
0FFFFFE0
0F0003E0
0F0001F0
0F0000F0
0F0000F0
0F0000F0
0F0000F0
0F0000F0
0F0000F0
0F0000F0
0F0000F0
0F0000F0
0F0000F0
0F0000F0
0F0000F0
0F0000F0
0F0000F0
0F0000F0
0F0000F0
0F0000F0
0F0000F0
0F0000F0
0F0000F0
0F0000F0
0F0000F0
0003C000
0003C000
0003C000
0003C000
0003C000
0003C000
0007C000
000F8000
003F8000
003F0000
003E0000
00380000
ENDCHAR
STARTCHAR LATIN CAPITAL LETTER N WITH CARON
ENCODING 327
SWIDTH 500 0
DWIDTH 32 0
BBX 32 64 0 -12
BITMAP
00F81F00
00FC3F00
007E7E00
003FFC00
001FF800
000FF000
0007E000
0003C000
00000000
00000000
00000000
00000000
0F0000F0
0F0000F0
0F8000F0
0F8000F0
0FC000F0
0FC000F0
0FE000F0
0FE000F0
0FF000F0
0FF000F0
0FF800F0
0FF800F0
0F7C00F0
0F7C00F0
0F3E00F0
0F3E00F0
0F1F00F0
0F1F00F0
0F0F80F0
0F0F80F0
0F07C0F0
0F07C0F0
0F03E0F0
0F03E0F0
0F01F0F0
0F01F0F0
0F00F8F0
0F00F8F0
0F007CF0
0F007CF0
0F003EF0
0F003EF0
0F001FF0
0F001FF0
0F000FF0
0F000FF0
0F0007F0
0F0007F0
0F0003F0
0F0003F0
00000000
00000000
00000000
00000000
00000000
00000000
00000000
00000000
00000000
00000000
00000000
00000000
ENDCHAR
STARTCHAR LATIN SMALL LETTER N WITH CARON
ENCODING 328
SWIDTH 500 0
DWIDTH 32 0
BBX 32 64 0 -12
BITMAP
00000000
00000000
00000000
00000000
00000000
00000000
00000000
00000000
038001C0
03C003C0
03E007C0
03F00FC0
01F81F80
00FC3F00
007E7E00
003FFC00
001FF800
000FF000
0007E000
0003C000
00000000
00000000
00000000
00000000
0FFFFE00
0FFFFF80
0FFFFFC0
0FFFFFE0
0F0003E0
0F0001F0
0F0000F0
0F0000F0
0F0000F0
0F0000F0
0F0000F0
0F0000F0
0F0000F0
0F0000F0
0F0000F0
0F0000F0
0F0000F0
0F0000F0
0F0000F0
0F0000F0
0F0000F0
0F0000F0
0F0000F0
0F0000F0
0F0000F0
0F0000F0
0F0000F0
0F0000F0
00000000
00000000
00000000
00000000
00000000
00000000
00000000
00000000
00000000
00000000
00000000
00000000
ENDCHAR
STARTCHAR LATIN SMALL LETTER N PRECEDED BY APOSTROPHE
ENCODING 329
SWIDTH 500 0
DWIDTH 32 0
BBX 32 64 0 -12
BITMAP
00000000
00000000
00000000
00000000
00000000
00000000
00000000
00000000
0F000000
0F000000
0F000000
0F000000
0F000000
0F000000
1F000000
3E000000
FE000000
FC000000
F8000000
E0000000
00000000
00000000
00000000
00000000
0FFFFE00
0FFFFF80
0FFFFFC0
0FFFFFE0
0F0003E0
0F0001F0
0F0000F0
0F0000F0
0F0000F0
0F0000F0
0F0000F0
0F0000F0
0F0000F0
0F0000F0
0F0000F0
0F0000F0
0F0000F0
0F0000F0
0F0000F0
0F0000F0
0F0000F0
0F0000F0
0F0000F0
0F0000F0
0F0000F0
0F0000F0
0F0000F0
0F0000F0
00000000
00000000
00000000
00000000
00000000
00000000
00000000
00000000
00000000
00000000
00000000
00000000
ENDCHAR
STARTCHAR LATIN CAPITAL LETTER ENG
ENCODING 330
SWIDTH 500 0
DWIDTH 32 0
BBX 32 64 0 -12
BITMAP
00000000
00000000
00000000
00000000
00000000
00000000
00000000
00000000
00000000
00000000
00000000
00000000
0F0000F0
0F0000F0
0F8000F0
0F8000F0
0FC000F0
0FC000F0
0FE000F0
0FE000F0
0FF000F0
0FF000F0
0FF800F0
0FF800F0
0F7C00F0
0F7C00F0
0F3E00F0
0F3E00F0
0F1F00F0
0F1F00F0
0F0F80F0
0F0F80F0
0F07C0F0
0F07C0F0
0F03E0F0
0F03E0F0
0F01F0F0
0F01F0F0
0F00F8F0
0F00F8F0
0F007CF0
0F007CF0
0F003EF0
0F003EF0
0F001FF0
0F001FF0
0F000FF0
0F000FF0
0F0007F0
0F0007F0
0F0003F0
0F0003F0
000001F0
000001F0
000000F0
000000F0
000001F0
000003E0
0000FFE0
0000FFC0
0000FF80
0000FE00
00000000
00000000
ENDCHAR
STARTCHAR LATIN SMALL LETTER ENG
ENCODING 331
SWIDTH 500 0
DWIDTH 32 0
BBX 32 64 0 -12
BITMAP
00000000
00000000
00000000
00000000
00000000
00000000
00000000
00000000
00000000
00000000
00000000
00000000
00000000
00000000
00000000
00000000
00000000
00000000
00000000
00000000
00000000
00000000
00000000
00000000
0FFFFE00
0FFFFF80
0FFFFFC0
0FFFFFE0
0F0003E0
0F0001F0
0F0000F0
0F0000F0
0F0000F0
0F0000F0
0F0000F0
0F0000F0
0F0000F0
0F0000F0
0F0000F0
0F0000F0
0F0000F0
0F0000F0
0F0000F0
0F0000F0
0F0000F0
0F0000F0
0F0000F0
0F0000F0
0F0000F0
0F0000F0
0F0000F0
0F0000F0
000000F0
000000F0
000000F0
000000F0
000001F0
000003E0
0000FFE0
0000FFC0
0000FF80
0000FE00
00000000
00000000
ENDCHAR
STARTCHAR LATIN CAPITAL LETTER O WITH MACRON
ENCODING 332
SWIDTH 500 0
DWIDTH 32 0
BBX 32 64 0 -12
BITMAP
00000000
00000000
00000000
00000000
00FFFF00
00FFFF00
00FFFF00
00FFFF00
00000000
00000000
00000000
00000000
007FFE00
01FFFF80
03FFFFC0
07FFFFE0
07C003E0
0F8001F0
0F0000F0
0F0000F0
0F0000F0
0F0000F0
0F0000F0
0F0000F0
0F0000F0
0F0000F0
0F0000F0
0F0000F0
0F0000F0
0F0000F0
0F0000F0
0F0000F0
0F0000F0
0F0000F0
0F0000F0
0F0000F0
0F0000F0
0F0000F0
0F0000F0
0F0000F0
0F0000F0
0F0000F0
0F0000F0
0F0000F0
0F0000F0
0F0000F0
0F8001F0
07C003E0
07FFFFE0
03FFFFC0
01FFFF80
007FFE00
00000000
00000000
00000000
00000000
00000000
00000000
00000000
00000000
00000000
00000000
00000000
00000000
ENDCHAR
STARTCHAR LATIN SMALL LETTER O WITH MACRON
ENCODING 333
SWIDTH 500 0
DWIDTH 32 0
BBX 32 64 0 -12
BITMAP
00000000
00000000
00000000
00000000
00000000
00000000
00000000
00000000
00000000
00000000
00000000
00000000
00000000
00000000
00000000
00000000
00FFFF00
00FFFF00
00FFFF00
00FFFF00
00000000
00000000
00000000
00000000
007FFE00
01FFFF80
03FFFFC0
07FFFFE0
07C003E0
0F8001F0
0F0000F0
0F0000F0
0F0000F0
0F0000F0
0F0000F0
0F0000F0
0F0000F0
0F0000F0
0F0000F0
0F0000F0
0F0000F0
0F0000F0
0F0000F0
0F0000F0
0F0000F0
0F0000F0
0F8001F0
07C003E0
07FFFFE0
03FFFFC0
01FFFF80
007FFE00
00000000
00000000
00000000
00000000
00000000
00000000
00000000
00000000
00000000
00000000
00000000
00000000
ENDCHAR
STARTCHAR LATIN CAPITAL LETTER O WITH BREVE
ENCODING 334
SWIDTH 500 0
DWIDTH 32 0
BBX 32 64 0 -12
BITMAP
00F00F00
00F00F00
00F00F00
00781E00
007FFE00
003FFC00
001FF800
0007E000
00000000
00000000
00000000
00000000
007FFE00
01FFFF80
03FFFFC0
07FFFFE0
07C003E0
0F8001F0
0F0000F0
0F0000F0
0F0000F0
0F0000F0
0F0000F0
0F0000F0
0F0000F0
0F0000F0
0F0000F0
0F0000F0
0F0000F0
0F0000F0
0F0000F0
0F0000F0
0F0000F0
0F0000F0
0F0000F0
0F0000F0
0F0000F0
0F0000F0
0F0000F0
0F0000F0
0F0000F0
0F0000F0
0F0000F0
0F0000F0
0F0000F0
0F0000F0
0F8001F0
07C003E0
07FFFFE0
03FFFFC0
01FFFF80
007FFE00
00000000
00000000
00000000
00000000
00000000
00000000
00000000
00000000
00000000
00000000
00000000
00000000
ENDCHAR
STARTCHAR LATIN SMALL LETTER O WITH BREVE
ENCODING 335
SWIDTH 500 0
DWIDTH 32 0
BBX 32 64 0 -12
BITMAP
00000000
00000000
00000000
00000000
00000000
00000000
00000000
00000000
00000000
00000000
00000000
00000000
00F00F00
00F00F00
00F00F00
00781E00
007FFE00
003FFC00
001FF800
0007E000
00000000
00000000
00000000
00000000
007FFE00
01FFFF80
03FFFFC0
07FFFFE0
07C003E0
0F8001F0
0F0000F0
0F0000F0
0F0000F0
0F0000F0
0F0000F0
0F0000F0
0F0000F0
0F0000F0
0F0000F0
0F0000F0
0F0000F0
0F0000F0
0F0000F0
0F0000F0
0F0000F0
0F0000F0
0F8001F0
07C003E0
07FFFFE0
03FFFFC0
01FFFF80
007FFE00
00000000
00000000
00000000
00000000
00000000
00000000
00000000
00000000
00000000
00000000
00000000
00000000
ENDCHAR
STARTCHAR LATIN CAPITAL LETTER O WITH DOUBLE ACUTE
ENCODING 336
SWIDTH 500 0
DWIDTH 32 0
BBX 32 64 0 -12
BITMAP
00000000
00000000
0007C1F0
000FC3F0
001F87E0
003F0FC0
007E1F80
00FC3F00
01F87E00
01F07C00
00000000
00000000
007FFE00
01FFFF80
03FFFFC0
07FFFFE0
07C003E0
0F8001F0
0F0000F0
0F0000F0
0F0000F0
0F0000F0
0F0000F0
0F0000F0
0F0000F0
0F0000F0
0F0000F0
0F0000F0
0F0000F0
0F0000F0
0F0000F0
0F0000F0
0F0000F0
0F0000F0
0F0000F0
0F0000F0
0F0000F0
0F0000F0
0F0000F0
0F0000F0
0F0000F0
0F0000F0
0F0000F0
0F0000F0
0F0000F0
0F0000F0
0F8001F0
07C003E0
07FFFFE0
03FFFFC0
01FFFF80
007FFE00
00000000
00000000
00000000
00000000
00000000
00000000
00000000
00000000
00000000
00000000
00000000
00000000
ENDCHAR
STARTCHAR LATIN SMALL LETTER O WITH DOUBLE ACUTE
ENCODING 337
SWIDTH 500 0
DWIDTH 32 0
BBX 32 64 0 -12
BITMAP
00000000
00000000
00000000
00000000
00000000
00000000
00000000
00000000
0001C070
0003C0F0
0007C1F0
000FC3F0
001F87E0
003F0FC0
007E1F80
00FC3F00
01F87E00
03F0FC00
03E0F800
03C0F000
00000000
00000000
00000000
00000000
007FFE00
01FFFF80
03FFFFC0
07FFFFE0
07C003E0
0F8001F0
0F0000F0
0F0000F0
0F0000F0
0F0000F0
0F0000F0
0F0000F0
0F0000F0
0F0000F0
0F0000F0
0F0000F0
0F0000F0
0F0000F0
0F0000F0
0F0000F0
0F0000F0
0F0000F0
0F8001F0
07C003E0
07FFFFE0
03FFFFC0
01FFFF80
007FFE00
00000000
00000000
00000000
00000000
00000000
00000000
00000000
00000000
00000000
00000000
00000000
00000000
ENDCHAR
STARTCHAR LATIN CAPITAL LIGATURE OE
ENCODING 338
SWIDTH 500 0
DWIDTH 32 0
BBX 32 64 0 -12
BITMAP
00000000
00000000
00000000
00000000
00000000
00000000
00000000
00000000
00000000
00000000
00000000
00000000
007FFFF0
01FFFFF0
03FFFFF0
07FFFFF0
07C0F000
0F80F000
0F00F000
0F00F000
0F00F000
0F00F000
0F00F000
0F00F000
0F00F000
0F00F000
0F00F000
0F00F000
0F00F000
0F00F000
0F00FFF0
0F00FFF0
0F00FFF0
0F00FFF0
0F00F000
0F00F000
0F00F000
0F00F000
0F00F000
0F00F000
0F00F000
0F00F000
0F00F000
0F00F000
0F00F000
0F00F000
0F80F000
07C0F000
07FFFFF0
03FFFFF0
01FFFFF0
007FFFF0
00000000
00000000
00000000
00000000
00000000
00000000
00000000
00000000
00000000
00000000
00000000
00000000
ENDCHAR
STARTCHAR LATIN SMALL LIGATURE OE
ENCODING 339
SWIDTH 500 0
DWIDTH 32 0
BBX 32 64 0 -12
BITMAP
00000000
00000000
00000000
00000000
00000000
00000000
00000000
00000000
00000000
00000000
00000000
00000000
00000000
00000000
00000000
00000000
00000000
00000000
00000000
00000000
00000000
00000000
00000000
00000000
007F0FFF
01FF9FFF
03FFFFFF
07FFFFFF
07C3FC0F
0F81F80F
0F00F00F
0F00F00F
0F00F00F
0F00F00F
0F00F00F
0F00F00F
0F00FFFF
0F00FFFF
0F00FFFF
0F00FFFF
0F00F000
0F00F000
0F00F000
0F00F000
0F00F000
0F00F000
0F81F800
07C3FC00
07FFFFFF
03FFFFFF
01FF9FFF
007F0FFF
00000000
00000000
00000000
00000000
00000000
00000000
00000000
00000000
00000000
00000000
00000000
00000000
ENDCHAR
STARTCHAR LATIN CAPITAL LETTER R WITH ACUTE
ENCODING 340
SWIDTH 500 0
DWIDTH 32 0
BBX 32 64 0 -12
BITMAP
00000000
00000000
00007C00
0000FC00
0001F800
0003F000
0007E000
000FC000
001F8000
001F0000
00000000
00000000
0FFFFE00
0FFFFF80
0FFFFFC0
0FFFFFE0
0F0003E0
0F0001F0
0F0000F0
0F0000F0
0F0000F0
0F0000F0
0F0000F0
0F0000F0
0F0000F0
0F0000F0
0F0000F0
0F0001F0
0F0003E0
0F0007C0
0FFFFF80
0FFFFF00
0FFFFF00
0FFFFF80
0F0007C0
0F0003E0
0F0001F0
0F0000F0
0F0000F0
0F0000F0
0F0000F0
0F0000F0
0F0000F0
0F0000F0
0F0000F0
0F0000F0
0F0000F0
0F0000F0
0F0000F0
0F0000F0
0F0000F0
0F0000F0
00000000
00000000
00000000
00000000
00000000
00000000
00000000
00000000
00000000
00000000
00000000
00000000
ENDCHAR
STARTCHAR LATIN SMALL LETTER R WITH ACUTE
ENCODING 341
SWIDTH 500 0
DWIDTH 32 0
BBX 32 64 0 -12
BITMAP
00000000
00000000
00000000
00000000
00000000
00000000
00000000
00000000
00001C00
00003C00
00007C00
0000FC00
0001F800
0003F000
0007E000
000FC000
001F8000
003F0000
003E0000
003C0000
00000000
00000000
00000000
00000000
007FFFF0
01FFFFF0
03FFFFF0
07FFFFF0
07C000F0
0F8000F0
0F0000F0
0F0000F0
0F000000
0F000000
0F000000
0F000000
0F000000
0F000000
0F000000
0F000000
0F000000
0F000000
0F000000
0F000000
0F000000
0F000000
0F000000
0F000000
0F000000
0F000000
0F000000
0F000000
00000000
00000000
00000000
00000000
00000000
00000000
00000000
00000000
00000000
00000000
00000000
00000000
ENDCHAR
STARTCHAR LATIN CAPITAL LETTER R WITH CEDILLA
ENCODING 342
SWIDTH 500 0
DWIDTH 32 0
BBX 32 64 0 -12
BITMAP
00000000
00000000
00000000
00000000
00000000
00000000
00000000
00000000
00000000
00000000
00000000
00000000
0FFFFE00
0FFFFF80
0FFFFFC0
0FFFFFE0
0F0003E0
0F0001F0
0F0000F0
0F0000F0
0F0000F0
0F0000F0
0F0000F0
0F0000F0
0F0000F0
0F0000F0
0F0000F0
0F0001F0
0F0003E0
0F0007C0
0FFFFF80
0FFFFF00
0FFFFF00
0FFFFF80
0F0007C0
0F0003E0
0F0001F0
0F0000F0
0F0000F0
0F0000F0
0F0000F0
0F0000F0
0F0000F0
0F0000F0
0F0000F0
0F0000F0
0F0000F0
0F0000F0
0F0000F0
0F0000F0
0F0000F0
0F0000F0
0003C000
0003C000
0003C000
0003C000
0003C000
0003C000
0007C000
000F8000
003F8000
003F0000
003E0000
00380000
ENDCHAR
STARTCHAR LATIN SMALL LETTER R WITH CEDILLA
ENCODING 343
SWIDTH 500 0
DWIDTH 32 0
BBX 32 64 0 -12
BITMAP
00000000
00000000
00000000
00000000
00000000
00000000
00000000
00000000
00000000
00000000
00000000
00000000
00000000
00000000
00000000
00000000
00000000
00000000
00000000
00000000
00000000
00000000
00000000
00000000
007FFFF0
01FFFFF0
03FFFFF0
07FFFFF0
07C000F0
0F8000F0
0F0000F0
0F0000F0
0F000000
0F000000
0F000000
0F000000
0F000000
0F000000
0F000000
0F000000
0F000000
0F000000
0F000000
0F000000
0F000000
0F000000
0F000000
0F000000
0F000000
0F000000
0F000000
0F000000
0003C000
0003C000
0003C000
0003C000
0003C000
0003C000
0007C000
000F8000
003F8000
003F0000
003E0000
00380000
ENDCHAR
STARTCHAR LATIN CAPITAL LETTER R WITH CARON
ENCODING 344
SWIDTH 500 0
DWIDTH 32 0
BBX 32 64 0 -12
BITMAP
00F81F00
00FC3F00
007E7E00
003FFC00
001FF800
000FF000
0007E000
0003C000
00000000
00000000
00000000
00000000
0FFFFE00
0FFFFF80
0FFFFFC0
0FFFFFE0
0F0003E0
0F0001F0
0F0000F0
0F0000F0
0F0000F0
0F0000F0
0F0000F0
0F0000F0
0F0000F0
0F0000F0
0F0000F0
0F0001F0
0F0003E0
0F0007C0
0FFFFF80
0FFFFF00
0FFFFF00
0FFFFF80
0F0007C0
0F0003E0
0F0001F0
0F0000F0
0F0000F0
0F0000F0
0F0000F0
0F0000F0
0F0000F0
0F0000F0
0F0000F0
0F0000F0
0F0000F0
0F0000F0
0F0000F0
0F0000F0
0F0000F0
0F0000F0
00000000
00000000
00000000
00000000
00000000
00000000
00000000
00000000
00000000
00000000
00000000
00000000
ENDCHAR
STARTCHAR LATIN SMALL LETTER R WITH CARON
ENCODING 345
SWIDTH 500 0
DWIDTH 32 0
BBX 32 64 0 -12
BITMAP
00000000
00000000
00000000
00000000
00000000
00000000
00000000
00000000
038001C0
03C003C0
03E007C0
03F00FC0
01F81F80
00FC3F00
007E7E00
003FFC00
001FF800
000FF000
0007E000
0003C000
00000000
00000000
00000000
00000000
007FFFF0
01FFFFF0
03FFFFF0
07FFFFF0
07C000F0
0F8000F0
0F0000F0
0F0000F0
0F000000
0F000000
0F000000
0F000000
0F000000
0F000000
0F000000
0F000000
0F000000
0F000000
0F000000
0F000000
0F000000
0F000000
0F000000
0F000000
0F000000
0F000000
0F000000
0F000000
00000000
00000000
00000000
00000000
00000000
00000000
00000000
00000000
00000000
00000000
00000000
00000000
ENDCHAR
STARTCHAR LATIN CAPITAL LETTER S WITH ACUTE
ENCODING 346
SWIDTH 500 0
DWIDTH 32 0
BBX 32 64 0 -12
BITMAP
00000000
00000000
00001F00
00003F00
00007E00
0000FC00
0001F800
0003F000
0007E000
0007C000
00000000
00000000
007FFFF0
01FFFFF0
03FFFFF0
07FFFFF0
07C00000
0F800000
0F000000
0F000000
0F000000
0F000000
0F000000
0F000000
0F000000
0F000000
0F000000
0F000000
0F800000
07C00000
07FFFE00
03FFFF80
01FFFFC0
007FFFE0
000003E0
000001F0
000000F0
000000F0
000000F0
000000F0
000000F0
000000F0
000000F0
000000F0
000000F0
000000F0
000001F0
000003E0
0FFFFFE0
0FFFFFC0
0FFFFF80
0FFFFE00
00000000
00000000
00000000
00000000
00000000
00000000
00000000
00000000
00000000
00000000
00000000
00000000
ENDCHAR
STARTCHAR LATIN SMALL LETTER S WITH ACUTE
ENCODING 347
SWIDTH 500 0
DWIDTH 32 0
BBX 32 64 0 -12
BITMAP
00000000
00000000
00000000
00000000
00000000
00000000
00000000
00000000
00000700
00000F00
00001F00
00003F00
00007E00
0000FC00
0001F800
0003F000
0007E000
000FC000
000F8000
000F0000
00000000
00000000
00000000
00000000
007FFFF0
01FFFFF0
03FFFFF0
07FFFFF0
07C00000
0F800000
0F000000
0F000000
0F000000
0F000000
0F800000
07C00000
07FFFE00
03FFFF80
01FFFFC0
007FFFE0
000003E0
000001F0
000000F0
000000F0
000000F0
000000F0
000001F0
000003E0
0FFFFFE0
0FFFFFC0
0FFFFF80
0FFFFE00
00000000
00000000
00000000
00000000
00000000
00000000
00000000
00000000
00000000
00000000
00000000
00000000
ENDCHAR
STARTCHAR LATIN CAPITAL LETTER S WITH CIRCUMFLEX
ENCODING 348
SWIDTH 500 0
DWIDTH 32 0
BBX 32 64 0 -12
BITMAP
0003C000
0007E000
000FF000
001FF800
003FFC00
007E7E00
00FC3F00
00F81F00
00000000
00000000
00000000
00000000
007FFFF0
01FFFFF0
03FFFFF0
07FFFFF0
07C00000
0F800000
0F000000
0F000000
0F000000
0F000000
0F000000
0F000000
0F000000
0F000000
0F000000
0F000000
0F800000
07C00000
07FFFE00
03FFFF80
01FFFFC0
007FFFE0
000003E0
000001F0
000000F0
000000F0
000000F0
000000F0
000000F0
000000F0
000000F0
000000F0
000000F0
000000F0
000001F0
000003E0
0FFFFFE0
0FFFFFC0
0FFFFF80
0FFFFE00
00000000
00000000
00000000
00000000
00000000
00000000
00000000
00000000
00000000
00000000
00000000
00000000
ENDCHAR
STARTCHAR LATIN SMALL LETTER S WITH CIRCUMFLEX
ENCODING 349
SWIDTH 500 0
DWIDTH 32 0
BBX 32 64 0 -12
BITMAP
00000000
00000000
00000000
00000000
00000000
00000000
00000000
00000000
0003C000
0007E000
000FF000
001FF800
003FFC00
007E7E00
00FC3F00
01F81F80
03F00FC0
03E007C0
03C003C0
038001C0
00000000
00000000
00000000
00000000
007FFFF0
01FFFFF0
03FFFFF0
07FFFFF0
07C00000
0F800000
0F000000
0F000000
0F000000
0F000000
0F800000
07C00000
07FFFE00
03FFFF80
01FFFFC0
007FFFE0
000003E0
000001F0
000000F0
000000F0
000000F0
000000F0
000001F0
000003E0
0FFFFFE0
0FFFFFC0
0FFFFF80
0FFFFE00
00000000
00000000
00000000
00000000
00000000
00000000
00000000
00000000
00000000
00000000
00000000
00000000
ENDCHAR
STARTCHAR LATIN CAPITAL LETTER S WITH CEDILLA
ENCODING 350
SWIDTH 500 0
DWIDTH 32 0
BBX 32 64 0 -12
BITMAP
00000000
00000000
00000000
00000000
00000000
00000000
00000000
00000000
00000000
00000000
00000000
00000000
007FFFF0
01FFFFF0
03FFFFF0
07FFFFF0
07C00000
0F800000
0F000000
0F000000
0F000000
0F000000
0F000000
0F000000
0F000000
0F000000
0F000000
0F000000
0F800000
07C00000
07FFFE00
03FFFF80
01FFFFC0
007FFFE0
000003E0
000001F0
000000F0
000000F0
000000F0
000000F0
000000F0
000000F0
000000F0
000000F0
000000F0
000000F0
000001F0
000003E0
0FFFFFE0
0FFFFFC0
0FFFFF80
0FFFFE00
0003C000
0003C000
0003C000
0003C000
0003C000
0003C000
0007C000
000F8000
003F8000
003F0000
003E0000
00380000
ENDCHAR
STARTCHAR LATIN SMALL LETTER S WITH CEDILLA
ENCODING 351
SWIDTH 500 0
DWIDTH 32 0
BBX 32 64 0 -12
BITMAP
00000000
00000000
00000000
00000000
00000000
00000000
00000000
00000000
00000000
00000000
00000000
00000000
00000000
00000000
00000000
00000000
00000000
00000000
00000000
00000000
00000000
00000000
00000000
00000000
007FFFF0
01FFFFF0
03FFFFF0
07FFFFF0
07C00000
0F800000
0F000000
0F000000
0F000000
0F000000
0F800000
07C00000
07FFFE00
03FFFF80
01FFFFC0
007FFFE0
000003E0
000001F0
000000F0
000000F0
000000F0
000000F0
000001F0
000003E0
0FFFFFE0
0FFFFFC0
0FFFFF80
0FFFFE00
0003C000
0003C000
0003C000
0003C000
0003C000
0003C000
0007C000
000F8000
003F8000
003F0000
003E0000
00380000
ENDCHAR
STARTCHAR LATIN CAPITAL LETTER S WITH CARON
ENCODING 352
SWIDTH 500 0
DWIDTH 32 0
BBX 32 64 0 -12
BITMAP
00F81F00
00FC3F00
007E7E00
003FFC00
001FF800
000FF000
0007E000
0003C000
00000000
00000000
00000000
00000000
007FFFF0
01FFFFF0
03FFFFF0
07FFFFF0
07C00000
0F800000
0F000000
0F000000
0F000000
0F000000
0F000000
0F000000
0F000000
0F000000
0F000000
0F000000
0F800000
07C00000
07FFFE00
03FFFF80
01FFFFC0
007FFFE0
000003E0
000001F0
000000F0
000000F0
000000F0
000000F0
000000F0
000000F0
000000F0
000000F0
000000F0
000000F0
000001F0
000003E0
0FFFFFE0
0FFFFFC0
0FFFFF80
0FFFFE00
00000000
00000000
00000000
00000000
00000000
00000000
00000000
00000000
00000000
00000000
00000000
00000000
ENDCHAR
STARTCHAR LATIN SMALL LETTER S WITH CARON
ENCODING 353
SWIDTH 500 0
DWIDTH 32 0
BBX 32 64 0 -12
BITMAP
00000000
00000000
00000000
00000000
00000000
00000000
00000000
00000000
038001C0
03C003C0
03E007C0
03F00FC0
01F81F80
00FC3F00
007E7E00
003FFC00
001FF800
000FF000
0007E000
0003C000
00000000
00000000
00000000
00000000
007FFFF0
01FFFFF0
03FFFFF0
07FFFFF0
07C00000
0F800000
0F000000
0F000000
0F000000
0F000000
0F800000
07C00000
07FFFE00
03FFFF80
01FFFFC0
007FFFE0
000003E0
000001F0
000000F0
000000F0
000000F0
000000F0
000001F0
000003E0
0FFFFFE0
0FFFFFC0
0FFFFF80
0FFFFE00
00000000
00000000
00000000
00000000
00000000
00000000
00000000
00000000
00000000
00000000
00000000
00000000
ENDCHAR
STARTCHAR LATIN CAPITAL LETTER T WITH CEDILLA
ENCODING 354
SWIDTH 500 0
DWIDTH 32 0
BBX 32 64 0 -12
BITMAP
00000000
00000000
00000000
00000000
00000000
00000000
00000000
00000000
00000000
00000000
00000000
00000000
3FFFFFFC
3FFFFFFC
3FFFFFFC
3FFFFFFC
0003C000
0003C000
0003C000
0003C000
0003C000
0003C000
0003C000
0003C000
0003C000
0003C000
0003C000
0003C000
0003C000
0003C000
0003C000
0003C000
0003C000
0003C000
0003C000
0003C000
0003C000
0003C000
0003C000
0003C000
0003C000
0003C000
0003C000
0003C000
0003C000
0003C000
0003C000
0003C000
0003C000
0003C000
0003C000
0003C000
0000F000
0000F000
0000F000
0000F000
0000F000
0000F000
0001F000
0003E000
000FE000
000FC000
000F8000
000E0000
ENDCHAR
STARTCHAR LATIN SMALL LETTER T WITH CEDILLA
ENCODING 355
SWIDTH 500 0
DWIDTH 32 0
BBX 32 64 0 -12
BITMAP
00000000
00000000
00000000
00000000
00000000
00000000
00000000
00000000
00000000
00000000
00000000
00000000
003C0000
003C0000
003C0000
003C0000
003C0000
003C0000
003C0000
003C0000
003C0000
003C0000
003C0000
003C0000
03FFFC00
03FFFC00
03FFFC00
03FFFC00
003C0000
003C0000
003C0000
003C0000
003C0000
003C0000
003C0000
003C0000
003C0000
003C0000
003C0000
003C0000
003C0000
003C0000
003C0000
003C0000
003C0000
003C0000
003E0000
001F0000
001FFFC0
000FFFC0
0007FFC0
0001FFC0
00003C00
00003C00
00003C00
00003C00
00003C00
00003C00
00007C00
0000F800
0003F800
0003F000
0003E000
00038000
ENDCHAR
ENDFONT
